<svg width="179" height="80" viewBox="0 0 179 80" xmlns="http://www.w3.org/2000/svg"><title>Group</title><g fill-rule="nonzero" fill="#FFF"><path d="M15.302 0h5.665l15.3 35.025h-6.46l-3.523-8.396H9.834L6.26 35.024H0L15.302 0zm8.74 21.213L18.038 7.3l-5.965 13.913h11.97zM42.895.246h6.11v34.78h-6.11M87.2 35.025h6.11V.245H86.8L76.215 16.693 65.636.246h-6.51v34.78h6.013v-24.84l10.877 16.292h.2l10.982-16.393"/><g><path d="M115.464 9.246h7.515c3.718 0 6.456 1.68 6.456 5.305 0 2.566-1.414 4.248-3.533 4.956l4.062 5.747h-4.686l-3.452-5.04h-2.477v5.04h-3.888l.002-16.007zm7.25 7.755c1.993 0 3.087-.997 3.087-2.487 0-1.592-1.192-2.49-3.087-2.49h-3.777v4.978h3.777z"/><path d="M121.72 4.816c7.03 0 12.746 5.72 12.746 12.747 0 7.028-5.717 12.746-12.745 12.746-7.026 0-12.743-5.72-12.743-12.747S114.69 4.816 121.72 4.816zm0-4.57c-9.565 0-17.313 7.756-17.313 17.318 0 9.565 7.748 17.317 17.314 17.317 9.563 0 17.317-7.75 17.317-17.316 0-9.562-7.754-17.318-17.316-17.318z"/><g><path d="M105.296 46.1h5.155v1.094h-3.933V49h3.486v1.094h-3.486v1.87h3.98v1.09h-5.203M112.092 50.104V46.1h1.223v3.955c0 1.29.664 1.978 1.758 1.978 1.082 0 1.748-.646 1.748-1.927V46.1h1.225v3.945c0 2.075-1.172 3.12-2.99 3.12-1.812 0-2.963-1.045-2.963-3.06zM119.97 46.1h3.1c.874 0 1.56.258 2.008.695.366.377.575.895.575 1.5v.02c0 1.143-.686 1.827-1.65 2.105l1.88 2.634h-1.45l-1.71-2.426h-1.528v2.426h-1.223V46.1zm3.01 3.447c.873 0 1.43-.455 1.43-1.162v-.02c0-.744-.536-1.15-1.44-1.15h-1.778v2.332h1.788zM127.093 49.598v-.02c0-1.957 1.51-3.598 3.646-3.598 2.137 0 3.63 1.62 3.63 3.578v.02c0 1.957-1.514 3.596-3.648 3.596-2.138 0-3.63-1.62-3.63-3.576zm5.99 0v-.02c0-1.352-.98-2.475-2.364-2.475-1.382 0-2.347 1.102-2.347 2.455v.02c0 1.352.986 2.463 2.365 2.463 1.383 0 2.346-1.09 2.346-2.442zM136.096 46.1h2.742c1.628 0 2.643.926 2.643 2.326v.018c0 1.562-1.25 2.375-2.78 2.375h-1.38v2.235h-1.224V46.1zm2.642 3.618c.924 0 1.5-.518 1.5-1.243v-.02c0-.814-.586-1.24-1.5-1.24h-1.422v2.503h1.422zM142.98 46.1h5.154v1.094H144.2V49h3.486v1.094H144.2v1.87h3.982v1.09h-5.205V46.1M152.35 46.05h1.133l3.06 7.005h-1.29l-.705-1.68h-3.288l-.717 1.68h-1.252l3.06-7.005zm1.748 4.242l-1.2-2.782-1.193 2.782h2.393zM157.982 46.1h1.133l3.73 4.81V46.1h1.198v6.955h-1.02l-3.84-4.947v4.947h-1.2V46.1M105.296 59.514h3.118c.797 0 1.422.22 1.818.615.308.308.467.685.467 1.15v.02c0 .837-.476 1.284-.993 1.552.812.277 1.38.744 1.38 1.69v.02c0 1.24-1.022 1.907-2.573 1.907h-3.218v-6.956zm4.183 1.965c0-.548-.44-.885-1.224-.885h-1.758v1.85h1.667c.786 0 1.313-.31 1.313-.944v-.02zm-1.042 2H106.5v1.905h2.024c.836 0 1.343-.328 1.343-.953v-.02c-.002-.588-.47-.933-1.43-.933zM112.717 59.514h3.102c.87 0 1.56.258 2.006.693.366.38.575.896.575 1.503v.02c0 1.143-.685 1.827-1.647 2.106l1.877 2.633h-1.45l-1.708-2.425h-1.53v2.424h-1.223l-.003-6.956zm3.012 3.447c.872 0 1.43-.457 1.43-1.162v-.02c0-.745-.537-1.153-1.44-1.153h-1.777v2.336h1.786zM122.61 59.462h1.135l3.058 7.007h-1.29l-.704-1.68h-3.29l-.717 1.68h-1.252l3.06-7.008zm1.75 4.244l-1.202-2.782-1.192 2.782h2.393zM128.246 59.514h1.133l3.724 4.81v-4.81h1.2v6.955h-1.02l-3.837-4.95v4.95h-1.2M136.343 59.514h2.595c2.187 0 3.695 1.5 3.695 3.457v.022c0 1.957-1.51 3.478-3.695 3.478h-2.595v-6.956zm1.22 1.11v4.73h1.372c1.46 0 2.414-.983 2.414-2.344v-.02c0-1.362-.954-2.366-2.415-2.366h-1.37zM143.796 65.455l.733-.875c.665.576 1.34.904 2.194.904.756 0 1.232-.357 1.232-.875v-.022c0-.496-.277-.766-1.57-1.062-1.48-.357-2.314-.795-2.314-2.076v-.02c0-1.19.994-2.016 2.373-2.016 1.016 0 1.82.31 2.525.874l-.656.924c-.627-.465-1.252-.714-1.888-.714-.714 0-1.13.367-1.13.822v.02c0 .537.312.774 1.655 1.093 1.474.36 2.227.887 2.227 2.037v.02c0 1.304-1.02 2.076-2.482 2.076-1.062 0-2.066-.367-2.9-1.11zM107.76 72.878h1.133l3.06 7.003h-1.29l-.706-1.678h-3.288l-.717 1.68H104.7l3.06-7.004zm1.748 4.24l-1.2-2.78-1.194 2.78h2.394zM112.807 78.868l.735-.874c.665.574 1.34.902 2.194.902.755 0 1.23-.356 1.23-.875v-.018c0-.498-.277-.767-1.566-1.063-1.48-.357-2.316-.794-2.316-2.077v-.02c0-1.19.994-2.02 2.377-2.02 1.013 0 1.817.31 2.522.877l-.656.923c-.625-.466-1.252-.715-1.89-.715-.714 0-1.13.366-1.13.823v.022c0 .535.315.776 1.657 1.093 1.472.358 2.228.883 2.228 2.037v.02c0 1.302-1.022 2.076-2.48 2.076-1.065.002-2.067-.365-2.903-1.11zM119.312 78.868l.735-.874c.666.574 1.343.902 2.195.902.756 0 1.23-.356 1.23-.875v-.018c0-.498-.275-.767-1.567-1.063-1.48-.357-2.316-.794-2.316-2.077v-.02c0-1.19.994-2.02 2.377-2.02 1.013 0 1.815.31 2.52.877l-.653.923c-.625-.466-1.25-.715-1.89-.715-.714 0-1.132.366-1.132.823v.022c0 .535.318.776 1.66 1.093 1.47.358 2.227.883 2.227 2.037v.02c0 1.302-1.024 2.076-2.485 2.076-1.065.002-2.067-.365-2.903-1.11zM126.08 76.424v-.02c0-1.96 1.51-3.598 3.646-3.598 2.135 0 3.625 1.62 3.625 3.577v.02c0 1.956-1.51 3.597-3.645 3.597s-3.626-1.62-3.626-3.576zm5.99 0v-.02c0-1.353-.984-2.475-2.363-2.475-1.38 0-2.346 1.103-2.346 2.453v.02c0 1.35.985 2.465 2.366 2.465 1.38 0 2.344-1.095 2.344-2.444zM134.77 76.424v-.02c0-1.98 1.483-3.598 3.59-3.598 1.282 0 2.058.446 2.722 1.084l-.785.903c-.555-.52-1.15-.864-1.945-.864-1.322 0-2.295 1.093-2.295 2.453v.02c0 1.36.963 2.465 2.295 2.465.854 0 1.4-.34 1.996-.896l.784.795c-.726.754-1.52 1.23-2.82 1.23-2.03.003-3.54-1.576-3.54-3.573zM142.732 72.928h1.22v6.953h-1.22M148.523 72.878h1.133l3.06 7.003h-1.292l-.705-1.678h-3.288l-.716 1.68h-1.25l3.057-7.004zm1.75 4.24l-1.203-2.78-1.193 2.78h2.396zM154.97 74.06h-2.202v-1.132h5.645v1.13h-2.207v5.823h-1.232v-5.82M160.02 72.928h1.224v6.953h-1.224M163.04 76.424v-.02c0-1.96 1.51-3.598 3.646-3.598 2.137 0 3.627 1.62 3.627 3.577v.02c0 1.956-1.512 3.597-3.646 3.597-2.138 0-3.627-1.62-3.627-3.576zm5.99 0v-.02c0-1.353-.983-2.475-2.364-2.475-1.38 0-2.344 1.103-2.344 2.453v.02c0 1.35.982 2.465 2.363 2.465 1.383 0 2.346-1.095 2.346-2.444zM172.04 72.928h1.134l3.727 4.807v-4.807h1.202v6.953h-1.022l-3.834-4.946v4.947h-1.203M87.2 46.12h6.108v33.712h-6.11z"/></g></g></g></svg>
