<?xml version="1.0" encoding="UTF-8" standalone="no"?>
<svg width="32px" height="32px" viewBox="0 0 32 32" version="1.1" xmlns="http://www.w3.org/2000/svg" xmlns:xlink="http://www.w3.org/1999/xlink">
    <!-- Generator: Sketch 3.8.3 (29802) - http://www.bohemiancoding.com/sketch -->
    <title>Fill 65</title>
    <desc>Created with Sketch.</desc>
    <defs></defs>
    <g id="Page-1" stroke="none" stroke-width="1" fill="none" fill-rule="evenodd">
        <g id="Group" transform="translate(-365.000000, -104.000000)" fill="#444444">
            <path d="M394.2497,122.301 L390.8097,120 L394.2497,117.699 L394.2497,122.301 Z M382.3747,132.055 L382.3747,125.642 L388.3367,121.655 L393.1487,124.873 L382.3747,132.055 Z M380.9997,123.253 L376.1367,120 L380.9997,116.747 L385.8637,120 L380.9997,123.253 Z M379.6247,132.055 L368.8507,124.873 L373.6637,121.655 L379.6247,125.642 L379.6247,132.055 Z M367.7497,117.699 L371.1907,120 L367.7497,122.301 L367.7497,117.699 Z M379.6247,107.945 L379.6247,114.358 L373.6637,118.346 L368.8507,115.127 L379.6247,107.945 Z M382.3747,107.945 L393.1487,115.127 L388.3367,118.346 L382.3747,114.358 L382.3747,107.945 Z M396.9877,114.946 C396.9847,114.925 396.9797,114.906 396.9767,114.886 C396.9697,114.847 396.9627,114.808 396.9527,114.771 C396.9467,114.748 396.9377,114.726 396.9307,114.704 C396.9197,114.67 396.9087,114.637 396.8957,114.604 C396.8867,114.581 396.8757,114.558 396.8647,114.537 C396.8507,114.505 396.8357,114.475 396.8177,114.446 C396.8057,114.424 396.7917,114.403 396.7787,114.382 C396.7607,114.353 396.7417,114.325 396.7207,114.298 C396.7057,114.278 396.6897,114.258 396.6737,114.239 C396.6517,114.213 396.6287,114.188 396.6047,114.164 C396.5867,114.146 396.5697,114.127 396.5507,114.111 C396.5247,114.088 396.4987,114.066 396.4727,114.045 C396.4517,114.029 396.4317,114.013 396.4107,113.998 C396.4027,113.993 396.3957,113.986 396.3877,113.981 L381.7627,104.231 C381.3007,103.923 380.6997,103.923 380.2367,104.231 L365.6127,113.981 C365.6047,113.986 365.5977,113.993 365.5897,113.998 C365.5677,114.013 365.5477,114.029 365.5277,114.045 C365.5007,114.066 365.4747,114.088 365.4497,114.111 C365.4307,114.127 365.4127,114.146 365.3947,114.164 C365.3707,114.188 365.3477,114.213 365.3267,114.239 C365.3097,114.258 365.2937,114.278 365.2787,114.298 C365.2587,114.325 365.2397,114.353 365.2217,114.382 C365.2077,114.403 365.1947,114.424 365.1817,114.446 C365.1647,114.475 365.1497,114.505 365.1347,114.537 C365.1247,114.558 365.1137,114.581 365.1047,114.604 C365.0907,114.637 365.0797,114.67 365.0687,114.704 C365.0617,114.726 365.0537,114.748 365.0477,114.771 C365.0377,114.808 365.0307,114.847 365.0237,114.886 C365.0197,114.906 365.0147,114.925 365.0127,114.946 C365.0047,115.004 364.9997,115.064 364.9997,115.125 L364.9997,124.875 C364.9997,124.935 365.0047,124.995 365.0127,125.055 C365.0147,125.074 365.0197,125.094 365.0237,125.114 C365.0307,125.153 365.0377,125.191 365.0477,125.229 C365.0537,125.252 365.0617,125.274 365.0687,125.296 C365.0797,125.329 365.0907,125.363 365.1047,125.397 C365.1137,125.419 365.1247,125.441 365.1347,125.463 C365.1497,125.494 365.1647,125.524 365.1817,125.555 C365.1947,125.576 365.2077,125.597 365.2217,125.618 C365.2397,125.647 365.2587,125.674 365.2787,125.701 C365.2937,125.722 365.3097,125.742 365.3267,125.761 C365.3477,125.786 365.3707,125.812 365.3947,125.835 C365.4127,125.854 365.4307,125.872 365.4497,125.889 C365.4747,125.912 365.5007,125.934 365.5277,125.955 C365.5477,125.971 365.5677,125.987 365.5897,126.002 C365.5977,126.007 365.6047,126.014 365.6127,126.019 L380.2367,135.769 C380.4677,135.923 380.7337,136 380.9997,136 C381.2657,136 381.5317,135.923 381.7627,135.769 L396.3877,126.019 C396.3957,126.014 396.4027,126.007 396.4107,126.002 C396.4317,125.987 396.4517,125.971 396.4727,125.955 C396.4987,125.934 396.5247,125.912 396.5507,125.889 C396.5697,125.872 396.5867,125.854 396.6047,125.835 C396.6287,125.812 396.6517,125.786 396.6737,125.761 C396.6897,125.742 396.7057,125.722 396.7207,125.701 C396.7417,125.674 396.7607,125.647 396.7787,125.618 C396.7917,125.597 396.8057,125.576 396.8177,125.555 C396.8357,125.524 396.8507,125.494 396.8647,125.463 C396.8757,125.441 396.8867,125.419 396.8957,125.397 C396.9087,125.363 396.9197,125.329 396.9307,125.296 C396.9377,125.274 396.9467,125.252 396.9527,125.229 C396.9627,125.191 396.9697,125.153 396.9767,125.114 C396.9797,125.094 396.9847,125.074 396.9877,125.055 C396.9957,124.995 396.9997,124.935 396.9997,124.875 L396.9997,115.125 C396.9997,115.064 396.9957,115.004 396.9877,114.946 L396.9877,114.946 Z" id="Fill-65" fill="#000000"></path>
        </g>
    </g>
</svg>