<?xml version="1.0" encoding="UTF-8" standalone="no"?>
<svg width="32px" height="32px" viewBox="0 0 32 32" version="1.1" xmlns="http://www.w3.org/2000/svg" xmlns:xlink="http://www.w3.org/1999/xlink">
    <!-- Generator: Sketch 3.8.3 (29802) - http://www.bohemiancoding.com/sketch -->
    <title>Fill 15</title>
    <desc>Created with Sketch.</desc>
    <defs></defs>
    <g id="Page-1" stroke="none" stroke-width="1" fill="none" fill-rule="evenodd">
        <g id="Group" fill="#444444">
            <path d="M1.76622092,-3.55271368e-15 C0.790489072,-3.55271368e-15 0,0.790489072 0,1.76610102 L0,30.2340189 C0,31.209391 0.790489072,32.0001199 1.76622092,32.0001199 L17.092213,32.0001199 L17.092213,19.6080377 L12.9220324,19.6080377 L12.9220324,14.7785367 L17.092213,14.7785367 L17.092213,11.2169596 C17.092213,7.0837077 19.6165505,4.83309791 23.3037809,4.83309791 C25.0698819,4.83309791 26.5877936,4.96462627 27.030338,5.02337641 L27.030338,9.34283027 L24.4729086,9.34402926 C22.4677305,9.34402926 22.0795,10.2968605 22.0795,11.6951138 L22.0795,14.7785367 L26.8617611,14.7785367 L26.2390096,19.6080377 L22.0795,19.6080377 L22.0795,32.0001199 L30.233899,32.0001199 C31.2092711,32.0001199 32,31.209391 32,30.2340189 L32,1.76610102 C32,0.790489072 31.2092711,-3.55271368e-15 30.233899,-3.55271368e-15 L1.76622092,-3.55271368e-15 Z" id="Fill-15"></path>
        </g>
    </g>
</svg>