<?xml version="1.0" encoding="UTF-8" standalone="no"?>
<svg width="24px" height="33px" viewBox="0 0 24 33" version="1.1" xmlns="http://www.w3.org/2000/svg" xmlns:xlink="http://www.w3.org/1999/xlink">
    <!-- Generator: Sketch 3.8.3 (29802) - http://www.bohemiancoding.com/sketch -->
    <title>Fill 9</title>
    <desc>Created with Sketch.</desc>
    <defs></defs>
    <g id="Page-1" stroke="none" stroke-width="1" fill="none" fill-rule="evenodd">
        <g id="foursquare" transform="translate(-28.000000, -58.000000)" fill="#DE466D">
            <path d="M32.6422468,62.7910773 C32.4584586,63.2672068 32.4831787,63.7906268 32.4681317,64.2914764 C32.5132727,70.995982 32.4380377,77.7004875 32.5078987,84.4028435 C34.2974149,82.3199112 36.0407153,80.1993614 37.7732679,78.0691386 C38.1892095,77.5951586 38.6094502,76.9631854 39.313434,76.9524375 C41.0320144,76.8309869 42.7613426,77.0341212 44.479923,76.8901 C44.8582472,76.8868757 45.2268982,76.6837414 45.3161053,76.2946694 C45.6664851,75.1220796 45.8438245,73.9043488 46.0781275,72.7059641 C46.1834564,72.2115632 46.1716338,71.4108488 45.49237,71.3893531 C43.4524291,71.1926675 41.3877681,71.494682 39.3510515,71.2679024 C38.2719679,71.0787404 38.2182287,69.7513815 38.3525767,68.8926287 C38.3923437,68.2026171 39.0802058,67.8038721 39.7154034,67.8285921 C41.7940366,67.7684042 43.8748194,67.8586861 45.9556021,67.8178443 C46.3704689,67.7845259 46.9272073,67.7952738 47.128192,67.3438643 C47.4731978,66.5506734 47.5312362,65.6704249 47.7225478,64.8342425 C47.8321758,64.1410066 48.0675536,63.4337984 47.931056,62.727665 C47.6182937,62.183824 46.9024872,62.2590589 46.3661698,62.2171423 C42.2852131,62.2354137 38.2021069,62.2257406 34.1211502,62.2214415 C33.598805,62.2493859 32.905569,62.2354137 32.6422468,62.7910773 L32.6422468,62.7910773 Z M31.0956319,58.7896546 C31.4126933,58.7283919 31.7329791,58.7111954 32.0543397,58.7015223 C37.6507425,58.7058215 43.2471452,58.7197937 48.8424732,58.6950736 C49.7700122,58.6821762 50.878115,58.7756824 51.4445264,59.6226126 C52.1678564,60.7264163 51.8239254,62.1161126 51.5917719,63.3187964 C50.6051198,68.0854656 49.7141234,72.8714809 48.7306956,77.63815 C48.5458327,78.4023218 48.3663437,79.2331302 47.7838105,79.8038407 C47.3581959,80.2326798 46.7444939,80.4003461 46.1565868,80.4315149 C44.4240342,80.520722 42.6893321,80.3734765 40.9578543,80.4626836 C40.5182674,80.4379636 40.2076547,80.7668476 39.9432577,81.0677873 C37.543264,83.9105922 35.0443901,86.6684892 32.6400972,89.506995 C32.3112132,89.8745713 31.9834039,90.2657929 31.5427423,90.5065446 C30.8097393,90.8708965 29.8058906,90.7010806 29.3104149,90.0239663 C28.9965778,89.5983517 28.9783065,89.0448377 28.9546612,88.5375394 C28.9675587,80.3197373 28.9589604,72.1019352 28.96111,63.8841331 C28.9740074,62.8716861 28.8783516,61.8463417 29.0438684,60.8414182 C29.2244322,59.8235973 30.0692128,58.9605454 31.0956319,58.7896546 L31.0956319,58.7896546 Z" id="Fill-9"></path>
        </g>
    </g>
</svg>