<?xml version="1.0" encoding="UTF-8" standalone="no"?>
<svg width="32px" height="29px" viewBox="0 0 32 29" version="1.1" xmlns="http://www.w3.org/2000/svg" xmlns:xlink="http://www.w3.org/1999/xlink">
    <!-- Generator: Sketch 3.8.3 (29802) - http://www.bohemiancoding.com/sketch -->
    <title>pocket</title>
    <desc>Created with Sketch.</desc>
    <defs></defs>
    <g id="Page-1" stroke="none" stroke-width="1" fill="none" fill-rule="evenodd">
      <path d="M2.81391928,0.0507982063 C1.07221525,0.164304933 0.0177219731,1.1586009 0.0177219731,2.92706726 L0.0177219731,13.517991 C0.0177219731,22.1201794 8.57320179,28.8804305 15.9741704,28.8270493 C24.2960359,28.7669955 31.984,21.7397668 31.984,13.517991 L31.984,2.92706726 C31.984,1.15192825 30.862852,0.150887892 29.1077309,0.0507982063 L2.81391928,0.0507982063 L2.81391928,0.0507982063 Z M9.55422422,8.66633184 L15.9741704,14.7659193 L22.4007892,8.66633184 C25.2770583,7.45843946 26.5316592,10.7418117 25.3504574,11.7028161 L16.9818834,19.6909776 C16.7083049,19.9512825 15.2467803,19.9512825 14.9732018,19.6909776 L6.60455605,11.7027444 C5.47666368,10.6416502 6.94486099,7.30489686 9.55422422,8.66633184 L9.55422422,8.66633184 L9.55422422,8.66633184 Z" fill="#EF4056"></path>
    </g>
</svg>