<?xml version="1.0" encoding="UTF-8" standalone="no"?>
<svg width="26px" height="32px" viewBox="0 0 26 32" version="1.1" xmlns="http://www.w3.org/2000/svg" xmlns:xlink="http://www.w3.org/1999/xlink">
    <!-- Generator: Sketch 3.8.3 (29802) - http://www.bohemiancoding.com/sketch -->
    <title>Combined Shape</title>
    <desc>Created with Sketch.</desc>
    <defs></defs>
    <g id="Page-1" stroke="none" stroke-width="1" fill="none" fill-rule="evenodd">
        <path d="M23.369697,10.6666667 C22.0121212,8.43636364 17.7454545,8.92121212 16.5818182,10.6666667 C13.1878788,15.4181818 20.0727273,20.8484848 23.5636364,16.1939394 C24.2424242,16.8727273 25.1151515,17.4545455 25.6,18.4242424 L25.6,8.24242424 C24.8242424,9.11515152 24.3393939,10.0848485 23.369697,10.6666667 Z M12.4121212,12.4121212 C13.0909091,6.4969697 21.0424242,3.97575758 25.6,8.24242424 L25.6,0.678787879 L0.872727273,0.678787879 L0.872727273,31.7090909 C5.13939394,29.6727273 9.01818182,27.3454545 13.2848485,25.3090909 C17.2606061,27.5393939 21.430303,29.6727273 25.6969697,31.7090909 L25.6969697,18.4242424 C20.8484848,23.5636364 11.5393939,20.169697 12.4121212,12.4121212 Z M12.0242424,18.1333333 C10.6666667,21.9151515 3.2969697,21.3333333 0.872727273,18.6181818 C1.26060606,17.6484848 2.23030303,17.1636364 2.61818182,16.1939394 C3.39393939,16.4848485 3.87878788,17.2606061 4.84848485,17.6484848 C6.20606061,18.1333333 8.92121212,18.3272727 9.01818182,16.6787879 C9.01818182,14.8363636 4.65454545,14.8363636 3.2969697,13.9636364 C2.32727273,13.3818182 1.55151515,12.4121212 1.35757576,11.1515152 C0.775757576,5.62424242 8.33939394,5.04242424 11.6363636,7.85454545 C11.3454545,9.01818182 10.569697,9.5030303 10.0848485,10.3757576 C9.6969697,9.79393939 4.65454545,7.85454545 4.55757576,10.1818182 C4.46060606,11.5393939 6.3030303,11.5393939 7.56363636,11.9272727 C10.0848485,12.7030303 13.4787879,14.1575758 12.0242424,18.1333333 Z" id="Combined-Shape" fill="#000000"></path>
    </g>
</svg>