<?xml version="1.0" encoding="UTF-8" standalone="no"?>
<svg width="32px" height="32px" viewBox="0 0 32 32" version="1.1" xmlns="http://www.w3.org/2000/svg" xmlns:xlink="http://www.w3.org/1999/xlink">
    <!-- Generator: Sketch 3.8.3 (29802) - http://www.bohemiancoding.com/sketch -->
    <title>Fill 48</title>
    <desc>Created with Sketch.</desc>
    <defs></defs>
    <g id="Page-1" stroke="none" stroke-width="1" fill="none" fill-rule="evenodd">
        <g id="Group" transform="translate(-469.000000, -52.000000)" fill="#444444">
            <path d="M485.0693,77.1798 C479.7003,77.1798 477.2993,74.5408 477.2993,72.5628 C477.2993,71.5478 478.0483,70.8368 479.0803,70.8368 C481.3783,70.8368 480.7833,74.1358 485.0693,74.1358 C487.2633,74.1358 488.4753,72.9438 488.4753,71.7248 C488.4753,70.9918 488.1133,70.1788 486.6683,69.8228 L481.8933,68.6308 C478.0483,67.6668 477.3503,65.5878 477.3503,63.6338 C477.3503,59.5758 481.1703,58.0528 484.7583,58.0528 C488.0623,58.0528 491.9583,59.8788 491.9583,62.3128 C491.9583,63.3558 491.0553,63.9628 490.0233,63.9628 C488.0623,63.9628 488.4233,61.2488 484.4743,61.2488 C482.5143,61.2488 481.4293,62.1368 481.4293,63.4068 C481.4293,64.6738 482.9773,65.0788 484.3203,65.3848 L487.8553,66.1698 C491.7263,67.0318 492.7073,69.2918 492.7073,71.4208 C492.7073,74.7178 490.1773,77.1798 485.0693,77.1798 M499.8673,70.6648 C499.8573,70.7208 499.8503,70.7778 499.8393,70.8338 L499.7853,70.5118 C499.8143,70.5618 499.8393,70.6138 499.8673,70.6648 C500.0323,69.7658 500.1193,68.8458 500.1193,67.9258 C500.1193,65.8858 499.7193,63.9068 498.9313,62.0438 C498.1693,60.2448 497.0813,58.6288 495.6923,57.2408 C494.3053,55.8528 492.6883,54.7638 490.8893,54.0028 C489.0273,53.2148 487.0483,52.8158 485.0093,52.8158 C484.0473,52.8158 483.0843,52.9058 482.1473,53.0858 C482.1453,53.0858 482.1433,53.0858 482.1403,53.0868 C482.1933,53.1148 482.2463,53.1398 482.2983,53.1688 L481.9803,53.1188 C482.0333,53.1088 482.0873,53.0978 482.1403,53.0868 C480.8543,52.4038 479.4093,52.0388 477.9453,52.0388 C475.5563,52.0388 473.3093,52.9688 471.6203,54.6588 C469.9313,56.3478 469.0003,58.5948 469.0003,60.9848 C469.0003,62.5048 469.3913,63.9998 470.1253,65.3218 C470.1343,65.2668 470.1413,65.2108 470.1523,65.1568 L470.2073,65.4738 C470.1783,65.4238 470.1533,65.3718 470.1253,65.3218 C469.9763,66.1768 469.8973,67.0518 469.8973,67.9258 C469.8973,69.9658 470.2973,71.9448 471.0863,73.8078 C471.8463,75.6078 472.9363,77.2228 474.3233,78.6108 C475.7113,79.9978 477.3263,81.0888 479.1273,81.8478 C480.9893,82.6378 482.9693,83.0368 485.0093,83.0368 C485.8963,83.0368 486.7863,82.9558 487.6553,82.8018 C487.6043,82.7738 487.5523,82.7478 487.5013,82.7178 L487.8243,82.7748 C487.7683,82.7848 487.7123,82.7918 487.6553,82.8018 C488.9933,83.5598 490.5083,83.9618 492.0553,83.9618 C494.4453,83.9618 496.6903,83.0328 498.3803,81.3418 C500.0703,79.6538 501.0003,77.4068 501.0003,75.0168 C501.0003,73.4908 500.6073,71.9908 499.8673,70.6648" id="Fill-48" fill="#00AFF0"></path>
        </g>
    </g>
</svg>