<?xml version="1.0" encoding="UTF-8" standalone="no"?>
<svg width="32px" height="32px" viewBox="0 0 32 32" version="1.1" xmlns="http://www.w3.org/2000/svg" xmlns:xlink="http://www.w3.org/1999/xlink">
    <!-- Generator: Sketch 3.8.3 (29802) - http://www.bohemiancoding.com/sketch -->
    <title>Fill 36</title>
    <desc>Created with Sketch.</desc>
    <defs></defs>
    <g id="Page-1" stroke="none" stroke-width="1" fill="none" fill-rule="evenodd">
        <g id="Group" transform="translate(-313.000000, -52.000000)" fill="#444444">
            <path d="M338.44,66.24 C333.32,63.2 324.76,62.88 319.88,64.4 C319.08,64.64 318.28,64.16 318.04,63.44 C317.8,62.64 318.28,61.84 319,61.6 C324.68,59.92 334.04,60.24 339.96,63.76 C340.68,64.16 340.92,65.12 340.52,65.84 C340.12,66.4 339.16,66.64 338.44,66.24 M338.28,70.72 C337.88,71.28 337.16,71.52 336.6,71.12 C332.28,68.48 325.72,67.68 320.68,69.28 C320.04,69.44 319.32,69.12 319.16,68.48 C319,67.84 319.32,67.12 319.96,66.96 C325.8,65.2 333,66.08 337.96,69.12 C338.44,69.36 338.68,70.16 338.28,70.72 M336.36,75.12 C336.04,75.6 335.48,75.76 335,75.44 C331.24,73.12 326.52,72.64 320.92,73.92 C320.36,74.08 319.88,73.68 319.72,73.2 C319.56,72.64 319.96,72.16 320.44,72 C326.52,70.64 331.8,71.2 335.96,73.76 C336.52,74 336.6,74.64 336.36,75.12 M329,52 C320.2,52 313,59.2 313,68 C313,76.8 320.2,84 329,84 C337.8,84 345,76.8 345,68 C345,59.2 337.88,52 329,52" id="Fill-36" fill="#4DB05B"></path>
        </g>
    </g>
</svg>