<?xml version="1.0" encoding="UTF-8" standalone="no"?>
<svg width="32px" height="32px" viewBox="0 0 32 32" version="1.1" xmlns="http://www.w3.org/2000/svg" xmlns:xlink="http://www.w3.org/1999/xlink">
    <!-- Generator: Sketch 3.8.3 (29802) - http://www.bohemiancoding.com/sketch -->
    <title>Combined Shape</title>
    <desc>Created with Sketch.</desc>
    <defs></defs>
    <g id="Page-1" stroke="none" stroke-width="1" fill="none" fill-rule="evenodd">
        <g id="social-1_logo-whatsapp" fill="#444444">
            <path d="M0.1,32 L2.4,23.8 C1,21.4 0.3,18.7 0.3,15.9 C0.2,7.1 7.3,0 16.1,0 C20.3,0 24.3,1.7 27.3,4.7 C30.3,7.7 31.9,11.7 31.9,15.9 C31.9,24.6 24.8,31.8 16,31.8 L16,31.8 L16,31.8 C13.3,31.8 10.7,31.1 8.4,29.9 L0.1,32 L0.1,32 Z M8.9,26.9 L9.4,27.2 C11.4,28.4 13.7,29 16.1,29 C23.4,29 29.3,23.1 29.3,15.8 C29.3,12.3 27.9,9 25.4,6.5 C22.9,4 19.6,2.6 16.1,2.6 C8.8,2.7 2.9,8.6 2.9,15.9 C2.9,18.4 3.6,20.8 4.9,22.9 L5.2,23.4 L3.9,28.3 L8.9,26.9 Z M12.1,9.2 C11.8,8.4 11.5,8.5 11.2,8.5 L10.4,8.5 C10.1,8.5 9.7,8.6 9.3,9 C9,9.4 8,10.4 8,12.3 C8,14.3 9.4,16.1 9.6,16.4 C9.8,16.7 12.4,20.7 16.4,22.4 C17.3,22.8 18.1,23.1 18.7,23.2 C19.6,23.5 20.5,23.5 21.2,23.4 C22,23.3 23.5,22.4 23.9,21.5 C24.2,20.6 24.2,19.8 24.1,19.6 C24,19.4 23.7,19.3 23.3,19.1 C22.9,19 21,18 20.6,17.9 C20.2,17.8 20,17.7 19.7,18.1 C19.4,18.5 18.7,19.4 18.4,19.7 C18.2,20 17.9,20 17.5,19.8 C17.1,19.6 15.8,19.2 14.3,17.8 C13.1,16.7 12.3,15.5 12.1,15.1 C11.9,14.7 12.1,14.5 12.3,14.3 C12.5,14.1 12.7,13.8 12.9,13.6 C13.1,13.4 13.2,13.2 13.3,12.9 C13.4,12.6 13.4,12.4 13.3,12.2 C13.2,12 12.4,10 12.1,9.2 Z" id="Combined-Shape"></path>
        </g>
    </g>
</svg>