<svg width="200" height="57" viewBox="0 0 200 57" xmlns="http://www.w3.org/2000/svg"><title>Group</title><g fill-rule="nonzero" fill="#FFF"><path d="M96.23 21.067c-1.06.037-1.984.408-2.76 1.102-.778.697-1.207 1.574-1.287 2.64v20.613c.163 1.19.61 2.104 1.352 2.762.734.655 1.636.98 2.694.98 1.19-.082 2.13-.49 2.82-1.223.7-.738 1.048-1.657 1.048-2.767v-20.12c-.085-1.107-.48-2.05-1.196-2.82-.717-.78-1.606-1.168-2.673-1.168M24.288 39.88c-.855-.774-1.77-1.15-2.753-1.128-.983.02-1.88.373-2.695 1.075-.538.538-1.17.942-1.884 1.215-.71.268-1.57.404-2.575.404-.928 0-1.788-.175-2.58-.52-.792-.35-1.477-.832-2.058-1.45-.58-.618-1.032-1.324-1.363-2.118-.326-.79-.493-1.627-.493-2.514v-6.038h11.13c.966 0 1.835-.396 2.608-1.187.775-.79 1.163-1.693 1.163-2.7 0-1.043-.348-1.95-1.044-2.724-.696-.775-1.604-1.16-2.727-1.16H7.883v-3.05c-.077-1.12-.483-2.057-1.216-2.81-.734-.753-1.642-1.132-2.72-1.132-1.05 0-1.962.348-2.755 1.04C.4 15.785 0 16.65 0 17.695V34.84c.04 2.162.454 4.122 1.246 5.88.79 1.76 1.864 3.263 3.217 4.52 1.352 1.258 2.918 2.22 4.695 2.9 1.775.675 3.673 1.012 5.68 1.012 1.854 0 3.595-.344 5.22-1.044 1.617-.698 3.11-1.698 4.46-3.01.347-.35.603-.756.75-1.22.16-.468.224-.934.205-1.42-.02-.48-.127-.943-.32-1.39-.188-.44-.48-.837-.865-1.187M128.098 25c-1.306-1.248-2.827-2.215-4.567-2.906-1.732-.692-3.555-1.036-5.445-1.036-2.06 0-3.962.37-5.697 1.127-1.742.75-3.248 1.78-4.536 3.086-1.277 1.303-2.292 2.826-3.017 4.56-.735 1.74-1.12 3.6-1.158 5.572l-.052 10.088c0 1.027.392 1.898 1.18 2.608.793.71 1.695 1.065 2.73 1.065 1.025 0 1.93-.388 2.72-1.16.8-.772 1.193-1.666 1.193-2.693l.054-10.206c0-.87.18-1.696.535-2.49.35-.79.828-1.458 1.42-2.012.595-.552 1.28-.998 2.07-1.335.796-.338 1.627-.507 2.492-.507.95 0 1.832.18 2.642.534.81.35 1.525.827 2.134 1.42.612.592 1.08 1.296 1.42 2.107.34.81.5 1.672.5 2.578l-.056 10.087c0 1.07.388 1.95 1.16 2.64.77.69 1.693 1.035 2.755 1.035 1.07-.037 1.965-.433 2.696-1.185.736-.752 1.1-1.64 1.1-2.667l.057-10.38c0-1.98-.394-3.82-1.187-5.513-.79-1.694-1.844-3.167-3.142-4.415M150.02 21.046c-7.768 0-14.058 6.3-14.058 14.062 0 7.767 6.292 14.06 14.06 14.06 7.763 0 14.055-6.293 14.055-14.06 0-7.762-6.292-14.062-14.056-14.062M43.044 21.046c-7.763 0-14.06 6.3-14.06 14.062 0 7.767 6.295 14.06 14.06 14.06 7.76 0 14.058-6.293 14.058-14.06 0-7.762-6.298-14.062-14.058-14.062"/><path d="M110.77 2.16s-2.212 3.255-5.897 1.85c-2.454-.94-4.25-3.083-9.44-3.9-5.193-.816-9.02 3.007-10.587 7.627-.275.81-1.286 1.078-1.883 1.246-.034.007-.06.02-.088.036-1.402.382-2.688.826-3.81 1.322-3.373 1.48-5.26 5.26-6.055 8.15-.03-.596-.216-1.24-.62-2.055-.746-1.518-2.963-3.925-6.13-4.285-3.412-.387-5.666 2.33-5.666 2.33s1.902-.378 2.708 1.39c.542 1.182.43 2.555 1.97 4.636.95 1.288 2.332 1.773 3.76 1.696-4.863 2.11-8.3 6.883-8.467 12.48-.002.03-.01.064-.01.093v17.725c0 1.225.608 2.11 1.35 2.77.74.647 1.637.978 2.7.978 1.187-.08 2.13-.492 2.822-1.23.698-.733 1.042-1.655 1.042-2.762v-4.493c1.855.9 3.942 1.406 6.142 1.406 7.765 0 14.06-6.293 14.06-14.06 0-7.425-5.757-13.502-13.05-14.018-.353-3.036.79-7.046 4.86-9.117.624-.32 1.793-.796 3.326-1.292.69-.11 1.32.192 1.554.757.936 2.225 2.332 4.254 5.58 5.383 3.252 1.13 9.866 1.454 14.956-2.536 5.48-4.293 4.87-12.127 4.87-12.127M171.567 46.525c0 .467-.082.87-.252 1.21-.173.34-.373.62-.605.834-.23.213-.498.372-.787.463-.3.094-.554.136-.767.136-.587 0-1.002-.166-1.25-.51-.254-.337-.373-.722-.373-1.16 0-.28.04-.57.11-.88.084-.31.21-.597.394-.862.186-.258.43-.466.744-.623.314-.158.676-.23 1.118-.23.117 0 .275.014.462.043.184.027.37.1.56.208.184.107.34.27.46.486.126.216.187.508.187.883M189.127 38.902c0 1.288-.185 2.654-.556 4.106-.374 1.45-.89 2.78-1.568 3.988-.673 1.204-1.477 2.214-2.41 3.02-.938.803-1.965 1.205-3.094 1.205-.642 0-1.16-.164-1.546-.505-.387-.336-.704-.732-.967-1.182-.285-.483-.508-1.048-.67-1.69-.073-.095-.12-.147-.146-.147-.164 0-.305.08-.412.244-.118.158-.237.33-.387.506-.145.177-.333.344-.555.506-.225.163-.496.238-.82.238-.257 0-.45-.082-.58-.26-.132-.178-.223-.386-.298-.632-.06-.238-.098-.483-.113-.72-.016-.245-.025-.447-.025-.603 0-1.673.016-3.583.045-5.727.03-2.14.125-4.33.262-6.567.146-2.236.348-4.445.6-6.615.267-2.17.638-4.128 1.115-5.87.102-.222.21-.416.342-.578.12-.16.285-.307.477-.434.195-.13.46-.193.774-.193.458 0 .802.104 1.07.312.253.208.446.444.578.7.123.32.208.66.237 1.017-.386 1.674-.742 3.442-1.07 5.31-.254 1.643-.49 3.495-.716 5.555-.225 2.06-.342 4.232-.342 6.52-.03.1-.03.174 0 .24 0 .165.06.24.196.24.058 0 .146-.06.237-.193 1.23-2.09 2.482-3.675 3.775-4.752 1.282-1.08 2.442-1.62 3.47-1.62.1 0 .318.02.657.074.33.044.68.216 1.036.506.356.29.67.744.967 1.352.29.606.437 1.492.437 2.65m-3.62 1.598c0-.87-.124-1.396-.36-1.575-.25-.173-.426-.26-.557-.26-.582 0-1.146.32-1.694.966-.554.643-1.044 1.332-1.492 2.076-.52.87-.983 1.867-1.41 2.99.104.52.25.967.444 1.354.15.356.38.663.65.92.266.255.633.386 1.09.386.476 0 .922-.25 1.34-.75.43-.498.774-1.108 1.074-1.835.283-.722.516-1.472.668-2.245.163-.773.248-1.45.248-2.025"/><path d="M200 37.554c.017 1.015-.18 2.002-.588 2.97-.408.968-.96 1.832-1.654 2.588-.685.763-1.48 1.375-2.387 1.846-.912.47-1.86.71-2.878.732-.06 0-.123.033-.194.1-.03.033-.044.06-.044.098.084.743.252 1.33.544 1.752.277.418.573.752.864 1.01.365.29.76.48 1.18.57.858.215 1.366.51 1.554.882.185.37.285.688.29.944.006.427-.1.744-.307.958-.21.215-.442.375-.7.477-.295.14-.624.22-.972.262-1.11.016-2.037-.22-2.78-.72-.734-.495-1.336-1.045-1.805-1.66-.535-.706-.956-1.53-1.256-2.472l-.16-.586c-.06-.194-.124-.42-.155-.683-.035-.255-.07-.568-.108-.922 0-.038-.027-.067-.06-.098-.06-.067-.12-.094-.194-.094-.392-.062-.752-.17-1.075-.33-.27-.155-.507-.384-.723-.668-.217-.29-.332-.714-.34-1.264.04-.263.098-.49.186-.688.07-.164.17-.323.316-.47.146-.15.33-.23.56-.232.06 0 .205.025.415.07.212.047.49.097.85.16.074 0 .12-.017.15-.053.032 0 .043-.015.043-.045.444-1.54 1.025-2.916 1.75-4.135.32-.523.673-1.033 1.058-1.527.387-.494.824-.942 1.316-1.342.504-.397 1.048-.713 1.63-.953.584-.233 1.232-.358 1.953-.373.316-.004.693.042 1.114.133.435.092.835.284 1.216.57.382.287.698.69.973 1.206.263.512.407 1.18.417 1.99m-3.51.547c-.005-.196-.038-.358-.11-.488-.065-.127-.155-.252-.247-.362-.106-.112-.246-.167-.44-.163-.393.007-.803.192-1.247.555-.43.366-.83.823-1.198 1.362-.37.544-.656 1.12-.875 1.725-.22.603-.327 1.153-.32 1.64.003.16.064.242.2.242.224-.004.576-.097 1.043-.285.475-.185.946-.465 1.435-.825.478-.367.893-.83 1.247-1.385.354-.565.523-1.236.513-2.017"/></g></svg>
