<svg width="200" height="45" viewBox="0 0 200 45" xmlns="http://www.w3.org/2000/svg"><title>logo</title><g fill-rule="nonzero" fill="#FFF"><path d="M23.08 12.196c-2.023-1.568-4.226-2.804-6.664-3.715-.912-.372-1.796-.704-2.68-.987-.89-.29-1.72-.58-2.5-.863-.373-.124-.71-.25-1.015-.373-.31-.124-.607-.25-.897-.373-.62-.25-1.132-.566-1.547-.96-.414-.394-.725-.773-.925-1.146-.04-.125-.068-.235-.09-.34-.02-.102-.027-.213-.027-.337.042-.58.477-1.097 1.306-1.512.634-.317 1.608-.62 2.92-.69h1.195V0h-1.167C8.184 0 5.974.684 4.365 2.086 2.755 3.488 1.948 5.152 1.948 7.05c0 .333.027.664.09.996.06.33.13.663.213.994.457 1.443 1.41 2.845 2.88 4.178 2.584 2.355 7.598 3.488 7.867 3.59.27.105.525.215.774.34.823.373 1.555.953 2.26 1.733.703.79 1.02 1.797 1.02 3.033v16.153L12.15 34.6v-8.094L2.97 28.46v9.696L0 36.423v1.09l12.693 7.307c.746-1.153 1.596-2.07 2.52-2.755.927-.684 1.893-1.21 2.888-1.582.498-.207.98-.393 1.458-.56.477-.165.94-.31 1.395-.434 1.485-.498 2.72-1.134 3.79-1.92 1.072-.78 1.57-2.335 1.57-4.642v-13.86c-.14-3.01-1.216-5.304-3.233-6.872z"/><path d="M7.56 17.686l3.838 3.838-3.838 3.838-3.838-3.838zM42.52 6.96c1.085 0 2.017.077 2.81.222.796.145 1.445.435 1.956.864.51.428.89 1.035 1.146 1.83.25.794.373 1.823.373 3.1 0 1.32-.124 2.41-.373 3.274-.248.856-.628 1.54-1.146 2.05-.51.505-1.167.857-1.955 1.058-.793.2-1.725.297-2.81.297h-6.85v-1.402c1.015 0 1.52-.263 1.52-.788v-8.32c0-.526-.505-.79-1.52-.79V6.962h6.85zm-1.864 1.742v9.205h2.134c.504 0 .912-.096 1.23-.29.317-.193.566-.49.745-.89.18-.4.297-.905.366-1.52.07-.614.105-1.347.105-2.19 0-.842-.035-1.54-.104-2.098-.068-.56-.192-1.003-.365-1.334-.18-.332-.42-.56-.746-.69-.318-.132-.733-.194-1.23-.194h-2.134zm12.687 6.63c.02 1.035.2 1.816.53 2.334.333.518.858.78 1.57.78.545 0 1.035-.145 1.477-.435.435-.29.732-.73.877-1.325l1.436.152c-.082.4-.22.78-.42 1.153-.2.373-.464.698-.795.988-.332.29-.732.525-1.202.697-.47.18-1.015.263-1.63.263-.65 0-1.27-.076-1.87-.22-.602-.146-1.127-.402-1.583-.76-.455-.36-.814-.836-1.084-1.423-.27-.594-.4-1.34-.4-2.238 0-.718.102-1.36.316-1.94.207-.574.518-1.07.933-1.48.406-.406.91-.724 1.504-.938.594-.215 1.278-.325 2.05-.325 1.527 0 2.66.373 3.392 1.125.732.753 1.098 1.948 1.098 3.585h-6.2v.006zm3.59-1.18c0-.285-.034-.568-.103-.858-.07-.283-.173-.538-.31-.76-.14-.22-.31-.4-.532-.538-.215-.138-.477-.207-.788-.207-.51 0-.925.185-1.25.565-.317.373-.51.974-.58 1.796h3.564zm14.994 3.327c0 .51.49.766 1.47.766v1.402h-5.566v-1.402c.65 0 .975-.256.975-.767v-2.694c0-.718-.096-1.236-.29-1.568-.193-.33-.47-.497-.822-.497-.476 0-.925.187-1.333.56-.407.373-.71.884-.904 1.534v2.658c0 .51.317.767.953.767v1.4h-5.533v-1.4c.967 0 1.45-.257 1.45-.768V13.08c0-.51-.476-.766-1.436-.766v-1.368h4.56l.006 1.74c.4-.614.91-1.084 1.54-1.415.628-.33 1.36-.497 2.19-.497.89 0 1.567.2 2.036.608.47.402.705 1.05.705 1.935v4.164zm7.34 0c-.02.51.464.766 1.45.766v1.402H74.69v-1.402c.966 0 1.45-.256 1.45-.767V13.1c0-.524-.484-.78-1.45-.78v-1.367h4.578v6.526zm.153-9.29c0 .242-.048.463-.138.677-.09.214-.214.394-.366.553-.152.16-.34.283-.546.373-.214.09-.435.138-.677.138-.24 0-.462-.047-.663-.137-.207-.09-.386-.214-.545-.373-.16-.16-.283-.345-.373-.553-.09-.207-.138-.435-.138-.676 0-.24.048-.462.138-.662.09-.208.214-.387.373-.54.16-.15.338-.275.545-.365.208-.09.43-.138.663-.138.235 0 .463.048.677.138.207.09.394.214.546.366.152.15.276.33.366.538.096.2.138.42.138.663zm10.552 5.753l-1.38.118c-.146-.683-.477-1.166-.982-1.456-.504-.29-1.104-.435-1.802-.435-.42 0-.746.068-.98.213-.235.145-.353.33-.353.573 0 .297.145.518.442.663.297.144.663.275 1.112.372.44.103.924.207 1.45.31.524.104 1.008.256 1.45.463.442.207.814.484 1.11.836.298.353.443.83.443 1.417 0 .47-.09.87-.276 1.215-.18.338-.42.628-.725.856-.304.228-.65.394-1.05.505-.4.11-.808.158-1.23.158-.793 0-1.408-.054-1.843-.157-.436-.11-.788-.235-1.058-.387-.082-.035-.158-.07-.24-.104-.084-.034-.16-.048-.243-.048-.215 0-.353.2-.408.6H82.03v-3.093c.228-.02.456-.04.684-.048.228-.013.456-.02.684-.034.07.31.207.58.42.822.208.24.47.442.78.607.312.166.65.29 1.017.373.373.083.745.132 1.118.132.408 0 .726-.083.953-.256.228-.173.34-.387.34-.65 0-.275-.105-.476-.312-.614-.207-.138-.476-.248-.822-.324-.338-.083-.732-.152-1.167-.22-.435-.07-.884-.167-1.34-.29-.856-.23-1.457-.56-1.816-.982-.36-.428-.54-.98-.54-1.67 0-.79.277-1.424.822-1.9.546-.477 1.32-.72 2.32-.72.408 0 .78.036 1.113.112.33.076.614.166.863.262.242.097.456.187.628.263.18.076.318.11.422.11.138 0 .24-.04.317-.13.076-.084.13-.23.18-.436h1.277v2.976zm14.607-5.58c-1.265 0-1.894.263-1.894.788v8.764h2.922c.725 0 1.298-.24 1.72-.725.414-.484.676-1.327.78-2.52l1.52.116-.408 4.87H97.707v-1.403c1.015 0 1.52-.263 1.52-.788v-8.32c0-.526-.505-.79-1.52-.79V6.962h6.886v1.403h-.014zm9.488 6.968c.02 1.037.2 1.818.53 2.336.333.518.858.78 1.57.78.545 0 1.035-.145 1.477-.435.435-.29.732-.73.877-1.325l1.437.152c-.084.4-.222.78-.423 1.153-.2.373-.462.698-.794.988-.33.29-.732.525-1.202.697-.468.18-1.014.263-1.628.263-.65 0-1.27-.076-1.872-.22-.6-.146-1.126-.402-1.58-.76-.457-.36-.816-.836-1.086-1.423-.27-.594-.4-1.34-.4-2.238 0-.718.103-1.36.317-1.94.21-.574.52-1.07.934-1.48.407-.406.91-.724 1.505-.938.593-.215 1.277-.325 2.05-.325 1.527 0 2.66.373 3.39 1.125.733.753 1.1 1.948 1.1 3.585h-6.202v.006zm3.59-1.18c0-.283-.034-.566-.103-.856-.07-.283-.172-.538-.31-.76-.14-.22-.31-.4-.532-.538-.214-.138-.477-.207-.788-.207-.51 0-.925.185-1.25.565-.317.373-.51.974-.58 1.796h3.564zm11.078-1.74c-.697-.07-1.257-.117-1.685-.145-.427-.027-.724-.04-.897-.04v5.296c0 .512.746.767 2.238.767v1.368h-6.774v-1.368c.967 0 1.45-.255 1.45-.766v-5.296h-1.47V11.18c.193-.047.407-.09.642-.13.234-.042.497-.07.794-.097v-1.32c0-1.173.317-2.023.946-2.547.628-.518 1.568-.78 2.81-.78 1.057 0 1.893.18 2.494.545.6.367.904.954.904 1.776 0 .4-.13.732-.386 1.008s-.615.407-1.07.407c-.408 0-.726-.095-.94-.296-.214-.2-.325-.448-.325-.745 0-.285.104-.52.31-.713.208-.186.47-.297.79-.33-.216-.32-.623-.478-1.217-.478-.808 0-1.215.44-1.215 1.332v2.134h2.68l-.077 1.464zm4.406 2.92c.02 1.037.2 1.818.532 2.336.332.518.856.78 1.568.78.545 0 1.036-.145 1.478-.435.435-.29.732-.73.877-1.325l1.436.152c-.083.4-.22.78-.42 1.153-.2.373-.464.698-.795.988-.332.29-.732.525-1.202.697-.47.18-1.015.263-1.63.263-.65 0-1.27-.076-1.87-.22-.602-.146-1.127-.402-1.583-.76-.456-.36-.815-.836-1.084-1.423-.27-.594-.402-1.34-.402-2.238 0-.718.104-1.36.318-1.94.207-.574.518-1.07.932-1.48.408-.406.912-.724 1.506-.938.594-.215 1.277-.325 2.05-.325 1.527 0 2.66.373 3.392 1.125.732.753 1.098 1.948 1.098 3.585h-6.202v.006zm3.246-5.606c-.6-.145-1.188-.242-1.76-.283-.567-.04-1.085-.09-1.54-.15-.457-.063-.823-.16-1.092-.298-.276-.138-.408-.373-.408-.698 0-.262.097-.476.284-.65.186-.172.47-.254.842-.254.31 0 .615.062.912.186.304.124.614.276.94.442.324.166.662.345 1.007.532.346.18.718.338 1.12.462l-.305.712zm.345 4.427c0-.283-.034-.566-.103-.856-.07-.283-.173-.538-.31-.76-.14-.22-.312-.4-.533-.538-.214-.138-.476-.207-.787-.207-.51 0-.925.185-1.25.565-.318.373-.51.974-.58 1.796h3.563zm14.393-1.83c-.332 0-.608.05-.836.145-.228.097-.38.242-.463.436l-2.68 6.748h-2.955l-2.714-6.727c-.16-.4-.553-.6-1.18-.6v-1.367h5.427v1.367h-.766c-.312 0-.464.118-.464.36 0 .09.014.172.048.24l1.948 4.974 1.96-4.835c.05-.083.07-.18.07-.29 0-.298-.22-.443-.663-.443h-.58V10.96h3.84v1.36h.006zm5.91.228c.298-.65.67-1.118 1.127-1.415.456-.297.953-.442 1.506-.442.275 0 .55.05.834.14.283.09.54.22.76.392.22.173.4.4.545.67.144.27.213.587.213.953 0 .546-.138.988-.407 1.333-.276.34-.65.51-1.126.51-.442 0-.787-.11-1.022-.337-.24-.227-.36-.517-.36-.87 0-.282.084-.538.257-.766.172-.228.455-.352.856-.373-.103-.158-.234-.275-.393-.35-.158-.077-.33-.112-.51-.112-.23 0-.457.063-.684.194-.228.13-.442.31-.65.545-.207.235-.386.51-.552.836-.165.325-.29.67-.386 1.05V17.5c0 .262.152.456.456.58.304.124.698.187 1.188.187v1.402h-6.216v-1.403c.967 0 1.45-.256 1.45-.767v-4.392c0-.51-.476-.767-1.436-.767v-1.366h4.558v1.574h-.007zm9.476 2.783c.02 1.037.2 1.818.532 2.336.332.518.857.78 1.568.78.545 0 1.036-.145 1.478-.435.435-.29.732-.73.877-1.325l1.436.152c-.083.4-.22.78-.42 1.153-.2.373-.464.698-.795.988-.332.29-.732.525-1.202.697-.47.18-1.015.263-1.63.263-.65 0-1.27-.076-1.87-.22-.602-.146-1.127-.402-1.583-.76-.455-.36-.815-.836-1.084-1.423-.27-.594-.4-1.34-.4-2.238 0-.718.102-1.36.316-1.94.207-.574.518-1.07.933-1.48.406-.406.91-.724 1.504-.938.594-.215 1.278-.325 2.05-.325 1.527 0 2.66.373 3.392 1.125.732.753 1.098 1.948 1.098 3.585h-6.202v.006zm3.592-1.18c0-.283-.035-.566-.104-.856-.07-.283-.173-.538-.31-.76-.14-.22-.312-.4-.533-.538-.214-.138-.476-.207-.787-.207-.51 0-.925.185-1.25.565-.318.373-.51.974-.58 1.796h3.564zM47.674 29.518l-.768.07c-.145-.512-.352-.982-.615-1.41-.26-.428-.58-.8-.952-1.12-.373-.317-.808-.565-1.29-.745-.484-.18-1.023-.262-1.617-.262-.855 0-1.587.152-2.21.462-.62.31-1.125.726-1.518 1.25-.394.525-.684 1.133-.87 1.83-.187.698-.284 1.423-.284 2.19 0 .91.118 1.706.36 2.382.24.677.573 1.25 1 1.713.43.463.94.808 1.548 1.036.6.228 1.277.345 2.016.345.636 0 1.216-.09 1.734-.262.518-.18.974-.428 1.374-.753.4-.324.732-.71 1.008-1.153.277-.442.49-.933.65-1.47l.752.392c-.16.525-.386 1.043-.676 1.554-.29.51-.663.967-1.112 1.375-.45.4-.988.726-1.623.974-.637.25-1.376.373-2.232.373-.946 0-1.823-.13-2.63-.393-.81-.263-1.514-.663-2.12-1.195-.602-.54-1.08-1.21-1.417-2.025-.337-.815-.51-1.774-.51-2.88 0-1.153.173-2.154.51-3.004.34-.848.816-1.546 1.417-2.105.6-.552 1.32-.967 2.14-1.243.83-.276 1.72-.407 2.687-.407.477 0 .925.048 1.34.145.414.096.787.22 1.12.366.33.145.62.317.87.504.247.186.448.373.6.552l.476-1.277h.836v4.192h.007zm4.646 1.45c.366-.65.802-1.12 1.313-1.402.51-.283 1.022-.428 1.54-.428.24 0 .483.034.732.11.248.076.476.194.683.352.208.158.373.372.505.628.13.262.193.58.193.953 0 .34-.097.616-.283.81-.187.2-.456.296-.794.296-.34 0-.602-.09-.782-.276-.18-.18-.262-.4-.262-.65 0-.283.103-.51.31-.676.208-.166.498-.25.87-.25-.09-.192-.255-.337-.497-.44-.242-.104-.505-.153-.788-.153-.207 0-.42.036-.65.105-.227.07-.462.193-.697.386-.24.188-.476.443-.718.768-.24.325-.47.74-.683 1.236v4.296c0 .51.566.766 1.705.766v.6h-4.745v-.6c1 0 1.505-.255 1.505-.766v-5.98c0-.526-.504-.78-1.505-.78V29.3h3.04v1.665h.005zm7.908 2.403c0 1.3.242 2.32.732 3.073.49.753 1.215 1.126 2.168 1.126.74 0 1.395-.174 1.976-.52.573-.344.973-.945 1.2-1.8l.685.254c-.112.366-.27.71-.47 1.05-.2.338-.456.628-.76.89-.31.256-.677.463-1.112.615-.435.15-.94.227-1.52.227-.524 0-1.05-.07-1.58-.207-.533-.138-1.01-.38-1.424-.725-.42-.345-.766-.822-1.036-1.423-.27-.6-.4-1.367-.4-2.286 0-.683.103-1.312.31-1.885.208-.572.505-1.07.892-1.484.386-.414.863-.74 1.422-.967.566-.23 1.202-.34 1.92-.34 1.347 0 2.362.388 3.06 1.154.697.767 1.042 1.85 1.042 3.253h-7.106v-.007zm5.497-.65c0-.924-.228-1.656-.677-2.21-.45-.55-1.084-.828-1.906-.828-.366 0-.71.056-1.043.173-.332.11-.63.29-.89.532-.264.24-.478.552-.65.94-.173.386-.277.855-.325 1.4h5.49v-.006zm11.153 3.848c0 .51.173.766.512.766.158 0 .283-.083.366-.24.082-.16.13-.34.13-.533V35.4h.615v.995c0 .58-.095 1.015-.296 1.298-.2.284-.573.43-1.118.43-.263 0-.484-.05-.663-.153-.18-.104-.325-.235-.435-.4-.11-.167-.194-.353-.25-.553-.054-.208-.096-.408-.116-.615-.14.25-.332.49-.58.718-.25.228-.546.428-.878.608-.338.18-.704.318-1.105.42-.4.105-.816.153-1.25.153-1.092 0-1.893-.22-2.39-.655-.504-.435-.753-1.05-.753-1.837 0-.456.097-.843.297-1.153.2-.31.47-.574.808-.788.338-.207.732-.38 1.18-.51.443-.132.913-.242 1.403-.34.49-.096.988-.186 1.492-.26.504-.084.994-.18 1.457-.292v-.53c0-.65-.173-1.182-.51-1.604-.34-.42-.878-.627-1.603-.627-.697 0-1.27.076-1.733.22-.463.146-.808.333-1.036.547.23.02.43.11.602.262.173.152.256.352.256.587 0 .282-.09.517-.277.71-.178.187-.434.284-.765.284-.332 0-.587-.097-.76-.29-.18-.194-.262-.45-.262-.767 0-.25.083-.51.255-.787.173-.277.422-.518.76-.732.338-.215.746-.394 1.23-.54.483-.144 1.042-.213 1.684-.213.525 0 1.015.048 1.47.145.457.097.85.262 1.19.497.338.235.6.553.793.953.194.4.29.912.29 1.526v4.462h-.007zm-1.553-3.522c-.898.18-1.672.36-2.32.518-.65.165-1.182.345-1.603.538-.42.194-.732.42-.932.677-.2.255-.297.565-.297.93 0 .526.186.913.552 1.168.373.256.905.387 1.595.387.353 0 .684-.04 1.002-.13.31-.084.6-.194.863-.333.263-.138.49-.29.684-.47.192-.18.344-.35.46-.517v-2.77h-.005zm6.83-3.737h2.32l-.083.987c-.33-.07-.677-.117-1.043-.145-.367-.028-.76-.042-1.195-.042v6.47c0 .513.283.768.856.768.277 0 .47-.076.58-.228.112-.152.174-.33.174-.54v-1.16h.65v.99c0 .247-.022.475-.063.683-.04.207-.123.386-.248.538-.124.153-.304.277-.532.36-.227.083-.53.132-.904.132-.698 0-1.21-.18-1.547-.54-.34-.358-.505-.862-.505-1.512v-5.96h-1.52v-.6c.318-.02.615-.07.877-.138.27-.07.49-.187.677-.366.18-.173.324-.415.427-.712.104-.297.152-.69.152-1.18v-.374l.925-.117v2.686zm6.643 7.327c-.013.262.11.456.373.58.264.124.644.186 1.148.186v.6H85.76v-.6c1 0 1.505-.255 1.505-.766v-5.98c0-.526-.504-.78-1.505-.78v-.547h3.038v7.307zm.27-10.318c0 .33-.118.614-.353.855-.234.242-.517.36-.842.36-.332 0-.615-.118-.856-.36-.242-.24-.36-.524-.36-.856 0-.332.118-.616.36-.843.24-.235.524-.353.856-.353.33 0 .615.118.842.353.235.234.353.51.353.842zm12.175 3.55c-.718 0-1.16.192-1.333.58l-3.21 7.547H95.26l-3.156-7.527c-.172-.4-.58-.6-1.23-.6v-.547h4.49v.546h-1.09c-.34 0-.512.102-.512.31 0 .117.014.214.048.29l2.576 6.388 2.666-6.25c.048-.083.07-.16.07-.242 0-.33-.277-.497-.823-.497h-.696v-.547h3.64v.546zm2.376 3.5c0 1.3.24 2.32.73 3.073.49.753 1.216 1.126 2.17 1.126.738 0 1.394-.174 1.974-.52.574-.344.974-.945 1.202-1.8l.684.254c-.11.366-.27.71-.47 1.05-.2.338-.456.628-.76.89-.31.256-.676.463-1.11.615-.436.15-.94.227-1.52.227-.526 0-1.05-.07-1.582-.207-.532-.138-1.008-.38-1.423-.725-.42-.345-.766-.822-1.036-1.423-.27-.6-.4-1.367-.4-2.286 0-.683.102-1.312.31-1.885.207-.572.504-1.07.89-1.484.387-.414.864-.74 1.423-.967.566-.23 1.202-.34 1.92-.34 1.347 0 2.362.388 3.06 1.154.697.767 1.042 1.85 1.042 3.253h-7.106v-.007zm5.496-.65c0-.924-.228-1.656-.677-2.21-.45-.55-1.085-.828-1.907-.828-.366 0-.71.056-1.043.173-.33.11-.628.29-.89.532-.263.24-.477.552-.65.94-.172.386-.276.855-.324 1.4h5.49v-.006zm15.29-7.41c1 0 1.892.084 2.673.242.78.16 1.435.456 1.974.898.532.435.94 1.05 1.222 1.837.276.788.422 1.796.422 3.04 0 1.25-.14 2.306-.422 3.155-.276.856-.683 1.54-1.222 2.058-.54.518-1.195.89-1.975 1.12-.782.227-1.673.337-2.674.337h-6.492v-.6c1.016 0 1.52-.263 1.52-.788V26.7c0-.526-.504-.788-1.52-.788v-.6h6.492zm-3.21.94v10.808h3.48c.773 0 1.422-.138 1.954-.407.532-.276.96-.662 1.29-1.16.333-.504.568-1.105.713-1.802.145-.698.214-1.47.214-2.314 0-.842-.07-1.588-.214-2.23-.145-.643-.38-1.18-.712-1.603-.33-.427-.758-.744-1.29-.965-.532-.215-1.18-.325-1.955-.325h-3.48zm12.478 7.12c0 1.3.242 2.32.732 3.073.49.753 1.216 1.126 2.17 1.126.738 0 1.394-.174 1.974-.52.573-.344.973-.945 1.2-1.8l.685.254c-.11.366-.27.71-.47 1.05-.2.338-.455.628-.76.89-.31.256-.676.463-1.11.615-.436.15-.94.227-1.52.227-.525 0-1.05-.07-1.582-.207-.532-.138-1.008-.38-1.423-.725-.42-.345-.766-.822-1.035-1.423-.27-.6-.4-1.367-.4-2.286 0-.683.103-1.312.31-1.885.207-.572.504-1.07.89-1.484.387-.414.864-.74 1.423-.967.567-.23 1.202-.34 1.92-.34 1.347 0 2.362.388 3.06 1.154.697.767 1.042 1.85 1.042 3.253h-7.106v-.007zm5.504-.65c0-.924-.228-1.656-.677-2.21-.448-.55-1.083-.828-1.905-.828-.366 0-.71.056-1.043.173-.33.11-.628.29-.89.532-.263.24-.477.552-.65.94-.172.386-.276.855-.324 1.4h5.49v-.006zm10.09-.15l-.628.116c-.104-.925-.436-1.622-1.002-2.106-.566-.483-1.326-.725-2.3-.725-.51 0-.953.104-1.326.31-.372.208-.552.54-.552.988 0 .422.152.74.456.946.304.214.683.38 1.146.504.463.124.953.234 1.485.324.532.09 1.022.228 1.485.42.462.188.842.457 1.146.796.304.338.456.82.456 1.436 0 .822-.276 1.443-.83 1.88-.55.434-1.36.648-2.43.648-.545 0-1.05-.062-1.512-.18-.463-.117-.863-.324-1.202-.608-.083-.055-.166-.117-.262-.18-.097-.06-.187-.096-.263-.096-.09 0-.152.028-.186.076-.036.05-.063.138-.084.263l-.117.614h-.616v-3.5l.615-.105c.054.456.192.87.4 1.236.206.373.476.69.793.953.318.27.684.47 1.092.616.407.145.842.214 1.298.214.718 0 1.23-.13 1.547-.4.31-.27.47-.608.47-1.03 0-.317-.09-.573-.263-.766-.18-.193-.407-.352-.697-.47-.29-.117-.622-.214-.988-.29-.373-.076-.746-.152-1.133-.24-.387-.084-.767-.188-1.133-.298-.373-.11-.698-.27-.988-.47-.29-.2-.526-.45-.698-.76-.18-.303-.263-.697-.263-1.174 0-.752.27-1.332.8-1.754.532-.42 1.32-.628 2.355-.628.422 0 .864.07 1.326.207.464.138.837.31 1.12.532.09.082.187.144.283.206.097.055.194.083.283.083.11 0 .194-.084.242-.257l.083-.6h.63v3.266h-.042zm4.73 4.067c-.013.262.11.456.374.58.262.124.642.186 1.146.186v.6h-4.558v-.6c1 0 1.505-.255 1.505-.766v-5.98c0-.526-.504-.78-1.505-.78v-.547H154v7.307zm.27-10.318c0 .33-.117.614-.352.855-.235.242-.518.36-.843.36-.33 0-.614-.118-.856-.36-.242-.24-.36-.524-.36-.856 0-.332.118-.616.36-.843.242-.235.525-.353.856-.353.332 0 .615.118.843.353.24.234.352.51.352.842zm4.855 11.802c-.263.055-.456.207-.573.442-.118.24-.18.476-.18.718 0 .262.083.504.242.732.16.228.38.428.656.608s.622.317 1.015.42c.394.104.836.153 1.32.153 1.104 0 1.96-.194 2.568-.573.61-.38.906-.912.906-1.596 0-.24-.04-.456-.13-.65-.084-.192-.243-.365-.464-.51-.22-.145-.518-.276-.89-.373-.374-.103-.836-.18-1.396-.242-.877-.088-1.602-.178-2.175-.254-.572-.083-1.035-.173-1.374-.283-.338-.11-.58-.242-.718-.4-.138-.16-.207-.367-.207-.615 0-.284.098-.532.284-.753.187-.214.408-.373.656-.463-.338-.18-.614-.45-.822-.8-.207-.353-.31-.802-.31-1.348 0-1.056.345-1.83 1.042-2.306.698-.477 1.658-.72 2.887-.72.684 0 1.257.05 1.72.153.463.105.856.27 1.188.5.228-.285.497-.5.808-.63.31-.138.65-.207 1.015-.207.18 0 .387.034.614.104.228.07.442.18.65.33.207.153.38.36.518.61.145.247.214.558.214.924 0 .402-.097.7-.283.9-.186.2-.435.296-.745.296-.332 0-.587-.09-.76-.276-.18-.18-.262-.4-.262-.65 0-.283.096-.51.29-.676.193-.166.47-.25.835-.25-.083-.185-.255-.337-.518-.455-.27-.118-.545-.173-.828-.173-.194 0-.38.048-.567.138-.18.09-.373.214-.566.36.275.247.476.517.607.807.13.29.193.65.193 1.084 0 .525-.11.974-.324 1.347-.215.373-.512.684-.89.932-.374.242-.816.42-1.314.54-.504.11-1.035.17-1.602.17-.476 0-.898-.02-1.257-.068-.36-.048-.683-.13-.966-.255-.14.02-.242.076-.31.16-.07.082-.105.17-.105.26 0 .14.035.25.11.34.077.09.235.172.484.248.25.076.608.145 1.077.214.47.07 1.092.145 1.88.22.876.09 1.58.215 2.12.374.53.16.952.352 1.25.573.296.222.49.47.586.733.096.27.144.553.144.843 0 .89-.414 1.61-1.25 2.168-.83.56-2.072.836-3.722.836-.705 0-1.347-.04-1.927-.117-.58-.083-1.077-.214-1.485-.4-.407-.187-.725-.43-.946-.726-.22-.297-.332-.663-.332-1.09 0-.312.063-.58.187-.81.123-.234.282-.427.482-.58.2-.15.43-.27.684-.338.263-.077.525-.11.8-.11l.167.462zm5.02-5.898c0-.4-.068-.746-.193-1.03-.13-.282-.317-.517-.552-.697-.235-.18-.518-.304-.843-.387-.324-.082-.683-.117-1.07-.117-1.754 0-2.63.746-2.63 2.245 0 .787.233 1.36.696 1.72.47.358 1.113.538 1.928.538.856 0 1.512-.187 1.975-.566.456-.373.69-.947.69-1.706zm14.925 4.413c0 .51.504.766 1.52.766v.6h-4.393v-.6c.89 0 1.333-.255 1.333-.766v-4.855c0-.705-.132-1.202-.394-1.492-.262-.29-.6-.435-1.022-.435-.332 0-.677.07-1.043.207-.367.138-.712.318-1.05.54-.34.22-.643.475-.926.765-.276.29-.504.594-.677.912v4.364c0 .51.442.766 1.333.766v.6h-4.372v-.6c1.002 0 1.506-.255 1.506-.766v-5.98c0-.526-.504-.78-1.506-.78v-.568h3.04v1.74c.476-.51 1.05-.96 1.72-1.34.662-.38 1.414-.572 2.243-.572.823 0 1.472.193 1.956.58.483.386.725 1.043.725 1.96v4.953h.008zm4.44-3.267c0 1.3.242 2.32.732 3.073.49.753 1.216 1.126 2.17 1.126.738 0 1.394-.174 1.974-.52.573-.344.974-.945 1.202-1.8l.683.254c-.11.366-.27.71-.47 1.05-.2.338-.456.628-.76.89-.31.256-.677.463-1.112.615-.435.15-.94.227-1.52.227-.524 0-1.05-.07-1.58-.207-.532-.138-1.01-.38-1.423-.725-.422-.345-.767-.822-1.036-1.423-.27-.6-.402-1.367-.402-2.286 0-.683.104-1.312.31-1.885.208-.572.505-1.07.892-1.484.387-.414.863-.74 1.423-.967.566-.23 1.2-.34 1.92-.34 1.346 0 2.36.388 3.06 1.154.696.767 1.042 1.85 1.042 3.253h-7.107v-.007zm5.498-.65c0-.924-.228-1.656-.677-2.21-.45-.55-1.086-.828-1.907-.828-.366 0-.712.056-1.043.173-.332.11-.63.29-.89.532-.263.24-.478.552-.65.94-.173.386-.276.855-.325 1.4h5.49v-.006zm5.973-1.753c.365-.65.8-1.12 1.31-1.402.512-.283 1.024-.428 1.54-.428.243 0 .485.034.734.11.248.076.476.194.683.352.207.158.373.372.504.628.133.262.195.58.195.953 0 .34-.097.616-.283.81-.187.2-.456.296-.795.296-.338 0-.6-.09-.78-.276-.18-.18-.262-.4-.262-.65 0-.283.103-.51.31-.676.208-.166.498-.25.87-.25-.09-.192-.255-.337-.497-.44-.24-.104-.504-.153-.787-.153-.206 0-.42.036-.648.105-.228.07-.463.193-.698.386-.24.188-.476.443-.718.768s-.47.74-.684 1.236v4.296c0 .51.567.766 1.706.766v.6h-4.744v-.6c1 0 1.505-.255 1.505-.766v-5.98c0-.526-.505-.78-1.506-.78V29.3h3.038v1.665h.007z"/></g></svg>
