<svg width="73" height="73" viewBox="0 0 73 73" xmlns="http://www.w3.org/2000/svg"><title>Logo ROB</title><g fill="none" fill-rule="evenodd"><path fill="#fff" d="M0 0h73v73H0z"/><g fill="#85184D"><path d="M18.478 16.007s.114-.418-.228-.494c0 0-.38-.153-.684-.23-.305-.075-.42-.455-.076-.76.342-.303 3.345-2.09 7.604-2.052 4.258.04 5.893 2.29 5.97 4.95.037 1.64-.19 3.23-2.168 5.06-2.015 1.87-5.59 2.02-5.59 2.02s.305 5.17 3.31 9.32c3.04 4.15 5.626 5.55 8.553 6.35 2.92.76 5.47.57 8.21-.45 0 0 .38-.19.49.04.11.265-.04.38-.12.455-.12.11-2.36 1.52-5.59 1.52-3.27 0-6.12-.84-9.05-3.005-3.01-2.17-4.68-4.6-5.93-7.15-1.26-2.51-1.83-5.44-1.98-7.414 0 0-.12-.682.3-.682.91 0 1.75-.04 1.75-.04s2.54 0 4.14-1.52c1.71-1.634 1.9-3.535 1.67-4.866-.23-1.56-1.41-2.66-3.08-3.156-1.41-.42-2.97-.19-3.73.15-.76.38-1.52 1.106-1.75 2.02l-3.76 17.48s-.27.91.642 1.025l.644.04s.6 0 .57.53c0 0 0 .344-.27.344h-5.47s-.157-.076-.157-.456.303-.45.645-.45h.61s.606-.04.872-1.14c.19-1.025 3.612-17.412 3.612-17.412"/><path d="M43.192 23.725c-1.293-2.623-4.83-2.66-4.83-2.66s-3.383-.23-5.892 2.508c-2.396 2.623-2.434 5.247-2.434 5.247s-.494 3.27 1.445 5.247c1.75 1.787 4.11 1.597 4.11 1.597 2.13-.076 3.31-.837 3.31-.837s3.23-1.635 4.38-5.285c1.14-3.726-.07-5.817-.07-5.817zm-1.597 3.194c-.38 2.73-1.293 4.67-2.434 5.93-1.25 1.33-2.05 1.71-3.53 1.71 0 0-2.7.23-3.38-2.7-.68-2.89.88-6.01.88-6.01s1.33-3.01 3.77-3.65c2.44-.65 3.65.61 3.65.61s1.49 1.17 1.07 4.1zm3.422 6.57s.608.23.874-.95c.23-1.07 3.77-17.34 3.77-17.34s.15-.65-.45-.61c-.3.03-.42.03-.42.03s-.3.04-.38-.23c-.07-.27.16-.42.54-.61.34-.19 2.4-1.11 2.4-1.11s.92-.306.8.42c-.11.72-4.11 18.63-4.11 18.63s-.41 1.67.54 2.32c.95.643 2.7 1.023 4.258-.04 2.625-1.866 3.31-5.098 3.31-5.098s.91-2.547.15-4.94c-.873-2.66-3.23-1.864-3.23-1.864s-.8.23-1.445.65c-.34.19-.49.23-.57.08-.225-.304.27-.608.27-.608s1.67-1.023 3.535-.95c1.94.04 3.42 1.33 3.65 3.35.23 2.014-.04 4.83-1.33 6.956-1.297 2.13-2.74 3.31-4.72 3.88-1.974.57-3.875.23-5.282-.15-1.445-.38-2.09-.798-2.28-.91 0 0-.38-.306-.23-.648-.076-.078.04-.344.38-.268"/></g><path d="M8.66 53.806v.642h1.44v6.385h.76v-6.385h1.44v-.642H8.66zm6.065 0v7.027h.76v-3.348h2.062v3.348h.76v-7.027h-.76v3.037h-2.063v-3.037h-.76zm6.57 0v7.027h3.33v-.642h-2.57v-2.7h1.81v-.64h-1.81v-2.4h2.452v-.64h-3.212zm13.53 2.122c-.118-1.5-.76-2.22-1.802-2.22-1.255 0-2.034.954-2.034 3.612 0 2.657.77 3.61 2.03 3.61 1.2 0 1.88-.875 1.9-2.433h-.76c-.02 1.305-.43 1.79-1.14 1.79-.89 0-1.28-.777-1.28-2.967s.39-2.97 1.27-2.97c.59 0 .94.468 1.04 1.578h.76zm2.93-2.122v7.027h3.328v-.642h-2.57v-2.7h1.81v-.64h-1.81v-2.4h2.453v-.64h-3.212zm6.024 0v7.027h3.03v-.642h-2.28v-6.38h-.76zm5.48 0v7.027h3.04v-.642h-2.28v-6.38h-.76zm7 .525h.02l.78 3.78h-1.58l.78-3.77zm-.52-.52l-1.54 7.03h.76l.41-2.08h1.79l.42 2.09h.76l-1.54-7.03h-1.05zm5.79.64h.66c1.09 0 1.44.43 1.44 1.22s-.35 1.22-1.44 1.22h-.66v-2.44zm-.76 6.39h.76v-3.29l.99-.04 1.13 3.33h.79l-1.19-3.48c.78-.27 1.13-.93 1.13-1.72 0-1.16-.8-1.82-1.93-1.82h-1.69v7.03z" fill="#85184D"/></g></svg>
