<svg width="120" height="102" viewBox="0 0 120 102" xmlns="http://www.w3.org/2000/svg"><title>logo</title><defs><linearGradient x1="-.001%" y1="50.002%" x2="100.015%" y2="50.002%" id="a"><stop stop-color="#292C2F" offset="2.2%"/><stop stop-color="#767E84" offset="96.8%"/></linearGradient><linearGradient x1="55.579%" y1="59.622%" x2="17.273%" y2="22.252%" id="b"><stop stop-color="#E8297D" offset="0%"/><stop stop-color="#B3195E" offset="100%"/></linearGradient><linearGradient x1="88.965%" y1="49.686%" x2="5.545%" y2="50.246%" id="c"><stop stop-color="#E8297D" offset="0%"/><stop stop-color="#B3195E" offset="100%"/></linearGradient></defs><g fill-rule="nonzero" fill="none"><path d="M105.17 101.33V86.233L88.735 71.315l16.437-15.097v-15.78S93.2 51.72 80.31 63.69L65.24 50.144C47.108 33.5 29.748 44.13 29.748 44.13l8.397 10.093c3.335-.268 10.184-5.15 19.385 3.87 3.66 3.604 9.17 8.16 14.53 13.192-5.36 5.033-10.87 9.976-14.53 13.58-9.202 9.05-17.302 4.048-20.607 3.78L29.777 98.86s19.712 8.455 35.493-6.016L80.397 78.82c12.834 11.97 24.774 22.51 24.774 22.51z" fill="url(#a)"/><path d="M108.15 101.33l11.493-.03s.178-57.47.178-58.422l-11.582-5.36-.09 63.812z" fill="url(#b)"/><path d="M99.692 45.588V61.25l20.13-18.312-11.584-5.42-8.546 8.07zm-69.41-4.824c-6.967 0-13.428 2.442-18.61 6.462V0L0 8.218v62.83C0 87.72 13.608 101.33 30.283 101.33s30.283-13.608 30.283-30.283c-.03-16.675-13.638-30.283-30.283-30.283zm0 48.894c-10.183 0-18.61-8.427-18.61-18.61 0-10.184 8.427-18.61 18.61-18.61 10.185 0 18.462 8.426 18.462 18.61-.03 10.213-8.277 18.61-18.46 18.61z" fill="#E9287D"/><path d="M11.672 47.226v22.332s0-9.41 10.214-15.096c-.298-8.755-.834-12.21-.834-12.21s-5.24 1.64-9.38 4.974z" fill="url(#c)"/></g></svg>
