<svg xmlns="http://www.w3.org/2000/svg" width="151" height="64" viewBox="0 0 151 64"><g fill="#FFF"><path d="M14.937 39.618h-.024c-.036 0-.073-.01-.1-.038-.036-.03-.057-.074-.057-.12v-6.697l.057-.122c.57-.492 1.815-1.522 2.935-2.133 1.47-.82 4.026-1.486 8.238-2.544 4.24-1.068 6.772-1.93 8.69-2.97 2.012-1.12 3.53-3.015 5.832-4.015.765-.345 2.208-.604 3.415-.74.447-.05.863-.088 1.208-.114.044-.004.087.012.118.042.032.03.05.07.05.118v14.328c0 .078-.057.143-.132.158l-30.23 4.848zM12.937 38.822L.065 29.27 0 29.14v-4.77c0-.06.034-.112.083-.14.05-.028.11-.026.16.006l12.87 8.48.07.132v5.846c0 .06-.034.114-.086.14-.02.014-.045.02-.07.02-.03 0-.063-.01-.09-.032M12.952 23.32L.082 16.047 0 15.91V3.64c0-.053.026-.1.066-.128.044-.032.098-.04.146-.02l12.87 4.846c.06.023.1.084.1.15V23.18c0 .056-.028.108-.076.137-.023.013-.052.02-.078.02s-.053-.006-.076-.018M14.056 6.996L3.773 3.122c-.067-.028-.11-.098-.1-.173.01-.077.074-.133.145-.137l23.81-1.29 12.75 3.566c.072.02.122.092.112.168-.007.078-.07.14-.146.144L14.12 7.005l-.064-.01zM14.987 23.123c-.023.015-.05.02-.074.02-.028 0-.055-.006-.082-.022-.043-.028-.074-.08-.074-.136V8.724c0-.086.064-.155.147-.16l30.23-1.85c.043 0 .085.015.116.045.03.03.05.072.05.115V11.5c0 .085-.064.153-.146.162-1.592.127-4.983.52-7.29 1.6-2.598 1.242-4.75 3.25-6.36 4.352-2.104 1.438-1.815 1.264-7.112 2.71-4.136 1.12-6.056 1.223-8.308 2.246-.426.2-.79.385-1.097.553"/><path d="M13.805 31.263L.733 22.637c-.04-.027-.068-.073-.07-.126-.002-.048.018-.1.06-.133.632-.513 1.487-1.157 2.28-1.593.33-.183.72-.356 1.16-.53l.132.008 8.764 4.95.004.01.752.424 1.94-1.07c.27-.152.6-.32 1-.507 1.904-.88 3.783-1.004 8.052-2.152 2.657-.73 3.88-1.03 4.89-1.403 1.036-.375 1.698-.842 2.703-1.527 1.052-.733 2.198-1.687 3.434-2.576l.143-.02 6.014 2.212c.066.024.11.09.103.163-.004.07-.057.13-.125.146-.755.146-1.492.34-2.08.59-2.693 1.21-4.337 3.225-5.946 4.073-1.722.933-4.144 1.77-8.332 2.827-4.217 1.07-6.806 1.708-8.607 2.687-1.17.65-2.35 1.594-3.013 2.163-.026.022-.06.034-.097.034-.03 0-.06-.008-.088-.024M5.257 58.73H2.182l1.53-4.735 1.545 4.736zm2.18 3.745v-.463c0-.495-.014-.66-.163-1.11l-2.88-9.093h-1.35l-2.88 9.093c-.15.45-.164.613-.164 1.108v.464h1.32v-.434c0-.18.015-.36.045-.48l.4-1.484h3.92l.387 1.485c.03.12.044.3.044.48v.434h1.322zM14.873 62.475h2.05c1.647 0 2.494-1.138 2.717-2.546l-1.248-.344-.09.403c-.133.615-.52 1.124-1.306 1.124h-2.213c-.712 0-1.246-.555-1.246-1.273v-5.396c0-.717.534-1.274 1.246-1.274h2.243c.772 0 1.128.51 1.276 1.11l.104.418 1.263-.343c-.24-1.41-1.086-2.546-2.734-2.546h-2.063c-1.5 0-2.686 1.18-2.686 2.71v5.245c0 1.528 1.188 2.71 2.686 2.71M25.285 62.475h7.422v-1.362h-6.074v-3.42h4.737v-1.36h-4.737v-3.165h6.074v-1.36h-7.422"/><g><path d="M43.12 58.73h-3.075l1.53-4.735 1.545 4.736zm2.18 3.745v-.463c0-.495-.015-.66-.164-1.11l-2.88-9.093h-1.35l-2.88 9.093c-.148.45-.164.614-.164 1.11v.462h1.32v-.434c0-.18.015-.36.045-.478l.4-1.485h3.922l.384 1.485c.03.118.044.298.044.48v.433H45.3zM134.425 62.475v-3.73c0-1.16-.69-2-1.874-2-.64 0-1.3.27-1.63.86l-.096-.72h-1.117v5.59h1.33v-2.278c0-.472-.01-1.054.18-1.492.182-.412.49-.713.96-.713.705 0 .917.4.917 1.055v3.43h1.33zm-7.562-2.795c0 .527-.075 1.055-.395 1.41-.18.192-.48.353-.842.353s-.66-.162-.842-.354c-.32-.355-.395-.883-.395-1.41s.074-1.054.394-1.41c.18-.192.48-.354.842-.354.36 0 .66.163.842.355.32.356.395.883.395 1.41m1.352 0c0-.948-.235-1.538-.65-2.064-.384-.472-1.096-.87-1.938-.87s-1.556.397-1.94.87c-.415.527-.648 1.117-.648 2.064 0 .947.232 1.54.648 2.066.383.47 1.097.87 1.94.87s1.554-.4 1.937-.87c.414-.527.65-1.12.65-2.066m-6.68-2.795h-1.352v5.59h1.352v-5.59zm.03-2.16h-1.425v1.385h1.426v-1.386zm-2.747 7.674V61.27c-.362.044-.586.055-.864.055-.425 0-.618-.182-.618-.613V57.99h1.396v-1.105h-1.396v-1.75l-1.33.332v1.42h-1.013v1.105h1.013v2.84c0 1.074.553 1.72 1.67 1.72.396 0 .768-.055 1.142-.153m-6.23-2.15c0 .83-.587 1.28-1.42 1.28-.414 0-.787-.27-.787-.7 0-.45.395-.698.8-.73l1.407-.11v.26zm1.777 2.16v-.987s-.085.02-.17.02c-.224 0-.31-.096-.31-.353v-2.075c0-.378-.02-.775-.16-1.13-.318-.837-1.127-1.138-2.075-1.138-1.236 0-2.227.56-2.302 1.815h1.29c.03-.515.393-.794 1.013-.794.757 0 .938.354.938.882v.344l-1.63.118c-1.055.075-1.875.686-1.875 1.754 0 .913.683 1.75 2.003 1.75.79 0 1.428-.39 1.684-.838.042.418.362.784.937.784.318 0 .436-.053.658-.15zm-6.712-5.525H106.3v5.59h1.353v-5.59zm.032-2.16h-1.426v1.385h1.425v-1.386zm-2.802 5.775h-1.31c-.01.204-.075.375-.16.514-.16.248-.447.42-.852.42-.362 0-.628-.16-.81-.354-.32-.355-.372-.882-.372-1.41 0-.526.052-1.064.372-1.418.18-.193.447-.345.81-.345.406 0 .693.172.853.42.085.138.148.31.16.517h1.31c-.022-.44-.17-.882-.427-1.214-.383-.484-1.054-.882-1.895-.882-.84 0-1.544.408-1.927.882-.416.525-.608 1.225-.608 2.042 0 .817.192 1.516.608 2.042.383.473 1.085.88 1.928.88.842 0 1.513-.397 1.896-.88.257-.335.405-.774.427-1.214m-7.317-.82c0 .527-.076 1.055-.395 1.41-.18.192-.48.353-.84.353-.362 0-.66-.162-.843-.354-.32-.355-.394-.883-.394-1.41s.074-1.054.394-1.41c.182-.192.48-.354.843-.354.36 0 .66.163.84.355.32.356.396.883.396 1.41m1.35 0c0-.948-.232-1.538-.647-2.064-.385-.472-1.1-.87-1.94-.87-.843 0-1.557.397-1.938.87-.417.527-.65 1.117-.65 2.064 0 .947.233 1.54.65 2.066.38.47 1.095.87 1.938.87.84 0 1.555-.4 1.94-.87.413-.527.647-1.12.647-2.066m-6.253 1.065c0-.88-.64-1.44-1.51-1.58-.545-.084-.684-.095-1.185-.16-.3-.045-.64-.163-.64-.56 0-.292.19-.496.426-.592.204-.086.384-.086.576-.086.277 0 .565.097.725.258.127.14.224.31.224.527h1.268c0-.41-.19-.827-.49-1.15-.404-.442-1.075-.656-1.735-.656-.695 0-1.28.204-1.685.56-.33.29-.564.688-.564 1.257 0 .71.512 1.334 1.267 1.495.493.107 1.045.138 1.536.214.34.055.555.27.555.593 0 .613-.683.708-1.13.708-.383 0-.63-.076-.842-.247-.17-.14-.297-.41-.297-.655h-1.245c0 .525.266.99.586 1.3.458.44 1.085.646 1.79.646.756 0 1.45-.193 1.897-.645.285-.288.477-.688.477-1.225m-5.764 0c0-.88-.64-1.44-1.512-1.58-.543-.084-.682-.095-1.183-.16-.3-.045-.64-.163-.64-.56 0-.292.192-.496.427-.592.203-.086.384-.086.575-.086.277 0 .565.097.726.258.126.14.224.31.224.527h1.266c0-.41-.19-.827-.49-1.15-.404-.442-1.075-.656-1.736-.656-.694 0-1.278.204-1.684.56-.33.29-.563.688-.563 1.257 0 .71.51 1.334 1.266 1.495.49.107 1.045.138 1.535.214.342.055.556.27.556.593 0 .613-.682.708-1.13.708-.383 0-.63-.076-.842-.247-.17-.14-.3-.41-.3-.655H82.15c0 .525.266.99.585 1.3.458.44 1.085.646 1.79.646.756 0 1.45-.193 1.897-.645.287-.288.478-.688.478-1.225m-7.702-.98h-2.15l1.075-3.212 1.075 3.213zm2.355 2.71l-2.653-7.62h-1.502l-2.653 7.62h1.384l.49-1.46h3.004l.49 1.46h1.44zM151 47.03c0-.88-.644-1.44-1.523-1.58-.547-.085-.687-.096-1.19-.16-.302-.046-.646-.163-.646-.56 0-.292.195-.496.432-.592.204-.086.385-.086.58-.086.278 0 .568.097.73.258.127.14.224.31.224.527h1.276c0-.41-.192-.827-.493-1.15-.408-.442-1.084-.656-1.75-.656-.698 0-1.287.204-1.694.56-.332.29-.567.688-.567 1.258 0 .71.512 1.333 1.272 1.495.494.107 1.052.14 1.546.214.344.054.56.27.56.592 0 .613-.69.71-1.14.71-.385 0-.632-.077-.847-.25-.17-.14-.3-.408-.3-.654h-1.253c0 .525.27.99.59 1.3.46.44 1.093.645 1.8.645.762 0 1.46-.193 1.91-.644.29-.29.483-.688.483-1.226m-5.43-2.612v-1.29c-.138-.02-.277-.033-.417-.033-.654 0-1.32.27-1.575.914l-.12-.84h-1.135v5.592h1.35v-2.816c0-.903.494-1.58 1.438-1.58.15-.002.31.02.46.052m-6.058.99H137.1c.01-.367.094-.625.287-.872.194-.26.526-.43.933-.43.387 0 .666.13.848.32.214.24.333.563.344.98m1.34.602c.022-.697-.075-1.332-.483-1.945-.462-.7-1.212-1.03-2.04-1.03-.76 0-1.36.278-1.778.707-.536.548-.805 1.347-.805 2.238 0 .913.3 1.7.857 2.236.44.418 1 .687 1.76.687.707 0 1.405-.226 1.876-.784.214-.256.438-.697.472-1.032h-1.29c-.05.204-.148.355-.266.474-.193.193-.43.268-.815.268-.364 0-.633-.16-.826-.344-.268-.256-.417-.667-.407-1.096h3.732c0-.12.012-.378.012-.378m-5.813-1.59v-1.29c-.14-.02-.28-.033-.42-.033-.653 0-1.318.27-1.576.914l-.118-.84h-1.136v5.592h1.35v-2.816c0-.903.494-1.58 1.438-1.58.15-.002.31.02.46.052M129.9 48.76v-5.59h-1.34v2.957c0 .45-.085.955-.407 1.258-.16.162-.376.28-.687.28-.71 0-.966-.408-.966-1.063V43.17h-1.34v3.732c0 1.192.74 2 1.93 2 .708 0 1.332-.324 1.6-.87l.096.728h1.114zm-6.006-.075V47.56c-.365.042-.59.053-.87.053-.428 0-.62-.183-.62-.613v-2.72h1.403v-1.11h-1.404v-1.75l-1.34.33v1.42h-1.02v1.107h1.02v2.84c0 1.074.557 1.72 1.682 1.72.398 0 .773-.055 1.15-.152m-4.505-1.9h-1.32c-.01.204-.075.375-.16.514-.16.247-.45.42-.86.42-.363 0-.63-.162-.813-.356-.323-.354-.376-.882-.376-1.41 0-.527.054-1.063.377-1.418.182-.194.45-.345.814-.345.41 0 .7.173.86.42.084.14.15.312.16.518h1.32c-.022-.44-.172-.882-.43-1.214-.386-.485-1.06-.88-1.91-.88-.846 0-1.554.406-1.94.88-.417.526-.61 1.225-.61 2.042 0 .817.193 1.516.61 2.043.386.47 1.094.878 1.94.878.85 0 1.524-.396 1.91-.88.258-.333.408-.772.43-1.214m-7.678-.25c0 .83-.59 1.28-1.428 1.28-.42 0-.795-.268-.795-.698 0-.452.397-.7.805-.73l1.417-.11v.26zm1.79 2.162v-.986s-.088.02-.172.02c-.227 0-.312-.096-.312-.354V45.3c0-.378-.02-.775-.162-1.13-.32-.837-1.135-1.138-2.09-1.138-1.245 0-2.242.56-2.317 1.814h1.295c.033-.514.397-.794 1.02-.794.763 0 .946.355.946.882v.345l-1.642.116c-1.062.075-1.887.687-1.887 1.753 0 .912.687 1.75 2.016 1.75.795 0 1.44-.388 1.697-.838.042.418.363.784.942.784.323 0 .44-.052.666-.15zm-5.856-6.634v-1.074c-.417-.085-.665-.117-1.052-.117-1.2 0-1.896.73-1.896 1.762v.538h-.944v1.107h.944v4.484h1.34v-4.483h1.49V43.17h-1.49v-.514c0-.4.246-.68.73-.68.353 0 .6.034.878.086m-5.117 6.7V43.17h-1.34v2.957c0 .45-.086.955-.41 1.258-.16.162-.373.28-.686.28-.708 0-.966-.408-.966-1.063V43.17h-1.34v3.732c0 1.192.74 2 1.932 2 .708 0 1.33-.324 1.597-.87l.097.728h1.115zm-6.46 0v-3.73c0-1.162-.694-2-1.885-2-.645 0-1.31.27-1.642.86l-.097-.722H91.32v5.59h1.342v-2.278c0-.473-.013-1.055.182-1.493.182-.413.493-.713.966-.713.708 0 .922.4.922 1.055v3.43h1.34zm-7.924-2.227c0 .83-.59 1.28-1.427 1.28-.42 0-.794-.27-.794-.7 0-.45.397-.7.805-.73l1.417-.11v.26zm1.79 2.16v-.985s-.085.02-.17.02c-.226 0-.312-.096-.312-.354V45.3c0-.378-.02-.775-.16-1.13-.322-.837-1.136-1.138-2.09-1.138-1.247 0-2.243.56-2.317 1.814h1.297c.032-.514.398-.794 1.02-.794.76 0 .943.355.943.882v.345l-1.64.116c-1.064.075-1.89.687-1.89 1.753 0 .912.686 1.75 2.017 1.75.794 0 1.438-.388 1.695-.838.04.418.362.784.94.784.323 0 .44-.052.666-.15zm-6.8.066v-7.62h-1.77l-2.005 5.43-1.996-5.43H75.5v7.622h1.34v-5.504l1.963 5.396h1.02l1.975-5.332v5.44h1.338zM132.176 31.693h-2.397c.01-.365.095-.624.286-.873.193-.257.522-.43.927-.43.384 0 .66.13.842.323.214.24.332.56.34.98m1.334.6c.02-.697-.076-1.33-.48-1.945-.458-.7-1.204-1.03-2.024-1.03-.757 0-1.353.278-1.767.707-.535.548-.8 1.346-.8 2.238 0 .912.297 1.7.85 2.237.438.417.99.686 1.747.686.704 0 1.396-.227 1.865-.785.214-.255.438-.697.47-1.03h-1.28c-.053.204-.15.355-.266.473-.192.193-.427.27-.81.27-.363 0-.63-.162-.82-.345-.268-.26-.416-.668-.405-1.098h3.708c0-.118.01-.377.01-.377m-5.996 2.743V33.91c-.075 0-.107.01-.224.01-.458 0-.533-.215-.533-.538v-6.107h-1.342v6.333c0 1.062.606 1.503 1.512 1.503.268 0 .32-.02.587-.074m-3.952-5.58h-1.352v5.59h1.352v-5.59zm.03-2.16h-1.425v1.386h1.426v-1.386zm-4.248 4.945c0 .486-.075 1-.352 1.368-.192.246-.48.44-.897.44-.34 0-.596-.108-.777-.28-.384-.355-.48-.98-.48-1.527 0-.806.214-1.795 1.257-1.795.418 0 .705.193.897.44.277.366.352.87.352 1.356m1.35.023c0-1.097-.33-1.947-.988-2.494-.34-.28-.79-.453-1.355-.453-.662 0-1.194.236-1.45.548v-2.58h-1.33v7.76h1.15l.085-.612c.33.517.948.744 1.556.744.555 0 1.002-.196 1.344-.474.66-.547.99-1.387.99-2.44zm-7.965-.01c0 .526-.075 1.053-.394 1.407-.182.193-.48.355-.843.355s-.66-.162-.842-.355c-.32-.354-.394-.88-.394-1.408 0-.527.074-1.054.394-1.41.18-.192.48-.353.842-.353s.66.16.843.353c.318.355.394.882.394 1.41m1.35 0c0-.948-.234-1.54-.65-2.066-.382-.472-1.095-.87-1.938-.87s-1.557.398-1.94.87c-.414.527-.65 1.118-.65 2.065 0 .946.236 1.54.65 2.063.384.473 1.097.872 1.94.872.842 0 1.555-.398 1.937-.872.416-.524.65-1.117.65-2.063m-6.583 2.794v-3.773c0-1.16-.62-1.956-1.8-1.956-.747 0-1.343.333-1.672.912-.278-.568-.81-.913-1.587-.913-.736 0-1.27.366-1.578.88l-.106-.74h-1.106v5.59h1.32v-3.053c0-.7.34-1.506 1.097-1.506.673 0 .855.397.855 1.085v3.473h1.32v-3.053c0-.7.33-1.505 1.088-1.505.67 0 .852.397.852 1.085v3.473h1.32zM96.8 32.252c0 .527-.076 1.054-.395 1.408-.182.193-.48.355-.842.355-.363 0-.66-.162-.843-.355-.318-.354-.394-.88-.394-1.408 0-.527.075-1.054.394-1.41.182-.192.48-.353.843-.353.362 0 .66.16.842.353.32.355.394.882.394 1.41m1.35 0c0-.948-.235-1.54-.65-2.066-.382-.472-1.096-.87-1.938-.87-.843 0-1.557.398-1.94.87-.414.527-.648 1.118-.648 2.065 0 .946.234 1.54.65 2.063.382.473 1.095.872 1.938.872.842 0 1.556-.398 1.94-.872.413-.524.647-1.117.647-2.063m-6.03 2.72v-1.128c-.36.043-.586.054-.862.054-.426 0-.618-.183-.618-.613v-2.72h1.396v-1.107H90.64v-1.752l-1.33.333v1.418h-1.013v1.106h1.013v2.84c0 1.074.554 1.718 1.67 1.718.395 0 .768-.055 1.14-.15m-5.007.074v-5.59h-1.33v2.958c0 .45-.085.955-.406 1.257-.16.163-.372.28-.682.28-.705 0-.96-.406-.96-1.062v-3.43h-1.33v3.73c0 1.192.734 2 1.918 2 .704 0 1.32-.324 1.586-.873l.096.73h1.107zm-7.915-2.708h-2.15l1.075-3.214 1.075 3.214zm2.355 2.708l-2.653-7.62h-1.502l-2.653 7.62h1.384l.49-1.46h3.004l.49 1.46h1.44zM123.045 21.332v-3.73c0-1.162-.69-2-1.874-2-.64 0-1.3.27-1.63.86l-.097-.72h-1.116v5.59h1.33v-2.277c0-.474-.01-1.055.18-1.494.182-.41.49-.71.962-.71.702 0 .915.398.915 1.053v3.43h1.33zm-7.872-2.226c0 .83-.586 1.282-1.418 1.282-.415 0-.79-.27-.79-.7 0-.453.395-.7.8-.732l1.408-.108v.258zm1.778 2.162v-.988s-.084.022-.17.022c-.224 0-.31-.096-.31-.354v-2.076c0-.377-.02-.775-.158-1.13-.32-.837-1.128-1.138-2.076-1.138-1.237 0-2.226.56-2.3 1.815h1.287c.033-.517.395-.796 1.014-.796.757 0 .937.355.937.882v.344l-1.63.12c-1.055.073-1.876.685-1.876 1.75 0 .914.682 1.752 2.002 1.752.79 0 1.428-.387 1.685-.838.043.42.362.785.937.785.32 0 .436-.056.66-.152zm-7.616-3.29h-2.398c.012-.364.097-.622.29-.872.19-.257.52-.43.925-.43.384 0 .662.13.843.323.214.236.33.56.34.98m1.332.6c.02-.697-.074-1.33-.478-1.946-.46-.698-1.204-1.03-2.025-1.03-.756 0-1.353.278-1.77.708-.53.548-.798 1.345-.798 2.237 0 .91.3 1.698.852 2.235.437.418.99.687 1.747.687.704 0 1.396-.226 1.864-.784.214-.257.438-.698.47-1.032h-1.28c-.053.204-.15.355-.265.474-.193.193-.427.27-.812.27-.362 0-.628-.163-.82-.346-.265-.258-.416-.667-.404-1.097h3.707c0-.12.012-.377.012-.377m-7.53-.03c0 .482-.075.988-.352 1.353-.192.246-.48.44-.895.44-1.046 0-1.26-.988-1.26-1.794 0-.808.213-1.81 1.26-1.81.415 0 .703.195.895.442.277.366.352.882.352 1.367m1.35-.023c0-1.054-.33-1.893-.99-2.44-.34-.28-.788-.474-1.34-.474-.608 0-1.228.227-1.558.742l-.085-.612h-1.15v7.73h1.33v-2.548c.256.31.79.547 1.45.547.565 0 1.012-.172 1.354-.45.66-.548.99-1.398.99-2.495m-7.967.012c0 .525-.076 1.052-.395 1.407-.182.193-.48.354-.842.354-.36 0-.66-.16-.843-.353-.32-.355-.394-.882-.394-1.408 0-.53.075-1.056.394-1.41.182-.194.482-.355.843-.355.362 0 .66.162.842.355.318.353.394.88.394 1.41m1.35 0c0-.95-.234-1.54-.648-2.067-.383-.47-1.097-.87-1.938-.87-.843 0-1.557.4-1.94.87-.415.527-.648 1.118-.648 2.066 0 .944.234 1.536.65 2.062.38.473 1.095.87 1.938.87.842 0 1.556-.397 1.938-.87.414-.527.648-1.12.648-2.063m-5.794-1.55V15.7c-.14-.02-.277-.033-.417-.033-.65 0-1.31.27-1.566.914l-.118-.836H88.85v5.59h1.34v-2.816c0-.904.49-1.58 1.428-1.58.15-.002.31.02.458.05m-5.103 4.344v-5.59h-1.33V18.7c0 .45-.086.955-.406 1.256-.16.162-.373.28-.683.28-.704 0-.96-.408-.96-1.064v-3.43h-1.33v3.73c0 1.193.734 2 1.917 2 .706 0 1.323-.324 1.59-.872l.096.73h1.107zm-6.095 0v-1.257h-4.005V17.99H80.4v-1.247h-3.527V14.97h4.005V13.71h-5.38v7.62h5.38zM60.4 0s-.453 0-.453.457v63.085s0 .458.452.458c0 0 .452 0 .452-.458V.457S60.852 0 60.4 0"/></g></g></svg>
