<svg xmlns="http://www.w3.org/2000/svg" style="width:0; height:0; visibility:hidden;">
    <symbol id="macxim-Svg--codepen" viewBox="0 0 32 32">
      <path d="M29.25 18.301L25.81 16l3.44-2.301v4.602zm-11.875 9.754v-6.413l5.962-3.987 4.812 3.218-10.774 7.182zM16 19.253L11.137 16 16 12.747 20.864 16 16 19.253zm-1.375 8.802L3.85 20.873l4.813-3.218 5.96 3.987v6.413zM2.75 13.699L6.19 16l-3.44 2.301v-4.602zm11.875-9.754v6.413l-5.961 3.988-4.813-3.219 10.774-7.182zm2.75 0l10.774 7.182-4.812 3.219-5.962-3.988V3.945zm14.613 7.001l-.011-.06a1.376 1.376 0 0 0-.024-.115c-.006-.023-.015-.045-.022-.067a1.687 1.687 0 0 0-.035-.1.685.685 0 0 0-.031-.067.71.71 0 0 0-.047-.091c-.012-.022-.026-.043-.04-.064a.964.964 0 0 0-.104-.143 1.226 1.226 0 0 0-.07-.075c-.017-.018-.034-.037-.053-.053a2.28 2.28 0 0 0-.078-.066l-.062-.047-.023-.017L16.763.231a1.376 1.376 0 0 0-1.526 0L.613 9.981l-.023.017a1.235 1.235 0 0 0-.14.113c-.02.016-.037.035-.055.053a.959.959 0 0 0-.068.075.884.884 0 0 0-.105.143 1.378 1.378 0 0 0-.087.155c-.01.021-.021.044-.03.067a1.192 1.192 0 0 0-.036.1c-.007.022-.015.044-.021.067-.01.037-.017.076-.024.115-.004.02-.01.039-.011.06a1.311 1.311 0 0 0-.013.179v9.75c0 .06.005.12.013.18.002.019.007.039.01.059.008.039.015.077.025.115l.02.067c.012.033.023.067.037.101l.03.066c.015.031.03.061.047.092l.04.063a1.216 1.216 0 0 0 .228.271c.025.023.05.045.078.066.02.016.04.032.062.047l.023.017 14.624 9.75a1.374 1.374 0 0 0 1.526 0l14.625-9.75.023-.017.062-.047a2.28 2.28 0 0 0 .078-.066c.019-.017.036-.035.054-.054a1.208 1.208 0 0 0 .174-.217l.039-.063a1 1 0 0 0 .047-.092c.01-.022.022-.044.03-.066.014-.034.025-.068.036-.101.007-.022.016-.044.022-.067.01-.038.017-.076.024-.115.003-.02.008-.04.01-.059.009-.06.013-.12.013-.18v-9.75c0-.061-.004-.121-.012-.179z" fill="#000" fill-rule="evenodd"/>
    </symbol>
    <symbol id="macxim-Svg--external-link" viewBox="0 0 32 32">
      <path d="M0 0h12v4H4v24h24v-8h4v12H0V0zm16.844 0H32v15.156l-5.684-5.684L17.788 18 14 14.212l8.528-8.528L16.844 0z" fill="#444" fill-rule="evenodd"/>
    </symbol>
    <symbol id="macxim-Svg--facebook" viewBox="0 0 32 32">
      <path d="M1.766 0C.79 0 0 .79 0 1.766v28.468C0 31.209.79 32 1.766 32h15.326V19.608h-4.17v-4.83h4.17v-3.561c0-4.133 2.525-6.384 6.212-6.384 1.766 0 3.284.132 3.726.19v4.32l-2.557.001c-2.005 0-2.393.953-2.393 2.351v3.084h4.782l-.623 4.829h-4.16V32h8.155c.975 0 1.766-.79 1.766-1.766V1.766C32 .79 31.21 0 30.234 0H1.766z" fill="#395185" fill-rule="evenodd"/>
    </symbol>
    <symbol id="macxim-Svg--github" viewBox="0 0 32 32">
      <path d="M15.999.395C7.164.395 0 7.558 0 16.396c0 7.068 4.584 13.065 10.943 15.181.8.147 1.092-.347 1.092-.77 0-.38-.014-1.387-.022-2.722-4.451.967-5.39-2.145-5.39-2.145-.727-1.848-1.776-2.34-1.776-2.34-1.453-.993.11-.973.11-.973 1.605.113 2.45 1.65 2.45 1.65 1.428 2.444 3.745 1.738 4.657 1.328.145-1.034.559-1.739 1.016-2.139-3.553-.404-7.288-1.776-7.288-7.907 0-1.747.623-3.175 1.647-4.294-.165-.405-.714-2.03.156-4.234 0 0 1.344-.43 4.4 1.64a15.36 15.36 0 0 1 4.006-.539c1.359.007 2.728.184 4.006.54 3.054-2.07 4.395-1.64 4.395-1.64.873 2.202.324 3.828.159 4.233 1.026 1.12 1.645 2.547 1.645 4.294 0 6.146-3.741 7.5-7.305 7.895.574.494 1.086 1.47 1.086 2.963 0 2.14-.02 3.864-.02 4.39 0 .427.288.925 1.1.768C27.42 29.455 32 23.462 32 16.396c0-8.838-7.164-16-16.001-16" fill="#161514" fill-rule="evenodd"/>
    </symbol>
    <symbol id="macxim-Svg--instagram" viewBox="0 0 32 32">
      <path d="M16 2.887c4.27 0 4.777.016 6.463.093 1.56.071 2.407.332 2.97.551.747.29 1.28.637 1.84 1.196.56.56.906 1.093 1.196 1.84.219.563.48 1.41.55 2.97.078 1.686.094 2.192.094 6.463 0 4.27-.016 4.777-.093 6.463-.071 1.56-.332 2.407-.551 2.97a4.955 4.955 0 0 1-1.196 1.84c-.56.56-1.093.906-1.84 1.196-.563.219-1.41.48-2.97.55-1.686.078-2.192.094-6.463.094s-4.777-.016-6.463-.093c-1.56-.071-2.407-.332-2.97-.551a4.955 4.955 0 0 1-1.84-1.196 4.955 4.955 0 0 1-1.196-1.84c-.219-.563-.48-1.41-.55-2.97-.078-1.686-.094-2.192-.094-6.463 0-4.27.016-4.777.093-6.463.071-1.56.332-2.407.551-2.97.29-.747.637-1.28 1.196-1.84a4.956 4.956 0 0 1 1.84-1.196c.563-.219 1.41-.48 2.97-.55 1.686-.078 2.192-.094 6.463-.094m0-2.882c-4.344 0-4.889.018-6.595.096C7.703.18 6.54.45 5.523.845A7.84 7.84 0 0 0 2.69 2.69 7.84 7.84 0 0 0 .845 5.523C.449 6.54.179 7.703.1 9.405.023 11.111.005 11.656.005 16c0 4.344.018 4.889.096 6.595.078 1.702.348 2.865.744 3.882A7.84 7.84 0 0 0 2.69 29.31a7.84 7.84 0 0 0 2.833 1.845c1.017.396 2.18.666 3.882.744 1.706.078 2.251.096 6.595.096 4.344 0 4.889-.018 6.595-.096 1.702-.078 2.865-.348 3.882-.744a7.84 7.84 0 0 0 2.833-1.845 7.84 7.84 0 0 0 1.845-2.833c.396-1.017.666-2.18.744-3.882.078-1.706.096-2.251.096-6.595 0-4.344-.018-4.889-.096-6.595-.078-1.702-.348-2.865-.744-3.882A7.84 7.84 0 0 0 29.31 2.69 7.84 7.84 0 0 0 26.477.845C25.46.449 24.297.179 22.595.1 20.889.023 20.344.005 16 .005zm0 7.781a8.214 8.214 0 1 0 0 16.428 8.214 8.214 0 0 0 0-16.428zm0 13.546a5.332 5.332 0 1 1 0-10.664 5.332 5.332 0 0 1 0 10.664zm10.458-13.87a1.92 1.92 0 1 1-3.84 0 1.92 1.92 0 0 1 3.84 0z" fill="#0A0B09" fill-rule="evenodd"/>
    </symbol>
    <symbol id="macxim-Svg--linkedin" viewBox="0 0 32 32">
      <path d="M27.269 27.267h-4.746v-7.426c0-1.77-.03-4.049-2.466-4.049-2.47 0-2.846 1.93-2.846 3.922v7.553H12.47v-15.27h4.55v2.087h.065c.633-1.2 2.18-2.467 4.49-2.467 4.806 0 5.694 3.162 5.694 7.275v8.375zM7.119 9.91a2.751 2.751 0 0 1-2.754-2.753A2.753 2.753 0 1 1 7.119 9.91zm2.374 17.357H4.742v-15.27h4.75v15.27zM30.667 0H1.334C.597 0 0 .597 0 1.333v29.333C0 31.403.597 32 1.334 32h29.333c.736 0 1.333-.597 1.333-1.334V1.333C32 .597 31.403 0 30.667 0z" fill="#0077B5" fill-rule="evenodd"/>
    </symbol>
    <symbol id="macxim-Svg--pocket" viewBox="0 0 32 29">
      <path d="M2.814.05C1.072.165.018 1.16.018 2.928v10.591c0 8.602 8.555 15.362 15.956 15.309 8.322-.06 16.01-7.087 16.01-15.309V2.928c0-1.776-1.121-2.777-2.876-2.877H2.814zm6.74 8.616l6.42 6.1 6.427-6.1c2.876-1.208 4.13 2.076 2.95 3.037l-8.37 7.988c-.273.26-1.734.26-2.008 0l-8.368-7.988c-1.128-1.061.34-4.398 2.95-3.037z" fill="#EF4056" fill-rule="evenodd"/>
    </symbol>
    <symbol id="macxim-Svg--skype" viewBox="0 0 32 32">
      <path d="M16.07 25.18c-5.37 0-7.77-2.64-7.77-4.617 0-1.015.748-1.726 1.78-1.726 2.298 0 1.703 3.299 5.99 3.299 2.193 0 3.405-1.192 3.405-2.411 0-.733-.362-1.546-1.807-1.902l-4.775-1.192c-3.845-.964-4.543-3.043-4.543-4.997 0-4.058 3.82-5.581 7.408-5.581 3.304 0 7.2 1.826 7.2 4.26 0 1.043-.903 1.65-1.935 1.65-1.96 0-1.6-2.714-5.549-2.714-1.96 0-3.045.888-3.045 2.158 0 1.267 1.548 1.672 2.891 1.978l3.535.785c3.871.862 4.852 3.122 4.852 5.25 0 3.298-2.53 5.76-7.638 5.76m14.798-6.515c-.01.056-.017.113-.028.169l-.054-.322c.03.05.054.102.082.153.165-.9.252-1.82.252-2.74A15.063 15.063 0 0 0 26.692 5.24 15.05 15.05 0 0 0 16.01.817c-.962 0-1.925.09-2.862.27h-.007c.053.029.106.054.158.083l-.318-.05a9.05 9.05 0 0 0 .16-.032A8.962 8.962 0 0 0 8.945.039c-2.389 0-4.636.93-6.325 2.62A8.889 8.889 0 0 0 0 8.985c0 1.52.391 3.015 1.125 4.337.01-.055.016-.111.027-.165l.055.317c-.029-.05-.054-.102-.082-.152-.149.855-.228 1.73-.228 2.604a15 15 0 0 0 1.19 5.882c.76 1.8 1.85 3.415 3.236 4.803a15.023 15.023 0 0 0 4.804 3.237 14.979 14.979 0 0 0 5.882 1.189c.887 0 1.777-.081 2.646-.235-.05-.028-.103-.054-.154-.084l.323.057c-.056.01-.112.017-.169.027a8.926 8.926 0 0 0 4.4 1.16 8.88 8.88 0 0 0 6.325-2.62A8.88 8.88 0 0 0 32 23.017a8.938 8.938 0 0 0-1.133-4.352" fill="#00AFF0" fill-rule="evenodd"/>
    </symbol>
    <symbol id="macxim-Svg--spotify" viewBox="0 0 32 32">
      <path d="M25.44 14.24c-5.12-3.04-13.68-3.36-18.56-1.84-.8.24-1.6-.24-1.84-.96-.24-.8.24-1.6.96-1.84 5.68-1.68 15.04-1.36 20.96 2.16.72.4.96 1.36.56 2.08-.4.56-1.36.8-2.08.4m-.16 4.48c-.4.56-1.12.8-1.68.4-4.32-2.64-10.88-3.44-15.92-1.84-.64.16-1.36-.16-1.52-.8-.16-.64.16-1.36.8-1.52 5.84-1.76 13.04-.88 18 2.16.48.24.72 1.04.32 1.6m-1.92 4.4c-.32.48-.88.64-1.36.32-3.76-2.32-8.48-2.8-14.08-1.52-.56.16-1.04-.24-1.2-.72-.16-.56.24-1.04.72-1.2 6.08-1.36 11.36-.8 15.52 1.76.56.24.64.88.4 1.36M16 0C7.2 0 0 7.2 0 16s7.2 16 16 16 16-7.2 16-16S24.88 0 16 0" fill="#4DB05B" fill-rule="evenodd"/>
    </symbol>
    <symbol id="macxim-Svg--twitter" viewBox="0 0 32 26">
      <path d="M32 3.076a13.14 13.14 0 0 1-3.771 1.034A6.584 6.584 0 0 0 31.116.478a13.166 13.166 0 0 1-4.169 1.593 6.557 6.557 0 0 0-4.792-2.073 6.565 6.565 0 0 0-6.565 6.565c0 .514.058 1.015.17 1.496a18.639 18.639 0 0 1-13.532-6.86 6.539 6.539 0 0 0-.889 3.3 6.563 6.563 0 0 0 2.92 5.465 6.532 6.532 0 0 1-2.973-.821l-.001.083a6.568 6.568 0 0 0 5.267 6.437 6.578 6.578 0 0 1-2.965.113 6.571 6.571 0 0 0 6.133 4.559 13.172 13.172 0 0 1-8.154 2.81c-.53 0-1.052-.031-1.566-.091a18.587 18.587 0 0 0 10.064 2.949c12.076 0 18.679-10.004 18.679-18.68 0-.284-.006-.567-.019-.85A13.315 13.315 0 0 0 32 3.077" fill="#55acee" fill-rule="evenodd"/>
    </symbol>
    <symbol id="macxim-Svg--whatsapp" viewBox="0 0 32 32">
      <path d="M.1 32l2.3-8.2C1 21.4.3 18.7.3 15.9.2 7.1 7.3 0 16.1 0c4.2 0 8.2 1.7 11.2 4.7s4.6 7 4.6 11.2c0 8.7-7.1 15.9-15.9 15.9-2.7 0-5.3-.7-7.6-1.9L.1 32zm8.8-5.1l.5.3c2 1.2 4.3 1.8 6.7 1.8 7.3 0 13.2-5.9 13.2-13.2 0-3.5-1.4-6.8-3.9-9.3-2.5-2.5-5.8-3.9-9.3-3.9-7.3.1-13.2 6-13.2 13.3 0 2.5.7 4.9 2 7l.3.5-1.3 4.9 5-1.4zm3.2-17.7c-.3-.8-.6-.7-.9-.7h-.8c-.3 0-.7.1-1.1.5C9 9.4 8 10.4 8 12.3c0 2 1.4 3.8 1.6 4.1.2.3 2.8 4.3 6.8 6 .9.4 1.7.7 2.3.8.9.3 1.8.3 2.5.2.8-.1 2.3-1 2.7-1.9.3-.9.3-1.7.2-1.9-.1-.2-.4-.3-.8-.5-.4-.1-2.3-1.1-2.7-1.2-.4-.1-.6-.2-.9.2-.3.4-1 1.3-1.3 1.6-.2.3-.5.3-.9.1-.4-.2-1.7-.6-3.2-2-1.2-1.1-2-2.3-2.2-2.7-.2-.4 0-.6.2-.8.2-.2.4-.5.6-.7.2-.2.3-.4.4-.7.1-.3.1-.5 0-.7-.1-.2-.9-2.2-1.2-3z" fill="#455A64" fill-rule="evenodd"/>
    </symbol></svg>