<?xml version="1.0" encoding="utf-8"?>
<!-- Generator: Adobe Illustrator 15.1.0, SVG Export Plug-In . SVG Version: 6.00 Build 0)  -->
<!DOCTYPE svg PUBLIC "-//W3C//DTD SVG 1.1//EN" "http://www.w3.org/Graphics/SVG/1.1/DTD/svg11.dtd">
<svg version="1.1" id="Calque_1" xmlns="http://www.w3.org/2000/svg" xmlns:xlink="http://www.w3.org/1999/xlink" x="0px" y="0px"
	 width="120px" height="120px" viewBox="0 0 120 120" enable-background="new 0 0 120 120" xml:space="preserve">
<g>
	<path fill="#EE5A28" d="M77.458,90.911V52.199L59.916,67.718L42.542,52.199v38.712h-9.699V29.089l27.073,24.713l27.241-24.713
		v61.822H77.458z"/>
	<path fill="#EE5A28" d="M110,60.001C110,32.386,87.615,10,60,10S10,32.386,10,60.001C10,87.615,32.385,110,60,110
		S110,87.615,110,60.001z M60.074,105.307c-24.812,0-44.923-20.111-44.923-44.921s20.111-44.921,44.923-44.921
		c24.808,0,44.918,20.112,44.918,44.921C104.992,85.195,84.881,105.307,60.074,105.307z"/>
	<polygon fill="#EE5A28" points="51.57,87.843 51.57,73.355 51.57,65.126 45.97,60.015 45.97,87.843 45.97,95.707 51.57,95.707 
		56.83,95.707 56.83,87.843 	"/>
	<polygon fill="#EE5A28" points="68.423,87.829 68.423,73.343 68.423,65.111 74.12,60 74.12,87.829 74.12,95.693 68.423,95.693 
		63.26,95.693 63.26,87.829 	"/>
</g>
</svg>
