<svg width="200" height="67" viewBox="0 0 200 67" xmlns="http://www.w3.org/2000/svg"><path d="M32.425 66.08h7.21V52.857h-8.44c-10.663 0-15.78-7.342-16.876-13.72h25.446V26.91H14.32c.863-4.883 4.152-10.398 10.53-12.724 1.462-.498 3.057-.864 4.884-.963h9.902V0h-7.213c-2.69 0-5.248.233-7.574.73-2.193.5-4.286 1.097-6.246 1.828-4.652 1.96-8.44 4.884-11.263 8.44-3.055 3.82-5.15 8.338-6.38 13.122C.234 27.043 0 30.1 0 33.056c0 .964 0 1.96.133 2.924 1.096 15.183 10.997 30.1 32.292 30.1m47.875 0h10.996V52.89H81.163c-9.634 0-17.11-10.498-17.11-19.8 0-9.303 7.576-19.8 17.11-19.8h10.133V0H80.3c-4.75 0-9.402 1.096-13.555 3.29C60.5 6.477 55.25 11.727 52.193 18.803c-1.827 4.153-2.923 8.904-2.923 14.286-.133 19.932 15.15 32.99 31.03 32.99m34.784 0h13.953V13.19h14.42V0h-42.66v13.19h14.287m84.618 52.89V23.787C199.702 12.492 193.224 0 176.28 0c-16.943 0-23.322 12.392-23.322 23.787V66.08h14.418V21.395c0-4.817 2.16-8.77 8.77-8.77 6.612 0 8.905 3.853 8.905 8.77v8.638H171.1v12.625h14.053V65.98l14.553.1z" fill="#fff"/></svg>
