<svg id="Calque_1" data-name="Calque 1" xmlns="http://www.w3.org/2000/svg" viewBox="0 0 93.94 48"><defs><style>.cls-1{fill:#ffffff;}</style></defs><title>wp-logo-2017</title><path class="cls-1" d="M5.2 43.96H3.68l-3.5-8.25h2.24l1.98 4.75 2.06-4.75h1.53l2.06 4.75 1.97-4.75h2.25l-3.5 8.25H9.24l-2.06-4.75-1.98 4.75zM22.52 44h-2.15v-.67a3.63 3.63 0 0 1-2.24.81A4.4 4.4 0 0 1 15 42.8a4.52 4.52 0 0 1-1.08-2.87 4.14 4.14 0 0 1 4-4.31 3.76 3.76 0 0 1 2.42.81v-.63h2.15V44zm-2.24-5.38a2.43 2.43 0 0 0-2.06-1 2.2 2.2 0 0 0-2.15 2.24 2.15 2.15 0 0 0 2.15 2.24 2.65 2.65 0 0 0 2-1v-2.52h.09zM24.22 44v-8.29h2.15v.63a3.51 3.51 0 0 1 2.33-.81 3.81 3.81 0 0 1 2.87 1.35 4.07 4.07 0 0 1 .81 2.87V44h-2.23v-4.4a2 2 0 0 0-.45-1.6 1.77 1.77 0 0 0-1.26-.45 2.76 2.76 0 0 0-2 1v5.29h-2.22V44zM33.82 44v-8.29H36v.63a3.51 3.51 0 0 1 2.33-.81 3.81 3.81 0 0 1 2.87 1.35 4.07 4.07 0 0 1 .8 2.87V44h-2.25v-4.4a2 2 0 0 0-.45-1.6 1.77 1.77 0 0 0-1.3-.41 2.76 2.76 0 0 0-2 1v5.29h-2.18V44zM51.41 44h-2.15v-.67a3.63 3.63 0 0 1-2.24.81 4.4 4.4 0 0 1-3.14-1.35 4.52 4.52 0 0 1-1.08-2.87 4.14 4.14 0 0 1 4-4.31 3.76 3.76 0 0 1 2.42.81v-.62h2.15V44zm-2.24-5.38a2.43 2.43 0 0 0-2.06-1 2.2 2.2 0 0 0-2.15 2.24 2.15 2.15 0 0 0 2.15 2.24 2.65 2.65 0 0 0 2-1v-2.52h.09zM53.11 35.71h2.06v.63a3.59 3.59 0 0 1 2.42-.81 4.14 4.14 0 0 1 4 4.31 4.08 4.08 0 0 1-1.08 2.87 4.25 4.25 0 0 1-3.14 1.35 4.15 4.15 0 0 1-2.24-.72V48h-2.2V35.71h.18zm2.15 5.38a2.38 2.38 0 0 0 2 1 2.24 2.24 0 0 0 0-4.49 2.84 2.84 0 0 0-2.06 1v2.51h.09zM62.62 35.71h2.15v.63a3.59 3.59 0 0 1 2.42-.81 4.14 4.14 0 0 1 4 4.31 4.08 4.08 0 0 1-1.08 2.87A4.25 4.25 0 0 1 67 44.05a4.15 4.15 0 0 1-2.24-.72V48h-2.23V35.71h.09zm2.24 5.38a2.38 2.38 0 0 0 2 1 2.24 2.24 0 0 0 0-4.49 2.84 2.84 0 0 0-2.06 1v2.51h.09zM74.38 43.96h-2.16V31.94h2.25v12.02h-.09zM84 44h-2.18v-.67a3.63 3.63 0 0 1-2.24.81 4.4 4.4 0 0 1-3.14-1.35 4.52 4.52 0 0 1-1.08-2.87 4.14 4.14 0 0 1 4-4.31 3.76 3.76 0 0 1 2.42.81v-.62H84V44zm-2.24-5.38a2.43 2.43 0 0 0-2.06-1 2.2 2.2 0 0 0-2.15 2.24 2.15 2.15 0 0 0 2.15 2.24 2.65 2.65 0 0 0 2-1v-2.52h.09zM85.95 48l2.24-4.94-3.67-7.35h2.42l2.42 4.93 2.24-4.93h2.34L88.28 48h-2.33zM8.52 0h8.53l-4.22 12.83-4.31 12.74-4.21-12.74L0 0h8.52zM26.2 0h8.52L30.5 12.83l-4.3 12.74-4.22-12.74L17.68 0h8.52zM40.02 12.83V0l10.49 6.37 10.5 6.46-10.5 6.37-10.49 6.37V12.83z"/></svg>
