<?xml version="1.0" encoding="UTF-8" standalone="no"?>
<svg width="200px" height="34px" viewBox="0 0 200 34" version="1.1" xmlns="http://www.w3.org/2000/svg" xmlns:xlink="http://www.w3.org/1999/xlink" xmlns:sketch="http://www.bohemiancoding.com/sketch/ns">
    <!-- Generator: Sketch 3.2.1 (9977) - http://www.bohemiancoding.com/sketch -->
    <title>logo_macxim</title>
    <defs></defs>
    <g id="Page-1" stroke="none" stroke-width="1" fill="none" fill-rule="evenodd" sketch:type="MSPage">
        <g id="logo_macxim" sketch:type="MSLayerGroup" transform="translate(0.000000, -1.000000)">
            <path d="M25.8031088,34.7632462 C25.4231434,34.7632462 25.388601,34.62304 25.388601,34.3776792 L24.9740933,21.794174 C24.9740933,21.794174 19.6891192,26.2457204 17.6856649,27.8580915 C17.4784111,28.0684008 17.3402418,28.1034524 17.2711572,28.1034524 C17.2020725,28.1034524 17.0639033,28.0684008 16.8566494,27.8580915 C14.7150259,26.1055142 10.1899827,21.794174 10.1899827,21.794174 L9.84455959,34.0271637 C9.84455959,34.6580915 9.74093264,34.6931431 9.22279793,34.6931431 L0.483592401,34.6931431 C0,34.6931431 0,34.5879885 0,34.0622153 C0.103626943,24.42304 0.587219344,11.5591225 1.10535406,1.84984413 C1.10535406,1.49932867 1.13989637,1.42922558 1.24352332,1.35912248 C1.34715026,1.25396784 1.48531952,1.32407094 1.76165803,1.49932867 C7.11571675,5.4601534 15.3367876,12.5405658 17.582038,14.5735555 C19.9309154,12.5405658 28.462867,5.28489567 33.955095,1.25396784 C34.1968912,1.04365857 34.3696028,0.973555473 34.4732297,1.00860702 C34.5768566,1.04365857 34.611399,1.1488132 34.611399,1.49932867 C35.3713299,14.1879885 35.716753,22.3900503 36.0967185,34.0622153 C36.0276339,34.4477823 36.0967185,34.7632462 35.716753,34.7632462 L25.8031088,34.7632462 L25.8031088,34.7632462 Z" id="Shape" fill="#000000" sketch:type="MSShapeGroup"></path>
            <path d="M75.182942,34.7546392 L63.8974794,34.7546392 C63.6536577,34.7546392 63.4098359,34.719294 63.2356777,34.3658423 C62.6435392,33.0580709 62.1907275,31.8916803 61.5985889,30.6545992 L50.38279,30.6545992 C49.7558197,32.0330609 49.4075029,33.0580709 48.8501962,34.2244616 C48.6063744,34.6486037 48.571543,34.7546392 47.8749095,34.7546392 L38.0175458,34.7546392 C37.6343972,34.7546392 37.5299022,34.5425681 37.8085558,34.0830809 C43.6254453,23.4441842 50.1041364,10.7552675 55.1547292,1.2474162 C55.2592242,1.03534517 55.7816995,1 56.3041744,1 C56.896313,1 57.4536197,1 57.5581147,1.21207103 C63.1311827,11.5682064 69.4008839,23.3734938 75.3571002,34.0830809 C75.7054169,34.7546392 75.7054169,34.7546392 75.182942,34.7546392 L75.182942,34.7546392 L75.182942,34.7546392 Z M56.791818,18.4605149 C56.373838,17.4355049 56.0255212,16.5165305 56.0255212,16.5165305 C56.0255212,16.5165305 55.6772045,17.4355049 55.2592242,18.4605149 C54.3884325,20.5458801 53.0996604,23.4441842 53.0996604,23.4441842 L58.9165503,23.4441842 C58.9165503,23.4441842 57.7322732,20.5105349 56.791818,18.4605149 L56.791818,18.4605149 L56.791818,18.4605149 Z" id="Shape" fill="#000000" sketch:type="MSShapeGroup"></path>
            <path d="M157.461554,34.7539975 L146.612002,34.7539975 C146.11399,34.7539975 146.11399,34.7900942 146.11399,34.3208368 L146.11399,1.43672574 C146.11399,0.93137167 146.11399,1.00356511 146.612002,1.00356511 L157.461554,1.00356511 C157.888422,1.00356511 157.959566,1.03966183 157.959566,1.43672574 L157.959566,34.3208368 C157.959566,34.7179007 157.888422,34.7539975 157.461554,34.7539975 L157.461554,34.7539975 L157.461554,34.7539975 Z" id="Shape" fill="#000000" sketch:type="MSShapeGroup"></path>
            <path d="M199.447323,34.7632462 L189.533679,34.7632462 C189.153713,34.7632462 189.119171,34.62304 189.119171,34.3776792 L188.704663,21.794174 C188.704663,21.794174 183.419689,26.2457204 181.416235,27.8580915 C181.208981,28.0684008 181.070812,28.1034524 181.001727,28.1034524 C180.8981,28.1034524 180.794473,28.0684008 180.587219,27.8580915 C178.445596,26.1055142 173.920553,21.794174 173.920553,21.794174 L173.57513,34.0271637 C173.57513,34.6580915 173.471503,34.6931431 172.953368,34.6931431 L164.214162,34.6931431 C163.73057,34.6931431 163.73057,34.5879885 163.73057,34.0622153 C163.834197,24.42304 164.317789,11.5591225 164.835924,1.84984413 C164.835924,1.49932867 164.870466,1.42922558 164.974093,1.35912248 C165.07772,1.25396784 165.215889,1.32407094 165.492228,1.49932867 C170.846287,5.4601534 179.067358,12.5405658 181.312608,14.5735555 C183.661485,12.5405658 192.193437,5.28489567 197.685665,1.25396784 C197.927461,1.04365857 198.100173,0.973555473 198.2038,1.00860702 C198.307427,1.04365857 198.341969,1.1488132 198.341969,1.49932867 C199.1019,14.1879885 199.447323,22.3900503 199.827288,34.0622153 C199.758204,34.4477823 199.827288,34.7632462 199.447323,34.7632462 L199.447323,34.7632462 L199.447323,34.7632462 Z" id="Shape" fill="#000000" sketch:type="MSShapeGroup"></path>
            <path d="M143.928291,33.8374806 C140.198495,28.5748328 131.921902,17.2204899 131.921902,17.2204899 C131.921902,17.2204899 138.742099,7.38005934 142.258763,2.08136599 C142.507416,1.79300173 143.004722,1.03604553 142.152198,1.03604553 L131.708771,1.03604553 C131.211465,1.03604553 131.104899,1.28836426 130.962811,1.46859193 C129.968199,3.19877751 128.44076,5.68591929 127.446147,7.3440138 L129.115675,13.3636178 L126.380492,9.11024493 C126.380492,9.11024493 123.29009,4.42432564 121.58504,1.90113833 C121.1943,1.28836426 120.910125,1 120.412819,1 L108.939258,1 C108.299865,1 108.441952,1.4325464 108.58404,1.6488196 C111.958616,6.44287549 120.022079,17.5088541 120.022079,17.5088541 C120.022079,17.5088541 113.308447,27.4213757 108.903736,33.9456172 C108.761649,34.0897994 108.370908,34.7386189 108.939258,34.7386189 C113.024272,34.7746645 115.759455,34.7386189 119.595816,34.7386189 C119.986557,34.7386189 120.377297,34.1979359 120.661472,33.729344 C122.579653,30.8817469 125.705576,25.5830535 125.705576,25.5830535 C125.705576,25.5830535 129.22224,30.953838 131.460117,34.1979359 C131.602205,34.4502547 131.850858,34.7386189 132.206077,34.7386189 L143.644116,34.7386189 C144.709771,34.7746645 144.141422,34.1258449 143.928291,33.8374806 L143.928291,33.8374806 L143.928291,33.8374806 Z" id="Shape" fill="#E86100" sketch:type="MSShapeGroup"></path>
            <path d="M97.7256649,20.7522137 C97.3578864,20.6507468 97.3244518,20.7522137 97.1572798,21.0904366 C96.2211157,22.7815507 94.6496978,24.1344421 91.908075,24.1344421 C88.1299851,24.1344421 85.6224035,21.6992376 85.6224035,17.9787865 C85.6224035,14.2583352 87.7956411,11.6878417 91.7743375,11.6878417 C94.7165668,11.6878417 96.2545503,12.9054439 97.2241485,14.7656695 C97.3244518,14.9686032 97.3578864,15.1377146 97.6253617,15.0362478 L106.619222,11.721664 C106.853263,11.6201971 107.020435,11.484908 106.853263,10.9437514 C104.780328,5.63365288 99.8320335,1 91.8077717,1 C82.3792642,1 75.9264204,7.39241161 74.9568221,15.7465157 C75.1908632,16.0847385 75.3246007,16.2876723 75.3246007,16.2876723 L77.8990515,20.2787017 L80.540371,23.8638638 C80.540371,23.8638638 84.6528052,29.4783629 88.263723,34.4502386 C89.3670587,34.6193501 90.4703948,34.7546392 91.6740342,34.7546392 C99.5311237,34.7546392 104.813763,29.613652 107.120738,24.2020867 C107.28791,23.8976861 107.221041,23.6271078 106.719525,23.5594632 L97.7256649,20.7522137 L97.7256649,20.7522137 Z" id="Shape" fill="#000000" sketch:type="MSShapeGroup"></path>
        </g>
    </g>
</svg>