<svg width="200px" height="34px" viewBox="0 0 200 34" xmlns="http://www.w3.org/2000/svg"><style>.st0{fill:#E86100;}</style><title>logo_macxim</title><g><g id="logo_macxim"><path  d="M25.8 33.8c-.4 0-.4-.1-.4-.4L25 20.8s-5.3 4.5-7.3 6.1c-.2.2-.3.2-.4.2-.1 0-.2 0-.4-.2-2.1-1.8-6.7-6.1-6.7-6.1L9.8 33c0 .6-.1.7-.6.7H.5c-.5 0-.5-.1-.5-.6C.1 23.5.6 10.6 1.1.9c0-.4 0-.4.1-.5.1-.1.2 0 .5.1 5.4 4 13.6 11 15.8 13.1 2.3-2 10.9-9.3 16.4-13.3.3-.3.5-.3.6-.3s.1.1.1.5c.8 12.7 1.1 20.9 1.5 32.6-.1.4 0 .7-.4.7h-9.9z"/><path  d="M75.2 33.8H63.9c-.2 0-.5 0-.7-.4-.6-1.3-1-2.5-1.6-3.7H50.4c-.6 1.4-1 2.4-1.5 3.6-.2.4-.3.5-1 .5H38c-.4 0-.5-.2-.2-.7C43.6 22.5 50.1 9.8 55.1.3c.2-.3.7-.3 1.2-.3.6 0 1.1 0 1.3.2 5.6 10.4 11.8 22.2 17.8 32.9.3.7.3.7-.2.7zM56.8 17.5c-.4-1-.8-1.9-.8-1.9s-.3.9-.8 1.9c-.9 2.1-2.2 5-2.2 5h5.8c.1-.1-1.1-3-2-5z"/><path  d="M153.5 33.8h-10.8c-.5 0-.5 0-.5-.4V.4c0-.5 0-.4.5-.4h10.8c.4 0 .5 0 .5.4v32.9c0 .4-.1.5-.5.5z"/><path  d="M195.4 33.8h-9.9c-.4 0-.4-.1-.4-.4l-.4-12.6s-5.3 4.5-7.3 6.1c-.2.2-.3.2-.4.2-.1 0-.2 0-.4-.2-2.1-1.8-6.7-6.1-6.7-6.1l-.3 12.2c0 .6-.1.7-.6.7h-8.7c-.5 0-.5-.1-.5-.6.1-9.6.6-22.5 1.1-32.2 0-.4 0-.4.1-.5.1-.1.2 0 .5.1 5.4 4 13.6 11 15.8 13.1 2.3-2 10.9-9.3 16.4-13.3.2-.2.4-.3.5-.2.1 0 .1.1.1.5.8 12.7 1.1 20.9 1.5 32.6 0 .2 0 .6-.4.6z"/><path  class="st0" d="M139.9 32.8c-3.7-5.3-12-16.6-12-16.6s6.8-9.8 10.3-15.1c.2-.3.7-1-.1-1h-10.4c-.5 0-.6.3-.7.4-1 1.7-2.5 4.2-3.5 5.9l1.7 6-2.7-4.3s-3.1-4.7-4.8-7.2c-.4-.6-.7-.9-1.2-.9H105c-.6 0-.5.4-.4.6C108 5.4 116 16.5 116 16.5l-11.1 16.4c-.1.1-.5.8 0 .8h10.7c.4 0 .8-.5 1.1-1 1.9-2.8 5-8.1 5-8.1s3.5 5.4 5.8 8.6c.1.3.4.5.7.5h11.4c1.1.1.5-.6.3-.9z"/><path d="M102.7 22.6l-9-2.8c-.4-.1-.4 0-.6.3-.9 1.7-2.5 3-5.2 3-3.8 0-6.3-2.4-6.3-6.2 0-3.7 2.2-6.3 6.2-6.3 2.9 0 4.5 1.2 5.4 3.1.1.2.1.4.4.3l9-3.3c.2-.1.4-.2.2-.8-2.1-5.3-7-9.9-15-9.9C80.1 0 74.4 4.3 72 10.4c4 7.5 8.3 15.4 12.3 22.7.1.2.2.3.2.4 1 .1 2 .3 3.1.3 7.9 0 13.1-5.1 15.4-10.6.3-.3.2-.6-.3-.6z"/></g></g></svg>
