<!DOCTYPE svg PUBLIC "-//W3C//DTD SVG 1.1//EN" "http://www.w3.org/Graphics/SVG/1.1/DTD/svg11.dtd" [
	<!ENTITY ns_flows "http://ns.adobe.com/Flows/1.0/">
]><svg xmlns="http://www.w3.org/2000/svg" xmlns:xlink="http://www.w3.org/1999/xlink" width="190" height="93" viewBox="22.874 27.166 190 93"><path fill="#2964A9" d="M198.94 101.277c0 1.11.808 1.812 1.897 1.812 1.133 0 1.89-.833 1.89-1.813v-6.43l6.54 7.06c.705.757 1.187 1.183 1.918 1.183 1.035 0 1.97-.555 1.97-1.738 0-.756-.453-1.31-1.058-1.914l-5.836-6.078 4.775-4.69c.832-.833 1.238-1.36 1.238-2.015 0-1.084-.914-1.812-1.868-1.812-.713 0-1.188.398-1.47.703l-6.21 6.605v-5.44c0-1.164-.807-1.867-1.89-1.867-1.138 0-1.897.832-1.897 1.867l.003 14.567zm-17.428-.154c0 1.264.807 1.967 1.89 1.967 1.09 0 1.897-.703 1.897-1.967v-9.398h.046l8.004 10.535c.35.453 1.11.83 1.59.83 1.084 0 1.896-.703 1.896-1.965v-14.32c0-1.26-.812-1.96-1.896-1.96s-1.895.702-1.895 1.96v9.53h-.05l-8.003-10.66c-.324-.454-1.11-.833-1.59-.833-1.085 0-1.89.703-1.89 1.96v14.32zm-5.897 0c0 1.264.807 1.967 1.896 1.967 1.083 0 1.89-.703 1.89-1.967v-14.32c0-1.258-.807-1.96-1.89-1.96-1.09 0-1.895.702-1.895 1.96v14.32zM165.38 88.47h2.6c1.39 0 2.35.78 2.35 2.22 0 1.412-.96 2.242-2.35 2.242h-2.6V88.47zm-3.786 12.653c0 1.264.806 1.967 1.89 1.967 1.09 0 1.896-.703 1.896-1.967v-5.47h.053l5.603 6.78c.406.48 1.01.656 1.464.656 1.115 0 1.895-.954 1.895-1.942 0-.35-.148-.73-.5-1.107l-4.293-4.59c2.574-.4 4.668-1.987 4.668-4.76 0-3.964-2.4-5.7-6.286-5.7h-4.442c-1.267 0-1.943.756-1.943 1.967v14.166h-.006zm-13.04-12.654h2.294c3.488 0 5.004 2.34 5.004 5.573 0 3.02-1.49 5.416-4.748 5.416h-2.55V88.47zm-3.786 12.577c0 1.44 1.158 1.893 1.99 1.893h4.395c5.2 0 8.636-3.428 8.636-8.72 0-5.6-3.232-9.23-8.886-9.23h-4.192c-1.136 0-1.94.783-1.94 1.94v14.116h-.004z"/><path fill="#002565" d="M131.064 88.47h2.297c3.487 0 5.004 2.34 5.004 5.573 0 3.02-1.49 5.418-4.748 5.418h-2.552V88.47zm-3.784 12.58c0 1.438 1.157 1.892 1.99 1.892h4.394c5.202 0 8.633-3.428 8.633-8.723 0-5.6-3.23-9.23-8.883-9.23h-4.19c-1.138 0-1.943.783-1.943 1.94v14.12zm-10.237 2.196c5.174 0 8.688-4.064 8.688-9.28 0-5.122-3.615-9.28-8.687-9.28-5.152 0-8.688 4.037-8.688 9.28 0 5.216 3.562 9.28 8.688 9.28m0-3.482c-3.203 0-4.746-2.725-4.746-5.8 0-3.052 1.592-5.796 4.746-5.796 3.155 0 4.747 2.744 4.747 5.797 0 3.074-1.538 5.8-4.747 5.8m-18.213 3.48c5.173 0 8.688-4.063 8.688-9.28 0-5.12-3.615-9.28-8.688-9.28-5.153 0-8.688 4.038-8.688 9.28 0 5.217 3.562 9.28 8.688 9.28m0-3.48c-3.21 0-4.747-2.726-4.747-5.8 0-3.053 1.59-5.797 4.747-5.797 3.155 0 4.746 2.744 4.746 5.797 0 3.074-1.544 5.8-4.746 5.8m-19.175 1.358c0 1.264.81 1.967 1.896 1.967 1.084 0 1.89-.703 1.89-1.967v-5.49h3.914c1.212 0 1.822-.887 1.822-1.77 0-.854-.61-1.713-1.822-1.713H83.44v-3.682h4.647c1.136 0 1.69-.883 1.69-1.742 0-.88-.575-1.736-1.69-1.736h-6.46c-1.26 0-1.972.932-1.972 1.967v14.166zM207.53 114.674h3.297c.433 0 .735-.223.735-.705 0-.48-.303-.698-.735-.698h-3.297v-3.984h3.626c.425 0 .732-.225.732-.705s-.31-.697-.732-.697h-4.332c-.564 0-.802.36-.802.82v10.537c0 .46.237.818.802.818h4.332c.425 0 .732-.224.732-.704s-.31-.697-.732-.697h-3.626v-3.986zm-24.485-5.488h2.157c1.884 0 2.562 1.33 2.562 2.527 0 1.39-1.008 2.5-2.494 2.5h-2.223v-5.027h-.002zm0 6.326h2.326c2.224 0 3.9-1.674 3.9-3.8 0-2.122-1.507-3.827-3.947-3.827h-2.976c-.565 0-.81.36-.81.82v10.65c0 .498.292.81.753.81s.754-.312.754-.81v-3.843zm-29.305-1.543c0 3.165 1.863 6.194 5.338 6.194s5.333-3.03 5.333-6.195c0-3.165-1.857-6.19-5.332-6.19-3.474.003-5.338 3.025-5.338 6.19m1.61 0c0-2.327.99-4.888 3.73-4.888 2.73 0 3.728 2.56 3.728 4.887 0 2.327-.996 4.895-3.73 4.895-2.738 0-3.728-2.568-3.728-4.896m-24.125-4.784h2.02c1.405 0 2.29.955 2.29 2.082 0 1.572-.687 2.242-2.26 2.242h-2.053v-4.324h.003zm0 5.537l4.65 5.096c.178.187.38.347.69.347.375 0 .686-.262.686-.584 0-.273-.085-.46-.292-.688l-3.88-4.256.648-.02c1.812-.067 3.318-.99 3.318-3.456 0-1.98-1.816-3.28-3.73-3.28h-2.787c-.566 0-.803.36-.803.82v10.65c0 .5.29.81.754.81s.746-.31.746-.81v-4.63zm-28.535.517c0 4.1 2.636 4.924 4.725 4.924 2.083 0 4.72-.824 4.72-4.924v-6.658c0-.49-.293-.8-.754-.8s-.753.31-.753.8v7.234c0 1.918-1.3 3.05-3.212 3.05-1.92 0-3.22-1.132-3.22-3.05v-7.234c0-.49-.29-.8-.752-.8-.46 0-.753.31-.753.8v6.658zM81 114.674H84.3c.43 0 .734-.223.734-.705 0-.48-.303-.698-.734-.698H81v-3.984h3.626c.425 0 .735-.225.735-.705s-.31-.697-.734-.697h-4.33c-.566 0-.802.36-.802.82v10.537c0 .46.236.818.8.818h4.332c.425 0 .735-.224.735-.704s-.31-.697-.734-.697H81v-3.986z"/><path fill="#FFF" d="M211.184 103.195c-.795 0-1.31-.482-1.99-1.22l-6.36-6.856v6.157c0 1.096-.86 1.92-1.995 1.92-1.183 0-2.005-.787-2.005-1.92V86.71c0-1.147.842-1.976 2.004-1.976 1.194 0 1.995.79 1.995 1.975v5.175l6.027-6.41c.45-.492.97-.738 1.546-.738.946 0 1.974.734 1.974 1.92 0 .697-.43 1.254-1.27 2.094l-4.696 4.616 5.76 5.996c.55.555 1.087 1.162 1.087 1.992 0 1.357-1.118 1.84-2.08 1.84zm-8.564-8.617l6.724 7.258c.744.793 1.185 1.146 1.84 1.146.863 0 1.865-.426 1.865-1.63 0-.685-.38-1.19-1.032-1.84l-5.9-6.155 4.846-4.764c.797-.795 1.205-1.32 1.205-1.94 0-1.067-.9-1.712-1.762-1.712-.517 0-.98.23-1.386.675l-6.4 6.8v-5.708c0-1.055-.717-1.766-1.783-1.766-1.038 0-1.79.743-1.79 1.767v14.57c0 1.023.717 1.705 1.79 1.705 1.02 0 1.782-.732 1.782-1.705l-.002-6.7zm-7.68 8.617c-.528 0-1.313-.406-1.673-.867l-7.862-10.357v9.153c0 1.262-.788 2.072-2.003 2.072s-1.997-.81-1.997-2.072v-14.32c0-1.256.782-2.068 1.997-2.068.496 0 1.314.375 1.676.873l7.867 10.48v-9.285c0-1.256.78-2.068 1.995-2.068 1.216 0 2.004.812 2.004 2.068v14.32c0 1.262-.788 2.072-2.004 2.072zm-9.748-11.578h.155l.082.04 8.003 10.538c.324.41 1.04.787 1.507.787 1.084 0 1.79-.73 1.79-1.86v-14.32c0-1.124-.706-1.86-1.79-1.86-1.083 0-1.788.736-1.788 1.86v9.64h-.158l-.083-.045-8.002-10.662c-.324-.443-1.07-.79-1.507-.79-1.083 0-1.79.733-1.79 1.86v14.32c0 1.13.707 1.86 1.79 1.86 1.09 0 1.79-.73 1.79-1.86l.002-9.508zm-7.68 11.578c-1.215 0-2.004-.81-2.004-2.072v-14.32c0-1.256.79-2.068 2.004-2.068s1.996.812 1.996 2.068v14.32c.002 1.262-.78 2.072-1.996 2.072zm0-18.254c-1.09 0-1.79.737-1.79 1.862v14.32c0 1.13.7 1.86 1.79 1.86 1.084 0 1.783-.73 1.783-1.86v-14.32c0-1.124-.7-1.86-1.783-1.86zm-5.015 18.255c-.463 0-1.114-.18-1.544-.688l-5.468-6.62v5.235c0 1.262-.788 2.072-2.002 2.072-1.212 0-1.997-.81-1.997-2.072V86.957c0-1.297.768-2.074 2.05-2.074h4.442c4.183 0 6.39 2.012 6.39 5.807 0 2.486-1.74 4.324-4.563 4.838l4.162 4.443c.354.38.53.774.53 1.18 0 .987-.765 2.045-2 2.045zm-7.226-7.65h.16l.083.04 5.6 6.782c.385.453.97.615 1.384.615 1.108 0 1.788-.947 1.788-1.834 0-.348-.158-.695-.48-1.037l-4.425-4.733.2-.03c2.867-.45 4.583-2.19 4.583-4.657 0-3.71-2.083-5.594-6.185-5.594h-4.442c-1.17 0-1.837.68-1.837 1.86v14.167c0 1.13.698 1.86 1.782 1.86 1.09 0 1.79-.73 1.79-1.86v-5.578zm-14.118 7.504h-4.395c-.776 0-2.097-.425-2.097-2V86.93c0-1.205.843-2.047 2.05-2.047h4.19c5.546 0 8.993 3.58 8.993 9.336.002 5.36-3.428 8.83-8.74 8.83zm-4.44-17.954c-1.08 0-1.838.756-1.838 1.834v14.12c0 1.317 1.017 1.786 1.884 1.786h4.395c5.18 0 8.527-3.385 8.527-8.615 0-5.714-3.277-9.122-8.777-9.122h-4.19v-.002zm4.392 14.47h-2.658v-11.2h2.402c3.244 0 5.104 2.065 5.104 5.677 0 3.457-1.81 5.523-4.848 5.523zm-2.445-.21h2.444c2.9 0 4.64-1.985 4.64-5.313 0-2.04-.634-5.47-4.896-5.47h-2.188v10.782zm19.32-6.32h-2.708v-4.67h2.707c1.515 0 2.456.888 2.456 2.323 0 1.42-.967 2.347-2.457 2.347zm-2.495-.208h2.493c1.383 0 2.244-.822 2.244-2.14 0-1.323-.84-2.114-2.244-2.114h-2.493v4.254zM117.043 103.348c-5.093 0-8.787-3.945-8.787-9.383s3.694-9.385 8.787-9.385c5.012 0 8.787 4.037 8.787 9.385 0 5.437-3.695 9.383-8.787 9.383zm0-18.555c-4.972 0-8.58 3.86-8.58 9.172s3.608 9.174 8.58 9.174c4.975 0 8.58-3.862 8.58-9.175 0-5.227-3.69-9.172-8.58-9.172zM98.83 103.348c-5.092 0-8.79-3.945-8.79-9.383s3.698-9.385 8.79-9.385c5.01 0 8.788 4.037 8.788 9.385 0 5.437-3.696 9.383-8.788 9.383zm0-18.555c-4.975 0-8.58 3.86-8.58 9.172s3.605 9.174 8.58 9.174c4.97 0 8.58-3.862 8.58-9.175 0-5.227-3.692-9.172-8.58-9.172zm-17.28 18.402c-1.214 0-2-.81-2-2.072V86.957c0-1.03.716-2.074 2.076-2.074h6.46c1.184 0 1.8.928 1.8 1.844 0 .918-.616 1.848-1.8 1.848h-4.54v3.47h3.808c1.324 0 1.93.944 1.93 1.82 0 .9-.606 1.868-1.93 1.868h-3.807v5.39c0 1.262-.78 2.072-1.996 2.072zm.076-18.1c-1.28 0-1.864.964-1.864 1.862v14.166c0 1.13.702 1.86 1.79 1.86 1.083 0 1.79-.73 1.79-1.86v-5.598h4.012c1.18 0 1.715-.86 1.715-1.662 0-.77-.535-1.605-1.716-1.605H83.34v-3.893h4.747c1.093 0 1.585-.848 1.585-1.64 0-.782-.492-1.63-1.585-1.63h-6.46zm52.038 17.954h-4.393c-.775 0-2.097-.425-2.097-2V86.93c0-1.205.842-2.047 2.05-2.047h4.19c5.544 0 8.99 3.58 8.99 9.336.002 5.36-3.428 8.83-8.74 8.83zm-4.44-17.954c-1.08 0-1.837.756-1.837 1.834v14.12c0 1.317 1.018 1.786 1.883 1.786h4.394c5.18 0 8.527-3.385 8.527-8.617 0-5.714-3.277-9.124-8.775-9.124h-4.192zm-12.18 14.775c-3.58 0-4.854-3.183-4.854-5.905 0-2.94 1.5-5.904 4.853-5.904 3.354 0 4.854 2.966 4.854 5.905 0 2.723-1.274 5.906-4.854 5.906zm0-11.597c-3.204 0-4.64 2.857-4.64 5.69 0 2.624 1.215 5.69 4.64 5.69s4.64-3.064 4.64-5.69c0-2.832-1.432-5.69-4.64-5.69zM98.83 99.87c-3.584 0-4.853-3.183-4.853-5.905 0-2.94 1.5-5.904 4.853-5.904s4.853 2.966 4.853 5.905c0 2.723-1.275 5.906-4.853 5.906zm0-11.597c-3.21 0-4.64 2.857-4.64 5.69 0 2.624 1.216 5.69 4.64 5.69 3.423 0 4.64-3.064 4.64-5.69 0-2.832-1.44-5.69-4.64-5.69zm34.786 11.293h-2.66v-11.2h2.404c3.25 0 5.108 2.065 5.108 5.677.003 3.457-1.815 5.523-4.852 5.523zm-2.444-.21h2.445c2.906 0 4.64-1.987 4.64-5.313 0-2.043-.634-5.47-4.895-5.47h-2.188v10.782h-.002z"/><defs><path id="a" d="M32.432 57.76h-9.558V69.61s0 3.424 3.418 3.424H34.727c3.1 0 3.387 2.8 3.416 3.328V96.694s0 6.84 6.837 6.84H61.84c6.837 0 6.837-6.84 6.837-6.84V79.817c.003-6.843 6.844-6.843 6.844-6.843h4.752L68.688 62.717v.464h-.01v2.977s0 6.838-6.837 6.838h-1.675v.002H41.022c-2.874-.342-2.876-3.39-2.876-3.39v-1.593l-.002-4.983v-1.848s0-3.42-3.42-3.42h-2.293z"/></defs><clipPath id="b"><use xlink:href="#a" overflow="visible"/></clipPath><linearGradient id="c" gradientUnits="userSpaceOnUse" x1="-395.659" y1="-637.197" x2="-394.98" y2="-637.197" gradientTransform="scale(95.527) rotate(44 -986.965 171.648)"><stop offset="0" stop-color="#E6441F"/><stop offset=".005" stop-color="#E6441F"/><stop offset=".225" stop-color="#F29400"/><stop offset=".239" stop-color="#EB9602"/><stop offset=".315" stop-color="#C9A00A"/><stop offset=".396" stop-color="#ADA810"/><stop offset=".484" stop-color="#98AE16"/><stop offset=".58" stop-color="#89B319"/><stop offset=".692" stop-color="#80B51B"/><stop offset=".857" stop-color="#7DB61C"/><stop offset="1" stop-color="#7DB61C"/></linearGradient><path clip-path="url(#b)" fill="url(#c)" d="M50.57 29.08l52.574 50.768-50.57 52.367L0 81.445"/><g><defs><path id="d" d="M104.24 27.166H78.95C68.69 27.166 68.69 37.43 68.69 37.43V63.182h-.01v2.976s0 6.838-6.837 6.838h-1.675l8.512 6.84v-.02c.003-6.842 6.844-6.842 6.844-6.842h28.719c10.256 0 10.256-10.257 10.256-10.257V27.165H104.24z"/></defs><clipPath id="e"><use xlink:href="#d" overflow="visible"/></clipPath><linearGradient id="f" gradientUnits="userSpaceOnUse" x1="-389.392" y1="-636.852" x2="-388.713" y2="-636.852" gradientTransform="rotate(-44.6 53052.857 -72224.42) scale(90.9954)"><stop offset="0" stop-color="#7DB61C"/><stop offset=".022" stop-color="#73B029"/><stop offset=".118" stop-color="#4A975A"/><stop offset=".208" stop-color="#2A8380"/><stop offset=".291" stop-color="#13759C"/><stop offset=".363" stop-color="#056DAD"/><stop offset=".418" stop-color="#006AB3"/><stop offset=".685" stop-color="#00569E"/><stop offset="1" stop-color="#004289"/></linearGradient><path clip-path="url(#e)" fill="url(#f)" d="M33.83 53.135L87.713 0l53.116 53.87L86.952 107"/></g></svg>
