<svg class="brand brand--big" xmlns="http://www.w3.org/2000/svg" width="190" height="50" viewBox="-95 -25 190 50"><g fill="#FFF"><path d="M-24.418-5.88h2.565l5.13 13.23h-2.63l-1.044-2.73h-5.446l-1.075 2.73h-2.63l5.13-13.23zm1.3 3.512l-1.807 4.546h3.58l-1.774-4.546zM-15.266-6.192h2.47V7.38h-2.47V-6.192zM-8.078-2.43v1.064c.443-.438.92-.784 1.457-1.004.505-.22 1.075-.347 1.678-.347 1.3 0 2.375.47 3.293 1.442C-.73-.302-.286.922-.286 2.458c0 1.442-.477 2.664-1.395 3.668C-2.6 7.096-3.707 7.6-5.006 7.6c-.57 0-1.11-.095-1.584-.313-.475-.188-.98-.533-1.455-.97v4.607h-2.472V-2.43h2.44zM-5.48-.425c-.79 0-1.426.25-1.932.784-.508.532-.76 1.222-.76 2.07 0 .877.252 1.566.76 2.1.506.532 1.172.813 1.932.813s1.395-.28 1.9-.812c.506-.533.79-1.254.79-2.1 0-.846-.253-1.537-.76-2.07-.506-.503-1.14-.784-1.93-.784zM1.74-6.192h2.47v4.764c.476-.407.98-.72 1.456-.94.476-.22.98-.313 1.488-.313.98 0 1.805.344 2.47 1.003.57.596.855 1.44.855 2.57v6.458H8.04V3.088c0-1.13-.06-1.913-.157-2.29C7.787.393 7.6.11 7.313-.11c-.252-.19-.602-.284-.98-.284-.508 0-.95.157-1.3.503-.348.344-.602.782-.76 1.346-.062.28-.095.973-.095 2.006V7.38h-2.47V-6.193h.03zM20.2-2.43h2.472v9.78h-2.47V6.313c-.477.472-.98.784-1.456.97-.477.188-1.015.314-1.584.314-1.268 0-2.375-.502-3.326-1.472-.918-.972-1.393-2.194-1.393-3.67 0-1.505.443-2.757 1.36-3.73.888-.97 1.995-1.442 3.294-1.442.602 0 1.14.126 1.68.347.506.22 1.014.563 1.455 1.005V-2.43h-.03zM17.605-.425c-.76 0-1.394.282-1.9.813-.507.533-.76 1.222-.76 2.07 0 .845.253 1.536.76 2.1.507.533 1.142.815 1.9.815.79 0 1.425-.282 1.933-.815.506-.533.76-1.255.76-2.1 0-.846-.254-1.537-.76-2.07-.508-.533-1.173-.814-1.933-.814z"/></g><g fill="#FFF"><path d="M25.553-5.88h2.66c1.52 0 2.563.062 3.104.188.76.187 1.393.563 1.868 1.16.476.563.73 1.315.73 2.195 0 .878-.224 1.6-.698 2.195-.476.564-1.108.97-1.963 1.16-.603.157-1.742.22-3.39.22h-.95V7.38h-1.33V-5.88h-.03zm1.33 1.317V-.08l2.248.03c.92 0 1.585-.094 1.995-.25.412-.157.76-.438 1.015-.783.253-.376.348-.784.348-1.223 0-.438-.126-.846-.348-1.222-.255-.375-.57-.626-.95-.783-.412-.157-1.045-.222-1.963-.222h-2.344v-.03zM46.23-2.43v9.78h-1.268V5.656c-.537.628-1.14 1.13-1.805 1.44-.664.314-1.394.472-2.186.472-1.392 0-2.595-.502-3.577-1.506-.98-1.003-1.488-2.226-1.488-3.668 0-1.41.508-2.6 1.488-3.604 1.014-1.004 2.217-1.506 3.61-1.506.823 0 1.552.157 2.216.503.665.345 1.235.844 1.74 1.535V-2.43h1.27zm-5.097.97c-.697 0-1.36.187-1.965.502-.602.345-1.076.814-1.424 1.44-.35.628-.54 1.287-.54 1.976 0 .69.19 1.35.54 1.975.348.628.822 1.13 1.424 1.472.604.347 1.235.533 1.934.533.695 0 1.36-.187 1.963-.533.633-.345 1.107-.813 1.425-1.41.35-.597.507-1.255.507-2.006 0-1.13-.38-2.072-1.14-2.855-.697-.718-1.616-1.095-2.724-1.095zM48.606-2.43h1.298v1.44c.38-.563.792-.97 1.234-1.255.443-.282.887-.406 1.33-.406.35 0 .73.124 1.14.343l-.664 1.067c-.254-.125-.476-.156-.665-.156-.413 0-.823.188-1.235.5-.38.347-.696.88-.887 1.6-.158.565-.22 1.69-.22 3.385v3.323h-1.3V-2.43h-.032zM55.795-6.067h1.267v3.637h2.026v1.097h-2.026V7.35h-1.267v-8.683h-1.742V-2.43h1.742v-3.637zM60.987-2.43h1.27v1.753c.505-.658 1.075-1.16 1.677-1.506.634-.345 1.3-.502 2.027-.502s1.395.188 1.964.563c.57.376.98.878 1.267 1.506.287.627.413 1.597.413 2.947V7.38h-1.27v-4.7c0-1.128-.03-1.878-.124-2.255-.16-.66-.444-1.13-.856-1.472-.41-.312-.95-.5-1.646-.5-.76 0-1.455.25-2.058.75S62.635.33 62.446 1.08c-.126.472-.19 1.38-.19 2.666V7.32H60.99l-.003-9.75zM80.652 4.122l1.077.564c-.35.69-.762 1.222-1.205 1.663-.475.406-.98.75-1.55.97-.572.22-1.236.312-1.965.312-1.614 0-2.88-.533-3.77-1.566-.917-1.035-1.36-2.227-1.36-3.543 0-1.254.38-2.35 1.14-3.32.982-1.224 2.28-1.85 3.928-1.85 1.68 0 3.04.626 4.055 1.912.728.91 1.076 2.007 1.076 3.356h-8.932c.03 1.13.38 2.07 1.108 2.79.695.722 1.582 1.096 2.627 1.096.508 0 .98-.095 1.457-.25.476-.187.887-.407 1.203-.69.35-.348.73-.818 1.11-1.444zm0-2.635c-.158-.657-.41-1.222-.73-1.597-.315-.408-.76-.722-1.298-.972-.537-.25-1.107-.375-1.678-.375-.982 0-1.806.31-2.502.94-.507.437-.887 1.128-1.14 2.038h7.347l.002-.033zM83.946-2.43h1.298v1.44c.38-.563.793-.97 1.235-1.255.44-.284.885-.406 1.33-.406.347 0 .727.124 1.14.343l-.666 1.067c-.253-.125-.475-.156-.665-.156-.41 0-.823.188-1.235.5-.38.347-.696.88-.887 1.6-.158.564-.222 1.692-.222 3.386v3.323h-1.298V-2.43h-.032zM94.998-1.364l-.822.846c-.666-.658-1.33-.97-1.995-.97-.41 0-.76.125-1.076.407-.285.282-.443.596-.443.94 0 .31.128.627.382.91.254.28.76.626 1.52 1.034.95.47 1.584.94 1.934 1.41.346.47.504.97.504 1.534 0 .815-.285 1.473-.854 2.04-.57.562-1.298.844-2.153.844-.57 0-1.107-.125-1.646-.376-.507-.25-.95-.596-1.298-1.003l.79-.908c.664.722 1.33 1.095 2.06 1.095.506 0 .95-.155 1.297-.47.35-.313.54-.69.54-1.13 0-.345-.128-.688-.35-.97-.223-.28-.76-.627-1.615-1.035-.887-.47-1.488-.91-1.837-1.348-.315-.438-.476-.94-.476-1.506 0-.752.253-1.346.76-1.848s1.172-.754 1.932-.754c1.01-.06 1.928.38 2.846 1.258z"/></g><path fill="#29C5DE" d="M-67.263 12.116c-5.384 0-9.754-4.326-9.754-9.657 0-5.33 4.37-9.655 9.754-9.655 5.384 0 9.753 4.324 9.753 9.654s-4.37 9.656-9.753 9.656M-40.41-2.838h-5.73c-.507-2.038-1.33-3.98-2.406-5.737l4.053-4.012c.35-.346.35-.878 0-1.223l-6.334-6.27c-.348-.345-.887-.345-1.233 0l-4.054 4.014c-1.773-1.065-3.736-1.85-5.795-2.38v-5.708c0-.472-.38-.846-.854-.846h-8.993c-.475 0-.854.376-.854.846v5.67c-2.06.535-4.022 1.32-5.796 2.384l-4.084-4.013c-.35-.345-.887-.345-1.235 0l-6.334 6.27c-.348.346-.348.878 0 1.223l4.055 4.013C-87.08-6.852-87.903-4.91-88.41-2.87h-5.73c-.48 0-.86.376-.86.847V6.85c0 .47.38.845.855.845h5.73c.54 2.04 1.33 3.98 2.406 5.737l-4.053 4.014c-.35.346-.35.877 0 1.222l6.334 6.27c.03.032.03.032.064.063 3.166-6.676 6.017-9.498 10.606-12.066 2.756 1.63 5.765 1.442 5.765 1.442 2.944 0 4.053-.534 5.764-1.442 4.59 2.57 7.44 5.39 10.606 12.067l.063-.06 6.332-6.272c.35-.347.35-.88 0-1.222l-4.055-4.014c1.078-1.755 1.87-3.698 2.408-5.737h5.73c.477 0 .855-.376.855-.846v-8.842c.036-.47-.344-.846-.82-.846"/></svg>
