<svg xmlns="http://www.w3.org/2000/svg" width="110" height="68" viewBox="0 0 110 68"><path fill="#00974E" d="M84.853 21.155c-10.325 2.63-19.512 8.233-19.512 8.233-9.215 5.325-11.905 9.517-11.905 9.517s-2.775-7.987-11.1-9.208c-8.327-1.22-13.298 6.6-13.298 6.6l2.85 6.24s2.922-8.55 11.223-7.184C52.546 36.91 51.77 50 51.77 50s6.27-8.298 15.818-14.01c0 0 9.104-5.714 19.926-8.846l-2.66-5.99z"/><path fill="#C5262C" d="M83.52 1.108C71.986 2.39 59.816 10.04 59.816 10.04c-6.382 3.493-9.435 6.713-9.435 6.713s-5.548-5.66-14.57-6.103c-8.404-.413-15.236 7.322-15.236 7.322L28.25 34.75s4.764-6.95 12.14-6.626c9.95.437 13.322 8.32 13.322 8.32s3.995-4.485 12.155-9.088c0 0 14.223-8.047 24.37-8.604L83.52 1.108z"/><path fill="#231F20" d="M15.895 66.365c-1.604.407-4.315.743-6.113.743-3.118 0-5.18-.623-6.954-2.084C1.03 63.538 0 61.38 0 59.082c0-5.226 3.954-8.724 9.852-8.724 1.992 0 3.98.36 5.755 1.08v4.094c-1.75-.955-3.334-1.39-5.036-1.39-2.827 0-4.842 1.94-4.842 4.65 0 2.61 1.773 4.266 4.555 4.266.288 0 .6 0 .958-.025l.288-.022v-1.915H9.495v-3.478h6.4v8.748zM35.576 58.985c0 3.068-.888 5.176-2.76 6.52-1.582 1.125-3.33 1.604-5.994 1.604-3.907 0-6.687-1.32-7.98-3.74-.576-1.055-.794-2.11-.794-3.76v-9.06h5.732v7.933c0 1.702.192 2.54.672 3.188.5.622 1.34 1.008 2.23 1.008 2.227 0 3.163-1.248 3.163-4.17V50.55h5.732v8.435zM37.802 50.55h12.275V54H43.46v2.924H49.5v3.4H43.46v3.046h6.69v3.522H37.802M57.67 50.536l-4.428 16.32H50.82l4.4-16.32M58.34 50.55h4.914l8.318 8.41-.358-8.41h5.804v16.342h-4.94l-8.318-8.387.36 8.387h-5.78M95.163 66.365c-1.606.407-4.313.743-6.116.743-3.115 0-5.177-.623-6.95-2.084-1.797-1.486-2.83-3.645-2.83-5.942 0-5.226 3.956-8.724 9.855-8.724 1.99 0 3.98.36 5.755 1.08v4.094c-1.75-.955-3.333-1.39-5.036-1.39-2.827 0-4.842 1.94-4.842 4.65 0 2.61 1.774 4.266 4.556 4.266.287 0 .598 0 .96-.025l.288-.022v-1.915H88.76v-3.478h6.403v8.748zM97.846 50.55h5.728v12.243H110v4.1H97.846"/></svg>
