<svg width="200" height="54" viewBox="0 0 200 54" xmlns="http://www.w3.org/2000/svg"><title>logo</title><g fill="#000" fill-rule="evenodd"><g fill-rule="nonzero"><path d="M143.848 21.32c.917-2.237 2.438-4.14 4.362-5.548-6.085-1.812-33.6-.448-33.6-.448l-11.142-.984-2.327-2.036c.09-.268.337-1.275-.066-2.505-.917.222-1.946.446-2.886.446l-.492-1.655s1.185-.134 2.528-.357c-.403-.515-.94-1.007-1.633-1.5-2.706-1.856-4.988.538-6.04 1.992l-.022-.425-2.35-.38.784-7.25-8.412-.2L67.494.09 30.537 13.58c2.125.447 4.05 1.43 5.66 2.796.18.022.358.022.537.022.335 0 .67 0 1.006-.022l.493-.023.492-.044c.335-.024.67-.09.984-.136.335-.044.648-.11.984-.178.335-.068.648-.135.96-.224.315-.09.65-.157.963-.27.314-.088.627-.2.94-.29l.94-.335c.313-.112.604-.246.917-.38.29-.135.604-.246.895-.403l.894-.447c.29-.135.58-.314.872-.47l.873-.492c.29-.157.558-.358.85-.515l.826-.537h.023l.02-.022c2.53-1.386 5.08-2.73 7.652-4.026 1.298-.65 2.595-1.275 3.915-1.88.67-.29 1.342-.58 2.036-.85.358-.134.693-.245 1.096-.357.178-.045.402-.09.603-.135l.358-.044h.18c.626-.224 1.275-.425 1.902-.627.693-.222 1.364-.4 2.058-.625.693-.2 1.387-.38 2.08-.56.694-.178 1.387-.357 2.08-.514.694-.156 1.41-.335 2.104-.47l1.05-.222c.36-.068.717-.135 1.053-.202.358-.067.716-.134 1.074-.18l1.074-.133c.358-.045.716-.067 1.074-.112.358-.02.716-.02 1.096-.044l.023.18-1.03.29-1.028.313-2.037.648-2.036.67-2.013.672-4.117 1.298c-.67.224-1.342.447-2.036.67-.67.225-1.363.45-2.034.65l-.403.045h-.09c-.067 0-.134.022-.18.022-.155.022-.29.045-.446.09-.157.022-.313.067-.47.134-.156.043-.335.088-.492.133-.67.2-1.32.447-1.99.693-1.32.515-2.64 1.074-3.938 1.656-2.618 1.163-5.19 2.416-7.763 3.69l-.85.493c-.29.157-.582.358-.895.515l-.918.47c-.314.156-.604.313-.918.447l-.94.403c-.312.134-.626.246-.96.358-.314.112-.628.246-.963.335l-.96.314c-.337.09-.65.156-.985.246-.336.09-.672.156-.985.223-.335.067-.67.135-1.006.18-.336.044-.672.11-1.007.134-.336.022-.67.067-1.007.09l-.514.02h-.515c-.335 0-.67-.02-1.006-.043-.09 0-.18-.023-.246-.023 1.7 1.522 2.998 3.49 3.714 5.705l12.73-1.478 13.422-1.588c3.2-.693 6.398-1.387 9.597-2.058l4.81-.984c1.612-.314 3.223-.65 4.833-.918.403-.067.806-.134 1.23-.2l.627-.09c.224-.023.425-.045.716-.045.358.02.76-.024 1.163-.024l1.23-.067c1.633-.113 3.266-.18 4.9-.27.827-.044 1.632-.066 2.46-.09.828-.02 1.655-.02 2.46-.02.83 0 1.656.02 2.484.066.425.023.85.067 1.275.112.223.022.447.067.67.112.202.045.425.09.694.2l.358.09.447.135c.29.09.58.18.872.268.58.202 1.14.448 1.722.76.29.158.582.337.85.605.135.134.29.29.403.515.134.2.224.514.2.827-.02.313-.155.582-.29.76-.134.18-.29.314-.447.448-.29.224-.604.38-.895.515l-.313.134-.246-.134c-.045-.022-.18-.09-.268-.112-.09-.02-.18-.044-.27-.044-.066 0-.133 0-.178.023-.045.02-.067.02-.112.066-.044.045-.067.112-.112.2-.022.09-.044.202-.067.314-.023.112-.023.224-.023.358 0 .134 0 .246.022.38.022.27.044.515.11.784.046.268.113.536.18.805.134.537.29 1.074.448 1.61l.022.045c.022.112.022.202.045.314l.022.313c.022.2.022.4.022.603 0 .403-.045.805-.112 1.208-.09.404-.202.806-.403 1.164-.112.18-.246.336-.403.47-.09.067-.156.134-.268.18-.112.044-.18.088-.29.133l-.068-.156c.09-.044.156-.09.224-.134.067-.044.134-.11.2-.18.113-.133.225-.29.292-.446.134-.336.2-.694.223-1.074.023-.358.023-.738-.022-1.118l-.067-.56-.045-.268c-.02-.067-.02-.157-.044-.224-.11-.268-.223-.514-.313-.783-.112-.268-.2-.537-.29-.805-.09-.27-.18-.56-.247-.85-.09-.29-.134-.582-.2-.873-.023-.156-.046-.313-.046-.47-.022-.156-.022-.313 0-.492 0-.18.023-.335.09-.537.044-.18.134-.38.246-.56.134-.178.313-.357.537-.47.223-.11.447-.155.65-.155.2-.022.4 0 .58.045.067.023.134.023.18.045.156-.09.29-.18.402-.268.067-.067.134-.135.156-.18 0 0 0-.022.024-.022l-.023-.022c-.02-.045-.088-.09-.155-.157-.157-.133-.358-.245-.604-.357-.47-.223-.984-.402-1.52-.56-.27-.088-.537-.156-.806-.223l-.403-.09-.4-.09h-.024l-.156-.043c-.045-.023-.224-.067-.38-.09-.18-.022-.358-.045-.56-.067-.38-.022-.783-.045-1.163-.045-.805-.022-1.61-.022-2.416-.022l-2.438.045-2.438.044-4.9.135-1.23.022-.626.02h-.67c-.112 0-.314 0-.493.024-.2.022-.38.045-.58.067-.404.046-.807.113-1.21.157-3.22.47-6.442 1.074-9.64 1.656-3.223.582-6.422 1.208-9.643 1.834H66.4h.045c-2.26.224-4.497.425-6.756.627l-6.756.58-6.756.56-5.973.493c.36 1.208.56 2.483.56 3.78 0 3.155-1.118 6.04-2.997 8.3l104.81 2.17-.74-15.1 2.015-.537zM24.99 13.557h-1.164c-1.768-8.412-7.047-9.195-7.047-9.195L.156 3.782S7.293 23.534 10.67 23.534h4.34c1.097-4.967 5.012-8.904 9.98-9.978zM199.776 33.803l-5.37-.582.493-5.57-6.936-.088c-1.924-.962-17.27-6.13-20.514-7.226.917 1.79 1.454 3.803 1.454 5.95 0 1.052-.134 2.08-.358 3.043l4.07.76-.49 4.697 22.796.493c5.75-.202 4.854-1.477 4.854-1.477z"/><path d="M27.74 14.16c-5.794 0-10.648 4.073-11.834 9.487-.18.85-.29 1.722-.29 2.64 0 6.688 5.435 12.125 12.124 12.125 3.49 0 6.645-1.477 8.86-3.848 2.013-2.17 3.266-5.08 3.266-8.278 0-6.71-5.414-12.125-12.126-12.125zm3.11 17.563c-.917.514-1.97.827-3.087.827-3.333 0-6.04-2.595-6.242-5.86-.02-.135-.02-.27-.02-.38 0-3.446 2.795-6.265 6.263-6.265 3.445 0 6.264 2.796 6.264 6.264-.023 2.303-1.298 4.34-3.177 5.413zM167.606 23.177c-1.387-5.19-6.107-9.016-11.722-9.016-6.69 0-12.126 5.437-12.126 12.126 0 6.69 5.437 12.126 12.126 12.126 6.174 0 11.297-4.63 12.035-10.627.067-.492.09-.984.09-1.5 0-1.072-.158-2.102-.404-3.108zm-10.962 9.373c-3.445 0-6.264-2.796-6.264-6.264 0-3.445 2.797-6.264 6.264-6.264 3.468 0 6.264 2.797 6.264 6.264 0 3.446-2.796 6.264-6.264 6.264z"/></g><text font-family="Helvetica-Bold, Helvetica" font-size="0" font-weight="bold"><tspan x="17" y="51">Created by sai aditya</tspan></text><text font-family="Helvetica-Bold, Helvetica" font-size="0" font-weight="bold"><tspan x="30" y="51">from the Noun Project</tspan></text></g></svg>
