<svg width="250" height="51" viewBox="0 0 250 51" xmlns="http://www.w3.org/2000/svg"><title>Group</title><g fill-rule="nonzero" fill="none"><path fill="#413C32" d="M93.164 14.44h2.404v16.864h-2.404zM55.736 14.46c-1.033 0-2.225.42-2.967 1.054L49.715 18.2c-1.05.94-1.627 2.182-1.627 3.5v2.364c0 1.316.576 2.557 1.62 3.495l3.086 2.694c.748.637 1.908 1.05 2.94 1.05h7.1V28.88h-7.1c-.723 0-1.128-.315-1.486-.592l-3.072-2.663c-.397-.34-.663-.967-.663-1.56v-2.408c0-.586.253-1.167.66-1.516l3.05-2.642c.317-.282.818-.656 1.512-.656h7.1v-2.384h-7.1zM135.193 19.133l-2.68-3.045c-.94-1.05-2.183-1.627-3.498-1.627H121.057v16.845h2.422v-14.42h5.578c.585 0 1.167.255 1.516.66 0 .002 2.64 3.05 2.64 3.05.284.317.66.82.66 1.514v9.195h2.382V22.11c0-1.033-.427-2.23-1.06-2.977zM109.913 14.462c-1.315 0-2.556.577-3.493 1.622l-2.683 3.048c-.636.75-1.063 1.945-1.063 2.978v9.195h2.424V22.11c0-.724.316-1.13.595-1.488.005-.008 2.66-3.07 2.66-3.07.342-.398.97-.665 1.56-.665h4.207v-2.424h-4.207zM84.718 19.133l-2.68-3.045c-.94-1.05-2.183-1.627-3.498-1.627h-1.93c-1.316 0-2.558.578-3.496 1.623l-2.68 3.048c-.64.75-1.065 1.946-1.065 2.98v9.195h2.424v-4.382h11.602v4.382h2.383V22.11c0-1.033-.428-2.23-1.062-2.977zm-12.924 5.234V22.11c0-.725.315-1.13.593-1.49l2.662-3.07c.34-.397.965-.664 1.56-.664h1.97c.587 0 1.167.254 1.516.66l2.643 3.05c.28.316.656.82.656 1.513v2.258H71.794z"/><path d="M35.42 22.18l-4.045-7.004c-.227-.394-.76-.7-1.215-.7l-15.28-.005c-.263 0-.59-.164-.787-.39L11.1 8.913c-.04-.067-.116-.408-.116-.5 0-.183.04-.368.117-.503l2.91-5.04c.154-.27.562-.505.872-.505h5.82c.31 0 .718.236.873.505l2.91 5.038c.155.27.155.74 0 1.01l-1.287 2.317h2.704l1.192-2.12c.228-.394.228-1.01 0-1.404L23.05.708c-.226-.394-.76-.7-1.214-.7L13.746 0c-.454 0-.988.307-1.215.7L8.488 7.706c-.226.393-.226 1.01 0 1.404l7.678 13.267c.077.134.116.318.116.503s-.038.37-.115.506l-2.91 5.038c-.155.27-.563.504-.874.504H6.564c-.31 0-.72-.235-.873-.504l-2.91-5.038c-.155-.268-.155-.74 0-1.01l2.91-5.038c.155-.268.563-.505.873-.505h2.684l-1.374-2.36H5.43c-.454 0-.99.308-1.216.702L.17 22.18c-.226.394-.226 1.01 0 1.403l4.044 7.005c.228.393.762.7 1.215.7h8.087c.454 0 .987-.307 1.214-.7l7.603-13.25c.155-.268.563-.505.873-.505h5.818c.31 0 .72.236.874.505l2.91 5.04c.156.268.156.74 0 1.008l-2.91 5.038c-.154.27-.562.504-.874.504h-5.818c-.31 0-.72-.235-.874-.504l-1.296-2.195-1.35 2.305 1.17 2.052c.228.394.76.7 1.216.7h8.086c.455 0 .988-.307 1.216-.7l4.044-7.005c.228-.392.228-1.008.002-1.402zm-15.257-4.995l-1.925 3.37c-.234.41-.62.41-.857.002l-1.948-3.377c-.237-.41-.044-.744.43-.744l3.867.002c.473 0 .667.336.433.747z" fill="#F07823"/><path d="M175.803 28.197l-3.072-2.662c-.396-.34-.663-.968-.663-1.56v-2.408c0-.586.253-1.167.66-1.516l3.05-2.642c.318-.282.818-.655 1.512-.655h7.1v-2.385h-7.1c-1.032 0-2.226.423-2.968 1.055l-3.052 2.685c-1.048.942-1.627 2.183-1.627 3.5v2.365c0 1.316.577 2.558 1.622 3.494.002 0 3.085 2.697 3.085 2.697.748.637 1.908 1.05 2.94 1.05h7.1V28.79h-7.1c-.724 0-1.13-.315-1.487-.593zm-18.807-.07s-2.656-3.066-2.66-3.073c-.28-.358-.596-.764-.596-1.486V14.37h-2.424v9.197c0 1.032.426 2.228 1.064 2.978l2.682 3.048c.938 1.045 2.18 1.622 3.495 1.622h7.59V28.79h-7.59c-.595 0-1.22-.267-1.56-.664zm85.413.662c-.594 0-1.22-.267-1.562-.664l-2.66-3.072c-.278-.358-.595-.764-.595-1.486V14.37h-2.425v9.197c0 1.032.428 2.228 1.063 2.978l2.685 3.048c.938 1.045 2.178 1.622 3.494 1.622H250V28.79h-7.59zm-17.386-12.792c-.94-1.05-2.183-1.627-3.498-1.627h-1.932c-1.315 0-2.554.578-3.492 1.622l-2.683 3.048c-.638.75-1.066 1.945-1.066 2.98v9.195h2.425v-4.382h11.6v4.382h2.385V22.02c0-1.033-.427-2.23-1.062-2.977l-2.68-3.045zm1.357 8.277h-11.6v-2.257c0-.723.316-1.13.594-1.487l2.66-3.07c.34-.4.967-.665 1.56-.665h1.972c.587 0 1.17.254 1.516.66.002 0 2.644 3.05 2.644 3.05.283.317.656.82.656 1.514v2.255zm-50.47-.284h8.472v-2.425h-8.47v2.426zm26.993 4.8h-4.688c-.723 0-1.128-.315-1.486-.593-.01-.006-3.073-2.662-3.073-2.662-.398-.34-.664-.968-.664-1.56v-2.408c0-.586.254-1.167.66-1.516l3.05-2.642c.317-.282.817-.655 1.512-.655h7.123v-2.385h-7.123c-1.032 0-2.225.423-2.968 1.055l-3.05 2.685c-1.05.942-1.63 2.183-1.63 3.5v2.365c0 1.316.58 2.558 1.624 3.494.003 0 3.086 2.697 3.086 2.697.748.637 1.908 1.05 2.94 1.05h7.11v-8.567h-2.423v6.143zM52.645 50.445h-.46l-.504-1.328h-2.29l-.504 1.328h-.47l1.776-4.66h.692l1.76 4.66zm-1.133-1.754l-.978-2.585-.98 2.586h1.958zM57.256 45.785l-1.572 4.66h-.713l-1.558-4.66h.46l1.455 4.345 1.467-4.345h.462M61.918 49.747l-.58.56c-.103.09-.215.138-.335.138h-1.636c-.135 0-.252-.05-.35-.146l-.573-.58c-.093-.093-.14-.207-.14-.343V46.86c0-.135.05-.25.147-.35l.574-.572c.098-.097.214-.147.35-.147h1.62c.136 0 .253.05.35.148l.574.572c.098.1.147.215.147.35v2.532c-.002.138-.05.26-.147.355zm-.288-2.85c0-.038-.014-.07-.04-.098l-.538-.54c-.028-.028-.06-.044-.097-.044h-1.56c-.038 0-.07.016-.1.043l-.515.532c-.027.026-.042.06-.042.097v2.457c0 .036.015.07.042.097l.53.532c.028.027.06.043.098.043h1.562c.037 0 .07-.017.097-.044l.523-.525c.028-.026.04-.06.04-.096v-2.458zM66.025 50.3c-.097.096-.214.145-.35.145h-1.208c-.135 0-.252-.05-.35-.146l-.586-.595c-.092-.093-.14-.207-.14-.34v-2.492c0-.135.048-.248.14-.342l.588-.592c.097-.097.214-.147.35-.147h1.2c.136 0 .253.05.35.146l.706.7-.307.308-.685-.684c-.028-.027-.06-.043-.098-.043h-1.132c-.037 0-.07.016-.098.043l-.524.546c-.028.028-.042.06-.042.1v2.42c0 .038.014.07.042.098l.53.552c.03.027.06.043.098.043h1.132c.038 0 .07-.017.098-.044l.685-.678.308.3-.705.703zM71.657 50.445h-.46l-.503-1.328H68.4l-.502 1.328h-.468l1.775-4.66h.69l1.762 4.66zm-1.13-1.754l-.98-2.585-.978 2.586h1.956zM75.767 46.217h-1.46v4.228h-.44v-4.228h-1.44v-.426h3.34v.427M80.364 49.704l-.58.593c-.097.1-.213.148-.35.148h-1.62c-.136 0-.25-.05-.35-.144l-.718-.716.307-.313.678.706c.03.027.065.043.106.043h1.56c.036 0 .07-.017.096-.044l.532-.55c.027-.03.042-.062.042-.1v-.677c0-.04-.012-.07-.036-.096-.022-.025-.053-.04-.09-.045l-2.76-.342c-.12-.016-.224-.068-.307-.16-.084-.094-.126-.204-.126-.33v-.82c0-.132.052-.25.154-.354l.602-.575c.102-.092.213-.14.335-.14h1.593c.136 0 .25.047.343.138l.72.715-.3.3-.706-.684c-.028-.028-.06-.044-.098-.044h-1.525c-.037 0-.07.016-.097.043l-.538.523c-.03.027-.042.06-.042.097v.707c0 .037.01.07.035.093.023.025.053.042.09.046l2.76.342c.12.015.224.068.308.16.085.094.127.203.127.33v.803c-.003.128-.05.24-.143.344zM96.167 50.445h-.462l-.503-1.328H92.91l-.503 1.328h-.47l1.776-4.66h.692l1.762 4.66zm-1.132-1.754l-.98-2.585-.977 2.586h1.957zM100.653 49.74l-.552.56c-.097.096-.214.145-.35.145h-2.284V45.79h2.264c.135 0 .25.048.342.14l.573.566c.098.097.147.214.147.348V49.4c0 .134-.046.247-.14.34zm-.287-2.88c0-.036-.014-.068-.042-.097l-.518-.504c-.027-.028-.06-.044-.097-.044h-1.797v3.803h1.803c.037 0 .07-.017.098-.044l.51-.525c.028-.026.042-.06.042-.096V46.86zM105.684 45.785l-1.573 4.66h-.712l-1.56-4.66h.463l1.454 4.345 1.467-4.345h.464M110.345 49.747l-.58.56c-.103.09-.214.138-.336.138h-1.635c-.135 0-.252-.05-.35-.146l-.573-.58c-.093-.093-.14-.207-.14-.343V46.86c0-.135.05-.25.147-.35l.57-.572c.1-.097.216-.147.35-.147h1.623c.135 0 .25.05.35.148l.572.572c.098.1.147.215.147.35v2.532c0 .138-.05.26-.147.355zm-.287-2.85c0-.038-.014-.07-.04-.098l-.538-.54c-.028-.028-.06-.044-.098-.044h-1.56c-.038 0-.07.016-.1.043l-.515.532c-.028.026-.042.06-.042.097v2.457c0 .036.014.07.042.097l.53.532c.028.027.06.043.098.043h1.56c.04 0 .07-.017.1-.044l.522-.525c.028-.026.04-.06.04-.096v-2.458zM114.454 50.3c-.098.096-.215.145-.35.145h-1.208c-.136 0-.252-.05-.35-.146l-.587-.595c-.094-.093-.14-.207-.14-.34v-2.492c0-.135.046-.248.14-.342l.586-.592c.098-.097.214-.147.35-.147h1.202c.134 0 .25.05.35.146l.704.7-.307.308-.684-.684c-.027-.027-.06-.043-.097-.043h-1.132c-.037 0-.07.016-.097.043l-.524.546c-.03.028-.043.06-.043.1v2.42c0 .038.014.07.042.098l.53.552c.028.027.06.043.098.043h1.13c.038 0 .07-.017.1-.044l.685-.678.307.3-.706.703zM120.086 50.445h-.46l-.505-1.328h-2.29l-.503 1.328h-.468l1.773-4.66h.69l1.763 4.66zm-1.132-1.754l-.98-2.585-.977 2.586h1.957zM124.194 46.217h-1.46v4.228h-.44v-4.228h-1.44v-.426h3.34v.427M128.386 50.445h-2.893V45.79h2.893v.427h-2.458v1.692h2.458v.426h-2.458v1.683h2.458M133.3 50.445h-.707l-2.194-4.24v4.24h-.434v-4.66h.713l2.187 4.248v-4.248h.433v4.66M148.487 50.445h-2.9V45.79h.433v4.23h2.467M153.378 50.445h-.46l-.505-1.328h-2.292l-.502 1.328h-.468l1.775-4.66h.692l1.76 4.66zm-1.132-1.754l-.98-2.585-.977 2.586h1.956zM155.188 50.445l-.902-4.66h.406l.81 4.198.783-4.198h.684l.783 4.198.782-4.198h.455l-.888 4.66h-.664l-.797-4.22-.81 4.22M163.678 45.785l-1.67 2.6v2.06h-.433v-2.06l-1.677-2.6h.51l1.374 2.13 1.38-2.13h.516M167.877 50.445h-2.893V45.79h2.893v.427h-2.46v1.692h2.46v.426h-2.46v1.683h2.46M172.602 50.445l-1.293-2.05c-.03-.04-.068-.06-.12-.06h-1.293v2.11h-.44V45.79h2.46c.126 0 .24.048.342.14l.377.37c.097.096.147.213.147.348v.836c0 .126-.047.24-.14.343l-.356.36c-.1.1-.216.148-.35.148h-.175l1.362 2.11h-.523zm-.252-3.757c0-.038-.014-.07-.043-.1l-.33-.33c-.026-.026-.06-.042-.096-.042h-1.983v1.692h2.006c.037 0 .07-.014.098-.043l.307-.3c.03-.03.043-.062.043-.098v-.78zM177.794 49.704l-.58.593c-.097.1-.215.148-.35.148h-1.62c-.136 0-.252-.05-.35-.144l-.72-.716.307-.313.68.706c.028.027.063.043.104.043h1.56c.036 0 .07-.017.097-.044l.532-.55c.028-.03.042-.062.042-.1v-.677c0-.04-.012-.07-.034-.096-.024-.025-.054-.04-.09-.045l-2.76-.342c-.122-.016-.225-.068-.31-.16-.082-.094-.123-.204-.123-.33v-.82c0-.132.05-.25.153-.354l.602-.575c.102-.092.214-.14.334-.14h1.594c.135 0 .25.047.342.138l.72.715-.3.3-.706-.684c-.03-.028-.06-.044-.1-.044h-1.522c-.037 0-.07.016-.098.043l-.538.523c-.028.027-.042.06-.042.097v.707c0 .037.012.07.036.093.02.025.053.042.09.046l2.76.342c.12.015.223.068.307.16.083.094.124.203.124.33v.803c0 .128-.048.24-.14.344zM193.043 50.445l-1.292-2.05c-.027-.04-.066-.06-.118-.06h-1.294v2.11h-.438V45.79h2.46c.124 0 .238.048.34.14l.377.37c.1.096.15.213.15.348v.836c0 .126-.05.24-.142.343l-.356.36c-.1.1-.215.148-.35.148h-.175l1.362 2.11h-.524zm-.252-3.757c0-.038-.012-.07-.04-.1l-.33-.33c-.027-.026-.06-.042-.097-.042h-1.985v1.692h2.006c.038 0 .07-.014.098-.043l.308-.3c.028-.03.04-.062.04-.098v-.78zM197.83 50.445h-2.893V45.79h2.893v.427h-2.46v1.692h2.46v.426h-2.46v1.683h2.46v.425M201.792 50.3c-.098.096-.215.145-.35.145h-1.208c-.136 0-.253-.05-.35-.146l-.588-.595c-.09-.093-.14-.207-.14-.34v-2.492c0-.135.05-.248.14-.342l.59-.592c.095-.097.212-.147.348-.147h1.2c.136 0 .253.05.35.146l.707.7-.306.308-.685-.684c-.03-.027-.06-.043-.098-.043h-1.133c-.04 0-.07.016-.1.043l-.522.546c-.028.028-.042.06-.042.1v2.42c0 .038.014.07.042.098l.53.552c.028.027.06.043.1.043h1.13c.038 0 .07-.017.1-.044l.682-.678.307.3-.705.703zM207.053 50.445h-.44v-2.11h-2.445v2.11h-.44V45.79h.44v2.12h2.446v-2.12h.44M211.693 46.217h-1.46v4.228h-.44v-4.228h-1.44v-.426h3.34v.427M216.292 49.704l-.58.593c-.097.1-.215.148-.35.148h-1.62c-.136 0-.253-.05-.35-.144l-.72-.716.31-.313.676.706c.03.027.063.043.105.043h1.56c.036 0 .068-.017.096-.044l.53-.55c.028-.03.042-.062.042-.1v-.677c0-.04-.01-.07-.034-.096-.024-.025-.053-.04-.09-.045l-2.76-.342c-.122-.016-.225-.068-.308-.16-.084-.094-.125-.204-.125-.33v-.82c0-.132.05-.25.152-.354l.603-.575c.102-.092.214-.14.334-.14h1.594c.134 0 .25.047.342.138l.72.715-.3.3-.706-.684c-.028-.028-.06-.044-.098-.044h-1.524c-.036 0-.07.016-.097.043l-.538.523c-.028.027-.043.06-.043.097v.707c0 .037.01.07.036.093.023.025.052.042.09.046l2.76.342c.12.015.224.068.306.16.085.094.127.203.127.33v.803c0 .128-.048.24-.14.344zM221.638 50.445h-.46l-.505-1.328h-2.293l-.503 1.328h-.468l1.774-4.66h.69l1.764 4.66zm-1.132-1.754l-.978-2.585-.98 2.586h1.958zM226.27 50.445h-.705l-2.194-4.24v4.24h-.432v-4.66h.713l2.188 4.248v-4.248h.433v4.66M228.612 50.445l-.902-4.66h.405l.81 4.198.784-4.198h.683l.783 4.198.782-4.198h.454l-.887 4.66h-.664l-.796-4.22-.81 4.22M237.55 50.445h-.462l-.504-1.328h-2.293l-.502 1.328h-.468l1.773-4.66h.693l1.763 4.66zm-2.58-5.053h-.586v-.586h.587v.586zm1.448 3.292l-.98-2.586-.978 2.586h1.958zm.083-3.292h-.586v-.586h.587v.586zM241.748 50.445h-2.9V45.79h.434v4.23h2.467v.425M245.753 46.217h-1.46v4.228h-.44v-4.228h-1.44v-.426h3.34v.427M249.945 50.445h-2.893V45.79h2.893v.427h-2.46v1.692h2.46v.426h-2.46v1.683h2.46" fill="#413C32"/></g></svg>
