<svg width="145" height="30" viewBox="0 0 145 30" xmlns="http://www.w3.org/2000/svg"><title>logo</title><g fill-rule="nonzero" fill="none"><path d="M18.134 17.096c-.392 4.775-3.868 7.857-8.644 7.857C3.265 24.953 0 20.45 0 14.557c0-5.985 2.87-10.94 9.398-10.94 5.29 0 8.313 3.144 8.736 8.31l-5.925.302c.06-1.752-.603-3.96-2.75-3.96-2.813 0-2.934 4.323-2.934 6.288 0 2.084.12 5.622 2.993 5.622 1.963 0 2.72-1.724 2.81-3.445l5.804.36zM47.876 25.587C46.726 28.79 45.186 30 41.74 30l-2.54-.12-.512-.03v-4.293l2.174.185c.82 0 2.633.028 2.633-1.18 0-.456-.244-.97-.395-1.394l-5.41-13.96h6.497l2.54 8.22 2.69-8.22h4.41l-5.95 16.38z" fill="#FF0586"/><path d="M34.976 13.133v5.322c0 1.12-.12 1.994 1.3 1.994.575 0 1.15-.122 1.723-.272V24.5l-3.537.453c-1.6.21-3.144-.303-4.322-1.57-1.175-1.272-1.147-2.752-1.147-4.414v-5.835h-2.236V9.207h2.507l.454-4.925 5.198-.184v5.11H38v3.927h-2.386l-.638-.002zM25.657 10.45V9.207h-5.985v1.477h-.005v5.222l.005.002v8.742h5.985v-6.935M17.627 4.522l4.584-.604L22.875 0l1.144 3.618 3.018-.544-2.292 2.533.842 3.197-2.41-1.75-3.318 1.267 1.69-2.17" fill="#FF0586"/><path d="M112.52 9.2c-.31-.075-.513-.106-.524-.107.177.033.352.07.525.114V9.2z" fill="#FFF"/><g fill="#FFF"><path d="M61.457 24.65h-6.44V3.918h8.464c2.028 0 4.293.06 6.077 1.087 1.935 1.15 3.083 3.205 3.083 5.44 0 1.964-.754 3.84-2.3 5.08-1.6 1.3-3.655 1.6-5.65 1.6h-3.234v7.525zm1.663-11.968c1.45 0 3.202-.09 3.202-2.025 0-1.843-1.57-1.993-3.02-1.993H61.46v4.018h1.662zM80.723 24.65H74.74V3.918h5.983M92.176 9.207v1.348h-.002v6.82h.002v.72c0 .572-.03 1.117-.304 1.632-.27.545-.847.877-1.45.877-1.36 0-1.33-1.058-1.33-2.056v-.625h.002V9.935h-.002v-.728h-5.984v10.67c0 1.45.12 2.81 1.21 3.898.936.875 2.176 1.178 3.446 1.178 1.994 0 4.047-.848 4.685-2.842h.06v2.54h5.65V9.207h-5.984zM103.396 17.28c-1.595-.66-2.496-1.773-2.496-3.548 0-3.97 4.39-4.813 7.52-4.813.965 0 1.926.06 2.857.3.33-2.226 1.443-3.61 3.822-3.61.718 0 1.318.03 2.134.12l-.15 4.12c-.664-.088-.993-.06-1.475-.06-.544 0-1.386.03-1.686.573 1.052.84 1.716 2.105 1.716 3.458 0 3.854-3.94 4.696-7.04 4.696-.512 0-.872-.062-1.385-.062-.934 0-1.444.212-1.444.753 0 .603.513.662 1.654.724l4.214.18c1.323.06 2.736.243 3.82 1.053 1.172.873 1.773 2.377 1.773 3.82 0 2.195-1.474 3.58-3.43 4.243-1.65.567-4.03.66-5.837.66-2.555 0-8.33-.18-8.33-3.79 0-1.475.873-2.497 2.225-2.98-.842-.63-1.41-1.353-1.41-2.436 0-1.774 1.445-2.826 2.948-3.4zm2.436 9.206c.963.24 1.988.27 2.98.27.9 0 3.128.15 3.128-1.2 0-1.026-1.023-.966-1.774-.995-1.354-.06-2.68-.18-4.028-.18-.693 0-1.506.062-1.506.964-.002.722.57.992 1.2 1.142zm4.332-12.665c0-1.172-.602-1.922-1.834-1.922-1.143 0-1.773.78-1.773 1.893 0 1.234.66 1.868 1.894 1.868 1.112 0 1.714-.783 1.714-1.837z"/></g><g fill="#FF0586"><path d="M119.927 21.438h3.374v3.213h-3.373M125.2 13.064h3.214v4.09h.03c.485-.713 1.347-1.137 2.304-1.137 2.824 0 3.586 2.4 3.586 4.38 0 2.11-1.15 4.466-3.537 4.466-1.574 0-2.06-.602-2.467-1.14h-.032v.927h-3.1V13.064zm4.51 5.29c-1.15 0-1.412 1.09-1.412 2.078 0 1.006.26 2.094 1.41 2.094 1.153 0 1.413-1.088 1.413-2.094 0-.99-.26-2.078-1.41-2.078zM138.42 21.162c.084.957.635 1.64 1.643 1.64.52 0 1.088-.194 1.347-.603h3.004c-.65 1.817-2.42 2.663-4.334 2.663-2.695 0-4.724-1.592-4.724-4.4 0-2.45 1.785-4.443 4.445-4.443 3.345 0 4.788 1.865 4.788 5.144l-6.167-.002zm3.085-1.672c0-.778-.584-1.41-1.413-1.41-.953 0-1.507.502-1.654 1.41h3.067z"/></g></g></svg>
